<svg width="64" height="64" viewBox="0 0 64 64" fill="none" xmlns="http://www.w3.org/2000/svg">
<path fill-rule="evenodd" clip-rule="evenodd" d="M32.1311 50.2233C42.5936 50.2233 52.9019 46.6758 58.3926 41.184C61.1812 38.3954 62.655 35.1751 62.655 31.8693C62.655 28.5878 61.2004 25.3994 58.4499 22.6483C53.0016 17.2 42.6707 13.6794 32.1311 13.6794C24.7507 13.6794 17.2194 15.4166 11.4683 18.4458C4.89807 21.9058 1.28003 26.6733 1.28003 31.8693C1.28003 35.1277 2.73958 38.3095 5.50172 41.0711C8.2622 43.831 12.2729 46.1536 17.1016 47.7867C21.814 49.3812 27.0117 50.2233 32.1311 50.2233" fill="white"/>
<path fill-rule="evenodd" clip-rule="evenodd" d="M11.9238 19.3112C5.69067 22.5938 2.25769 27.054 2.25769 31.8694C2.25769 34.8629 3.61865 37.8051 6.19353 40.3805C8.84771 43.0342 12.7279 45.2753 17.4145 46.8604C22.0277 48.4207 27.1169 49.2458 32.1312 49.2458C42.3469 49.2458 52.3842 45.8095 57.7014 40.4923C60.3022 37.8921 61.6769 34.9102 61.6769 31.8694C61.6769 28.8528 60.322 25.9034 57.7581 23.3396C52.4845 18.0654 42.4246 14.6577 32.1312 14.6577C24.905 14.6577 17.5395 16.3535 11.9238 19.3112" fill="black"/>
<path fill-rule="evenodd" clip-rule="evenodd" d="M32.1129 47.5124C41.1313 47.5124 49.6776 44.569 54.4154 39.8318C56.8052 37.4415 58.0681 34.7135 58.0681 31.9414C58.0681 29.1699 56.8052 26.4419 54.4154 24.0521C49.6771 19.3144 41.1313 16.3716 32.1129 16.3716C25.4909 16.3716 18.8987 18.0063 14.0271 20.8571C8.95228 23.8269 6.1571 27.7632 6.1571 31.9414C6.1571 34.7135 7.42058 37.4415 9.81094 39.8318C14.5482 44.569 23.094 47.5124 32.1129 47.5124" fill="#B3995D"/>
<path fill-rule="evenodd" clip-rule="evenodd" d="M32.1597 46.9594C45.3789 46.9594 56.0959 40.1105 56.0959 31.8582C56.0959 23.606 45.3789 16.9163 32.1597 16.9163C18.9401 16.9163 8.22363 23.606 8.22363 31.8582C8.22363 40.1105 18.9401 46.9594 32.1597 46.9594" fill="#AA0000"/>
<path fill-rule="evenodd" clip-rule="evenodd" d="M50.8823 29.9812H50.8162V29.4359H41.3192C41.1154 28.368 40.5013 27.3766 39.6239 26.6027C38.7597 25.6097 37.5051 24.8628 36.0758 24.5792L35.4843 24.4569C34.1134 24.1688 33.0306 23.9408 28.6751 23.9634C28.6751 23.9629 27.8373 23.9348 27.0238 23.8268C26.8178 23.7745 26.6377 23.7123 26.483 23.6451C26.543 23.2826 27.2056 22.7831 27.9541 22.6867C28.0312 22.6724 32.7453 21.8049 37.597 24.9476L37.716 25.0242H40.905V20.1443H40.3597V19.5991H35.9838C35.9838 19.5991 35.4639 19.9962 35.2463 20.1625C33.9862 19.8469 27.8158 18.4964 22.4865 20.8295C20.2471 21.7548 18.8575 23.5013 18.9566 25.2754C19.0068 26.1698 19.4347 26.9497 20.1749 27.5545C20.7191 28.2341 21.575 28.764 22.6898 29.0856C24.2672 29.54 25.6034 29.7273 26.8988 29.8016V32.0262H27.4435V32.5715H29.108C29.797 32.5715 29.9743 32.9531 30.0167 33.0952C27.893 32.9565 24.6638 32.3523 22.2866 30.1525L22.1974 30.0561H22.1803C22.0492 29.9305 21.9204 29.8005 21.7942 29.665L21.6516 29.5114H19.259V36.4572H19.8043V37.0013H21.7562C22.0421 37.0217 22.9486 36.9209 23.5749 35.0918C24.59 35.446 27.0916 36.1989 30.1721 36.2826C30.1721 37.3841 30.1721 40.5599 30.1721 40.604C30.0652 42.0552 26.8685 42.5091 25.7554 42.5531L25.2949 42.5713V44.7199H25.8397V45.2641H39.874V43.2086L39.5165 43.1138C39.4521 43.0973 39.3904 43.0802 39.3287 43.0632V42.5928L38.8908 42.5554C38.1016 42.4854 37.4946 42.3488 37.0242 42.1808C36.1414 41.6862 35.9904 41.2853 35.9712 41.2203C35.9712 41.1795 35.9712 39.5691 35.9712 38.9164C36.7329 38.9164 39.994 38.9164 40.0843 38.9164C40.5189 38.9819 40.8912 39.1725 41.2068 39.4198C41.7989 40.149 42.0693 40.9829 42.0732 40.9967L42.1784 41.3343L42.5314 41.3354H42.543C42.592 41.4593 42.6174 41.5375 42.619 41.5419L42.7237 41.8801L43.0773 41.8807H44.9339V33.5226H44.3886V32.9774H42.1878L42.109 33.3591C41.5329 36.1366 38.3208 36.0959 35.465 35.6795C36.0251 35.5275 36.5875 35.3424 37.1482 35.1199C38.6771 34.5124 39.8244 33.6862 40.5398 32.718H46.7047C47.1343 32.7317 47.4994 32.8397 47.8068 33.0407C48.4528 33.9881 48.3884 35.3848 48.3873 35.4008L48.3603 35.9064H48.9336C48.9336 35.929 48.9331 35.9439 48.9331 35.945L48.9056 36.4506L49.4117 36.4517H51.362V29.9812H50.8823" fill="black"/>
<path fill-rule="evenodd" clip-rule="evenodd" d="M34.7308 29.1194C36.5065 29.6393 36.6712 30.9942 35.6324 32.2621C34.3023 33.5173 32.2716 33.5691 32.2716 33.5691C32.2716 33.5691 25.4338 34.3077 21.4417 29.9912H19.7387V35.9776H21.2324C21.2324 35.9776 22.1423 36.1175 22.7256 33.9232C22.7256 33.9232 29.748 36.7812 36.4261 34.1292C42.895 31.5599 40.433 25.932 35.9827 25.0497C35.7708 25.0077 35.5746 24.9664 35.3843 24.9264L35.3843 24.9264C34.037 24.6428 32.9816 24.4206 28.6773 24.4433C28.6773 24.4433 27.7905 24.4152 26.9263 24.2984C24.2193 23.6215 25.7598 21.8712 27.3471 21.6657C27.3471 21.6657 32.2254 20.7041 37.3129 23.9999H39.8806V20.079H36.1463L35.3521 20.6859C35.3521 20.6859 28.4283 18.7521 22.6793 21.2692C18.8151 22.8664 18.0578 26.8628 22.2773 28.079C24.9448 28.848 26.9184 28.8341 29.2118 28.818H29.2119C30.1148 28.8117 31.0673 28.805 32.1312 28.8456C33.1837 28.8858 34.0985 28.9271 34.7308 29.1194ZM46.1588 31.6926H41.0499C41.4987 31.1495 41.5197 29.9158 41.5197 29.9158H50.3365V35.4268H48.8665C48.8665 35.4268 49.0763 31.7862 46.1588 31.6926ZM30.6518 40.6311V36.399C32.6357 36.4414 34.3183 36.0206 34.3183 36.0206C34.4037 36.0017 34.6702 36.0433 35.0586 36.104C36.9655 36.4022 41.8104 37.1597 42.5783 33.4573H43.9084V40.8558H42.5314C42.5314 40.8558 41.7146 38.1945 39.5914 37.891H34.9462V40.7159C34.9462 40.7159 34.9638 42.6965 38.849 43.033V44.2403H25.7741V43.033C25.7741 43.033 30.5009 42.8491 30.6518 40.6311ZM27.3785 31.5472H29.152C30.3803 31.5472 30.5427 32.7947 30.5427 32.7947C32.5096 33.1527 34.1707 32.6289 34.9638 31.8931C35.8054 31.1121 35.5383 29.9576 33.5423 29.9576C32.136 29.9662 30.3179 29.9627 28.8886 29.9598C28.301 29.9587 27.7791 29.9576 27.3785 29.9576V31.5472Z" fill="white"/>
</svg>
