<svg width="64" height="64" viewBox="0 0 64 64" fill="none" xmlns="http://www.w3.org/2000/svg">
<path fill-rule="evenodd" clip-rule="evenodd" d="M8.26551 40.4831C12.4478 37.8131 13.7634 34.8054 13.7634 34.8054L1.91998 36.505L6.95305 27.5665L17.0655 26.7152C17.0655 26.7152 20.9998 23.2044 27.091 20.6873C27.091 20.6873 27.7262 19.5797 31.205 17.5775C31.205 17.5775 34.3956 15.6987 38.0291 14.4965C38.0291 14.4965 40.4918 13.6495 41.2185 13.6069L41.0049 12.8238L45.6483 12.426L45.7679 11.9812C45.7679 11.9812 48.1918 12.1447 49.5819 12.7599L49.8557 12.3953C49.8557 12.3953 53.0995 13.8863 55.5139 17.5499C55.5139 17.5499 57.8557 17.4196 59.9519 18.4226C59.9519 18.4226 62.1733 19.3059 62.0731 21.8845C62.0731 21.8845 62.0581 25.1747 61.0745 28.4355C61.0745 28.4355 60.9235 28.946 60.7832 29.2505C60.7832 29.2505 60.579 29.6659 60.1849 30.1902C60.1849 30.1902 59.0848 31.3229 58.6582 32.3202C58.6582 32.3202 58.427 32.9836 57.9678 34.189C57.9678 34.189 57.6145 35.8466 55.2063 35.9387C55.2063 35.9387 52.8627 38.9044 51.8854 39.7558L51.8027 39.0354C51.8027 39.0354 50.1676 40.5502 48.7487 41.4448L49.2279 37.2462C49.2279 37.2462 49.3457 36.4963 48.8696 36.4424L47.6448 36.4129C47.6448 36.4129 48.0458 38.9401 47.5615 40.1085C47.5615 40.1085 47.2533 41.9428 44.4072 42.8161C44.4072 42.8161 42.2083 43.5159 39.6924 43.7126L39.1518 43.6268L35.1912 45.2499L36.3489 41.0971C36.3489 41.0971 34.8648 41.2474 34.737 41.0614L30.3267 42.9521L32.0601 37.9848L33.2479 37.327L32.8689 36.812L30.4307 36.8339L29.5336 37.5318C27.4625 36.9924 25.449 37.1378 25.449 37.1378L15.2005 45.4554L12.6326 51.1319L9.56606 47.0316L10.5258 45.7762L10.1612 45.5018L8.77107 46.5956L6.71311 52.1386L3.68225 47.8611L4.46158 46.1226L4.2893 45.0576C5.19141 44.4618 5.77528 44.0628 6.23136 43.5503C6.48006 43.2296 6.61726 43.1181 6.90606 42.5787C7.17858 41.9196 7.1886 41.2061 7.49244 40.9799C7.87271 40.7218 8.16339 40.5483 8.26551 40.4831" fill="white"/>
<path fill-rule="evenodd" clip-rule="evenodd" d="M7.52813 28.4624L3.60956 35.368L54.1727 27.8322C54.1727 27.8322 52.4154 26.4959 54.9626 24.3828L7.52813 28.4624" fill="#C60C30"/>
<path fill-rule="evenodd" clip-rule="evenodd" d="M58.8537 23.4213C58.8537 23.4213 54.9057 26.1207 56.2745 28.4493C56.2745 28.4493 54.8417 29.243 56.4248 30.36C56.4248 30.36 53.9778 31.4614 54.625 28.4393L14.8729 34.4547C14.8729 34.4547 14.0228 38.0544 8.38517 41.463C8.38517 41.463 7.9717 41.7054 7.93474 42.1577C7.93474 42.1577 7.97483 42.7222 7.46175 43.4051C7.46175 43.4051 6.82589 44.5133 5.35305 45.4555L5.4583 46.1935L4.76855 47.7766L6.45752 50.2016L7.98548 46.077L11.0107 43.7534C11.0107 43.7534 13.9714 39.12 18.8403 37.3064C18.8403 37.3064 23.1361 35.4733 29.4083 36.5114L29.9809 35.962L37.2423 35.8016C37.2423 35.8016 37.5154 35.8642 37.3331 36.0121C37.3331 36.0121 35.9029 37.1122 34.3361 37.2537L34.4814 37.7004C34.4814 37.7004 34.524 37.857 34.4069 37.8946L32.8858 38.4985L31.8797 41.287L34.7339 40.0447L34.8937 40.1649C34.8937 40.1649 37.3776 40.3191 41.1151 39.5629C41.1151 39.5629 43.7075 39.0498 44.4292 35.6926L49.3626 35.4771C49.3626 35.4771 50.3907 35.6963 50.2616 36.6504L49.9083 39.4476L52.1648 37.4373L52.3215 37.9648C52.3215 37.9648 54.0311 36.1136 54.4696 35.0542C54.4696 35.0542 56.3465 35.0918 56.8095 34.3331C56.8095 34.3331 57.0219 34.1201 57.622 32.4687C57.622 32.4687 57.9033 31.3085 59.0629 30.1671C59.0629 30.1671 59.9606 29.3264 60.4593 27.1193C60.4593 27.1193 61.0614 23.9206 61.0563 23.311C61.0563 23.311 61.7035 20.1467 59.5353 19.2145C59.5353 19.2145 57.924 18.3255 54.9075 18.5724C54.9075 18.5724 54.3061 16.4731 50.1482 13.5951L49.8463 14.0449C49.8463 14.0449 48.4254 13.0669 46.4138 13.0895L46.3117 13.3689C46.3117 13.3689 45.0895 13.3601 42.4232 13.6383L42.6713 14.3763C42.6713 14.3763 37.1728 14.6312 29.3726 19.8535L29.2304 20.2808L28.2387 20.7475L28.768 21.0382C28.768 21.0382 22.809 23.1901 18.4726 26.7384L58.8537 23.4213ZM44.9247 36.3128L46.6306 36.2933C46.6306 36.2933 46.972 38.5449 46.7697 39.5491C46.7697 39.5491 46.4333 41.042 44.9091 41.6259C44.9091 41.6259 42.6638 42.5762 39.2971 42.7917L39.1342 42.652L36.582 43.7289L37.4202 40.7607C37.4202 40.7607 40.8414 40.4963 41.8751 40.1869C41.8751 40.1869 44.5275 39.6656 44.9247 36.3128ZM13.7114 42.0049C17.8574 37.1215 23.911 37.1942 23.911 37.1942L14.4632 44.8484L12.4222 49.3709L10.611 46.944L11.6315 45.5376L11.552 44.9781C13.7002 43.7765 13.7114 42.0049 13.7114 42.0049Z" fill="#00338D"/>
</svg>
