<svg width="64" height="64" viewBox="0 0 64 64" fill="none" xmlns="http://www.w3.org/2000/svg">
<g clip-path="url(#clip0_14_2090)">
<path d="M58.24 47.1138V47.0697C58.0039 43.8769 57.2901 40.6472 56.0568 37.1951L56.0421 37.1605L56.0285 37.1258L55.8847 36.7826L55.9015 36.8204C55.3872 35.4853 54.3145 34.9091 52.7349 35.1054L52.0243 35.183L51.7346 35.2082C50.516 35.3205 48.7663 35.4769 47.2213 35.3331L45.3047 30.7967C45.6918 30.5634 46.016 30.2392 46.2494 29.8521C46.4119 29.5529 46.5273 29.2303 46.5915 28.8959C47.1776 28.8239 47.721 28.5522 48.1303 28.1266C48.7128 27.4905 49.0434 26.3422 48.2195 25.0407L48.2615 25.109L45.6941 20.475L44.1754 21.1205C38.0877 11.3067 26.5043 9.80369 17.9553 13.492C10.2008 16.8392 2.68989 25.6673 7.03943 39.5473C7.50647 41.0218 8.09159 42.4564 8.78912 43.837C8.74505 44.2714 8.77307 44.7101 8.87204 45.1353V45.1584L8.87938 45.1815C9.1019 46.0212 9.30447 46.5754 9.82403 47.731C9.80009 48.517 10.0893 49.2804 10.628 49.8533C11.4824 50.7727 12.8385 51.1327 14.3489 50.841L14.2764 50.8515C16.2707 50.5712 17.5722 49.9855 18.2523 49.5919C21.2458 51.6911 25.1587 52.6232 28.6329 52.0459C30.8969 51.6701 32.7263 50.6909 33.9858 49.2015C34.6548 49.2416 35.3261 49.222 35.9916 49.1427C36.9901 49.0797 37.9716 48.8535 38.8969 48.4731C40.1806 49.9708 41.9166 51.0446 44.0001 51.5956C46.432 52.2369 49.1904 52.1939 51.8144 51.4907C52.2837 51.524 52.7538 51.4354 53.1788 51.2335C55.9351 50.6037 56.5502 50.3403 56.9574 49.9918C56.9634 49.9878 56.9687 49.9828 56.9731 49.9771C57.9556 49.3075 58.2757 48.0459 58.24 47.1138ZM51.3263 49.8533C48.9993 50.4516 46.5055 50.483 44.4063 49.932C42.4991 49.4282 40.2457 48.324 38.9935 45.552C38.9164 45.4092 38.8511 45.2604 38.7983 45.107C38.7983 45.107 39.4375 45.1196 39.8573 45.0839C41.8001 49.2456 46.8067 50.017 51.0975 48.9223C51.0975 48.9223 51.49 48.8551 51.6002 48.7365C51.6895 48.5266 51.68 48.0018 51.68 48.0018C51.6748 47.8811 51.575 45.319 51.1027 43.6145C51.0841 43.4929 51.0341 43.3782 50.9579 43.2817C50.8873 43.2519 50.8127 43.2328 50.7364 43.2251C50.558 43.2256 50.3801 43.2438 50.2053 43.2796C47.5593 43.9094 43.4658 44.4342 40.2341 44.7596C40.2278 44.7596 39.9801 44.7974 39.5435 44.8163L39.194 44.8257C38.331 44.8285 37.4694 44.7583 36.6182 44.6158C36.6182 44.6158 24.5646 42.6551 24.615 42.653L25.2595 41.7703L36.8649 43.6764C38.6345 43.9419 39.4564 43.8149 39.4784 43.8097C42.6052 43.6355 48.3864 42.779 49.7844 42.4064C49.7844 42.4064 50.5401 42.2269 50.6357 42.1303C50.6976 42.0684 50.5412 41.5006 50.5412 41.5006C50.5349 41.4817 49.9692 39.6291 49.6858 38.9154V38.9301C49.6784 38.9007 49.5556 38.505 49.4255 38.4452H49.331C49.331 38.4452 49.1641 38.4767 48.9605 38.5228C46.2315 39.0183 41.2585 39.7141 38.3333 39.8873C38.5862 39.8716 37.1493 39.9388 36.0326 39.8611C34.4435 39.7719 32.6738 39.3772 30.9242 37.4722C30.9053 37.4533 28.9635 35.6029 28.1815 34.7432C28.0982 34.6296 28.0633 34.4876 28.0846 34.3482C28.1058 34.2089 28.1815 34.0837 28.2949 34.0001C28.4397 33.8847 28.7263 33.8322 28.8869 34.0201C29.2301 34.4787 31.196 36.5076 32.1627 37.4145C33.2396 38.2542 34.0121 38.6918 35.5141 38.8619C36.1191 38.9226 36.727 38.9507 37.3351 38.9458C39.3136 38.9962 46.5254 38.1146 48.6456 37.6958C48.7922 37.6786 48.9365 37.6455 49.0759 37.5971V37.5562L49.0885 37.467C49.1494 37.3923 49.2286 37.3348 49.3184 37.3001C49.4269 37.2489 49.5478 37.2299 49.6668 37.2451C49.7858 37.2604 49.898 37.3093 49.9901 37.3861C51.5026 40.1739 52.9962 45.3515 52.6509 49.2624C52.6504 49.3548 52.626 49.4455 52.58 49.5257C52.534 49.6059 52.468 49.6729 52.3885 49.72C52.2773 49.7647 52.1579 49.7857 52.0381 49.7818C51.9183 49.7778 51.8006 49.7489 51.6926 49.6969C51.6926 49.6969 51.7031 49.7252 51.3263 49.8533ZM48.0526 44.0374C48.251 44.0007 49.0655 43.8202 49.0655 43.8202C49.9272 45.1154 51.3116 46.0495 51.3116 46.0495C51.3473 46.3749 51.3767 47.2041 51.3767 47.2041C49.2029 46.1377 48.0526 44.0353 48.0526 44.0353V44.0374ZM40.4062 45.6486C40.3317 45.5268 40.2593 45.4009 40.1963 45.2718L40.0914 45.0682C40.2593 45.0493 40.3538 45.0335 40.3538 45.0335L40.8964 44.9768C40.7504 45.2123 40.5865 45.4361 40.4062 45.6465V45.6486ZM23.8855 42.6856C23.7721 42.6787 23.6621 42.6439 23.5654 42.5841C23.4687 42.5244 23.3883 42.4417 23.3313 42.3434C23.3053 42.2909 23.2949 42.232 23.3014 42.1737C23.3079 42.1155 23.3311 42.0603 23.3681 42.0149L24.8774 39.7057C24.9729 39.8873 25.7307 40.3429 25.7307 40.3429C25.4158 40.8131 24.2781 42.5019 24.276 42.5029C24.2339 42.5661 24.1751 42.6164 24.1062 42.6483C24.0373 42.6802 23.9609 42.6923 23.8855 42.6835V42.6856ZM27.9191 34.9091C28.1441 35.2008 28.3942 35.4723 28.6665 35.7204L27.5119 37.5541C27.3566 37.6779 27.0291 37.5541 26.8255 37.3546C26.7782 37.3095 26.5547 37.0786 26.689 36.917L26.6964 36.9086L26.7016 36.8981C26.7163 36.8676 26.9672 36.4509 27.9191 34.907V34.9091ZM29.7706 39.1075C29.356 38.8293 27.7397 37.7524 27.7397 37.7524L27.9107 37.5866C28.6455 38.0568 29.5985 38.6855 30.0099 39.0004C30.752 39.563 30.3511 40.241 30.3511 40.241C30.4256 39.8328 30.244 39.4266 29.7706 39.1064V39.1075ZM27.5245 37.8784L29.6405 39.2954C29.9554 39.5231 30.2702 39.9136 30.0845 40.4426C30.0572 39.9472 29.4432 39.5567 29.4432 39.5567C29.4432 39.5567 27.1718 38.2164 26.4717 37.7829C26.0729 37.532 26.1138 37.1857 26.3227 37.0041C26.2923 37.5467 27.1288 37.9855 27.5245 37.8773V37.8784ZM26.3458 37.9687C27.049 38.4105 28.529 39.3058 28.9561 39.5431C29.4138 39.7981 29.5061 39.9199 29.5061 39.9199C30.0372 40.4247 29.9354 40.9264 29.6772 41.277C29.3823 41.6706 28.8187 41.9225 28.3484 41.6108L27.7103 41.2161L27.4783 41.0776L25.4925 39.8569H25.4862C25.4862 39.8569 25.1555 39.7036 25.0726 39.3993C25.017 39.1893 25.0821 38.9584 25.2658 38.7002C25.6856 38.1104 25.8892 37.7724 25.9784 37.616C26.0687 37.806 26.3458 37.9676 26.3458 37.9676V37.9687ZM25.99 40.4762C26.9231 41.0335 28.2477 41.8564 28.2477 41.8564C29.1598 42.4368 29.863 41.6024 30.0855 41.3064C30.2577 41.0755 30.7888 40.3617 30.7709 39.7498C30.752 39.1558 30.2965 38.8367 29.8892 38.569L27.9937 37.3242L28.8816 35.8863C29.7339 36.7375 30.7132 37.6706 30.7216 37.68C31.235 38.2453 31.8301 38.7307 32.487 39.1201C32.6266 39.2019 32.7662 39.2754 32.9068 39.3447C33.2847 40.4992 33.6961 41.5184 33.8746 42.271C33.7308 41.3946 33.4694 40.4562 33.2133 39.4864C34.223 39.922 35.2076 40.0563 36.1144 40.1067L36.2414 40.114L36.3013 40.2463C35.9433 41.2004 35.2758 42.2237 34.412 42.8472C34.412 42.8965 34.4183 42.9469 34.4204 42.9973L33.6353 42.8724L33.0255 42.7748L32.7305 42.7286L25.272 41.5404L25.99 40.4762ZM48.3517 42.3927C48.1901 42.4641 47.3997 42.5785 47.3997 42.5785C47.2108 42.2195 46.0153 39.2922 46.0153 39.2922C46.1581 39.2744 46.96 39.1432 46.96 39.1432C47.3657 40.25 47.8303 41.3344 48.3517 42.3917V42.3927ZM48.5868 42.3203L48.2268 41.4922C49.4307 41.5121 50.2998 41.4995 50.2998 41.4995C50.4436 42.0327 49.9461 42.0516 49.9461 42.0516L48.5868 42.3203ZM41.8358 40.3796L41.8421 40.5286L46.5527 41.3368C46.6419 41.595 46.9788 42.3581 46.9788 42.3581L41.8515 41.4859C41.8515 41.5373 41.8515 41.5908 41.8515 41.6454C41.8231 42.2164 41.7349 42.7828 41.5881 43.3353C41.3614 43.3594 41.1336 43.3814 40.9027 43.4035C41.2365 42.2962 41.2774 41.0587 41.1315 39.8684C41.3467 39.8453 41.565 39.8223 41.7854 39.7971C41.8043 39.9923 41.8222 40.1854 41.8358 40.3785V40.3796ZM39.1614 43.5557C38.802 43.6084 38.4375 43.6165 38.0761 43.5798C37.7529 42.969 37.396 42.1366 36.4839 40.1392C36.8462 40.1804 37.2121 40.1804 37.5744 40.1392L39.1614 43.5557ZM31.4993 29.3861C31.4927 29.5564 31.5288 29.7256 31.6043 29.8783C31.7093 30.082 31.9118 30.5931 31.9118 30.5931C31.9465 30.5595 31.4511 31.1756 31.1771 31.6102L29.5103 34.3454L29.0622 33.8521C29.0622 33.8521 28.8701 33.6233 28.6906 33.6233C29.5628 32.2074 30.3584 30.9489 30.6282 30.5448C30.8982 30.1452 31.1897 29.7604 31.5014 29.3924L31.4993 29.3861ZM41.6343 25.9959C41.7634 25.9738 41.896 26.0015 42.0055 26.0734C42.1149 26.1452 42.1931 26.256 42.2242 26.3832C42.2525 26.5773 42.1528 26.803 41.7802 26.8649L41.6059 26.8996C39.3199 27.3562 36.7305 27.8747 34.5652 28.7542C33.884 29.0009 33.5209 29.2076 33.1388 29.4973C33.1388 29.4973 32.9289 29.0408 32.8523 28.9075C32.7316 28.6975 32.7148 28.6724 32.614 28.6157C33.0178 28.3642 33.4448 28.1523 33.8893 27.9828C35.4773 27.3163 38.7804 26.4629 41.6364 26.0022L41.6343 25.9959ZM40.5983 22.9268C40.465 23.3572 40.718 24.0205 40.718 24.0205L41.3414 25.7471L41.0182 25.808C41.0182 25.808 40.6183 24.7028 40.3653 23.9376C40.1743 23.3551 40.3118 23.0727 40.3118 23.0727L40.5983 22.9268ZM40.8523 22.8061L41.1746 22.6392C41.1746 22.6392 41.2018 22.6214 41.2008 22.6267C41.1889 22.6657 41.1839 22.7066 41.1861 22.7474C41.1798 22.8618 41.1861 22.9184 41.3047 23.247C41.4957 23.7613 42.4897 25.8248 42.6052 26.125C43.1803 27.6186 41.6941 27.8946 41.5398 27.2344C43.1205 27.1147 42.4782 25.4606 41.5818 25.6936C41.2396 24.8539 40.9699 24.0027 40.9699 24.0027C40.9699 24.0027 40.6214 23.0885 40.8544 22.8124L40.8523 22.8061ZM46.3019 26.0546H46.3134H46.3249C46.5139 26.0819 46.6262 26.3254 46.6073 26.527C46.5968 26.6319 46.5317 26.8817 46.1602 26.8817C45.8232 26.8083 44.9426 26.7243 44.4913 26.6813C44.4913 26.3045 44.2593 25.7639 44.2593 25.7639C44.761 25.8248 46.0384 25.9728 46.304 26.0609L46.3019 26.0546ZM42.5926 27.5461C42.5926 27.5461 42.9169 27.3247 42.9347 27.0906C42.9347 27.0906 43.6904 27.0906 44.0735 27.0969C44.0756 27.1032 43.7933 27.6364 42.5947 27.5524L42.5926 27.5461ZM32.3411 28.9001C32.4191 28.8989 32.4965 28.9146 32.5678 28.9463L36.9489 38.6477C36.5877 38.6617 36.2261 38.6378 35.8699 38.5764C34.0026 34.4924 31.8163 29.7073 31.8142 29.702C31.7695 29.63 31.7458 29.5469 31.7458 29.4622C31.7458 29.3774 31.7695 29.2943 31.8142 29.2223C31.871 29.1315 31.9486 29.0554 32.0406 29.0005C32.1325 28.9455 32.2363 28.9133 32.3432 28.9064L32.3411 28.9001ZM32.6287 32.1539L32.8029 32.5391C32.0178 34.0085 32.0283 35.6532 32.3317 37.2129L32.255 37.1531C32.1616 37.066 32.0577 36.9673 31.9517 36.8655C31.2495 36.1906 30.3122 35.2376 29.6825 34.5659C30.5673 33.1353 31.4196 31.7718 31.4196 31.7729C31.6515 31.4108 31.8961 31.0382 32.0304 30.8366L32.6287 32.1539ZM32.9541 32.8708L35.5445 38.5806C34.5321 38.4901 33.5641 38.123 32.7463 37.5194C32.4482 35.9629 32.3611 34.3769 32.9562 32.8729L32.9541 32.8708ZM55.0797 48.98C54.5717 49.1238 52.9227 49.5573 52.9227 49.5573C52.9807 49.2184 53.005 48.8745 52.9952 48.5308C56.1765 47.8475 53.1568 47.5599 53.1568 47.5599C53.859 47.7761 53.839 48.027 53.839 48.027C53.5336 48.0448 52.9994 47.8832 52.9994 47.8832C53.0172 47.6848 52.9637 46.8756 52.9637 46.8756C53.7908 47.2356 53.922 47.1327 54.7795 47.3248C55.658 47.5232 55.2277 47.8832 55.2277 47.8832C54.7795 48.4416 53.1285 48.6746 53.1285 48.6746C55.8952 48.3146 55.6475 47.5599 55.6475 47.5599C56.7706 48.2978 55.6538 48.8184 55.0797 48.98ZM54.6367 42.3318C54.6367 42.3318 54.2242 42.5418 52.3171 42.8829C52.3171 42.8829 52.1628 42.2888 52.0915 41.9844C52.0915 41.9844 53.7026 41.6486 54.3302 41.4134C54.3302 41.4134 54.3187 41.2035 54.008 41.2098C54.008 41.2098 52.3727 41.6297 51.9949 41.6601L51.9057 41.4082C51.9057 41.4082 53.3058 41.1385 53.774 41.0303C53.774 41.0303 54.7627 40.6892 54.9779 41.4449C54.9779 41.4449 55.1962 42.0978 54.6367 42.3318V42.3318ZM56.3738 47.943C56.3738 47.7268 56.039 47.3248 55.4628 47.2083C55.4694 47.0446 55.4676 46.8806 55.4575 46.7171C55.3137 45.2476 54.7868 42.5921 54.7868 42.5921C55.6013 42.3276 55.5289 40.6619 54.1392 40.6714C53.9328 39.7477 53.6585 38.8404 53.3184 37.9571C54.0741 37.5436 53.7204 36.8477 53.3058 36.7207C53.3058 36.7207 54.0616 36.559 54.409 37.8658C55.6737 41.4082 56.6551 46.2636 56.3738 47.943V47.943ZM53.3982 37.2822C53.4042 37.3862 53.3713 37.4887 53.3059 37.5698C53.2405 37.6508 53.1474 37.7047 53.0445 37.721L52.9259 37.7461C52.6309 37.8385 52.0411 37.9771 51.4501 38.0883C51.2279 38.1377 51.0034 38.1759 50.7773 38.2027C50.6997 38.0316 50.6462 37.8553 50.4215 37.4197C51.1153 37.306 51.8026 37.1564 52.4809 36.9715C52.6512 36.929 52.824 36.8967 52.9983 36.875C53.1024 36.8844 53.1998 36.9305 53.2731 37.0051C53.3463 37.0797 53.3907 37.1779 53.3982 37.2822V37.2822ZM50.2032 37.1531C50.0945 37.0625 49.961 37.0069 49.8201 36.9936C50.3008 37.0272 51.7314 36.8886 51.7314 36.8886C51.4617 36.9904 50.2032 37.1531 50.2032 37.1531ZM48.802 37.3525C48.1544 37.5142 46.6577 37.6779 46.6577 37.6779L46.3512 36.9757C47.2575 37.1066 48.1755 37.1368 49.0885 37.066C49.0156 37.0734 48.9474 37.1056 48.8953 37.1572C48.8432 37.2087 48.8102 37.2765 48.802 37.3494V37.3525ZM45.2019 27.6868C45.2418 28.1559 45.2092 28.7364 44.9689 29.1741C44.6876 29.6852 44.3013 30.0137 43.5645 30.146C43.5466 30.146 43.5068 30.1523 43.4595 30.1554L43.3871 30.1649C43.3325 30.1649 43.2822 30.1733 43.2286 30.1806C43.9707 31.9408 46.41 37.7178 46.41 37.7178C45.9408 37.8028 45.4265 37.8375 45.4265 37.8375L42.3449 30.611C42.2872 30.6684 42.2348 30.7309 42.1885 30.7978C42.1591 30.8335 42.1286 30.8671 42.0972 30.9028C41.6185 31.5021 41.3267 32.2735 41.163 33.0933C41.1504 33.1468 41.1326 33.2297 41.1126 33.341C42.5684 35.5787 44.5249 36.4184 44.5249 36.4184L45.015 37.6013C43.0722 37.0366 41.4464 35.2743 40.9951 34.7464C40.9951 34.7947 40.9951 34.844 40.9951 34.8923C40.9868 35.7581 41.0784 36.6221 41.268 37.467C41.3603 37.7573 41.4422 38.0488 41.5136 38.3413L40.8492 38.4084C40.7077 37.8535 40.5257 37.3098 40.3044 36.7816C39.2066 34.1828 36.211 35.3719 36.4209 36.9359L33.8819 31.3331C34.3796 30.7933 34.946 30.3212 35.5665 29.9287C35.172 30.1108 34.8038 30.3452 34.4718 30.6257C34.2426 30.8015 34.0249 30.9919 33.82 31.1956L33.6594 30.8555C33.482 30.463 33.3235 30.1156 33.1923 29.8238C33.6395 29.5362 34.095 29.2412 34.6702 29.0334C36.3359 28.3564 38.2598 27.8946 40.1008 27.5094L40.4083 27.4464C40.464 28.3648 39.999 28.7154 39.1982 28.8823C38.6734 28.9872 38.2535 29.0072 38.0373 29.0796L38.5338 29.0964C38.9897 29.0785 39.4401 28.99 39.8688 28.834C40.3685 28.6482 40.7453 28.3092 40.5847 27.4097L40.8418 27.3572C40.9772 28.2147 40.8513 29.045 39.1866 29.2055C39.4711 29.4018 42.0625 28.9211 43.6222 29.279C43.66 29.2958 44.3139 29.5215 43.5666 29.8479C45.014 29.5257 45.0938 28.0835 44.8188 27.014L44.8775 27.0213C45.1074 27.0378 45.3362 27.0669 45.5629 27.1084C45.5629 27.1084 45.5629 27.1084 45.5629 27.1084C45.7025 27.1231 45.8705 27.142 46.0447 27.1651C47.1226 27.2701 47.0229 25.998 46.4572 25.8342C46.2451 25.7656 46.0273 25.7161 45.8064 25.6862L45.6553 25.6694L44.3108 22.6718L45.0549 22.3265L46.9788 25.7975C47.8721 27.2155 46.3911 27.8001 45.5745 27.3719C45.4256 27.4421 45.2972 27.5494 45.2019 27.6836V27.6868ZM35.8048 47.7236C35.8048 47.7236 34.4403 47.9073 33.3393 47.6827C30.5883 51.8895 23.1393 51.6072 18.584 48.0532C18.5 47.9902 18.414 47.9273 18.3258 47.8653C18.0109 48.1036 16.6727 49.0356 14.1032 49.4324C11.9442 49.8522 11.0531 48.4468 11.3113 47.4959C10.6742 46.0894 10.4979 45.6014 10.2869 44.8089C10.1903 44.4138 10.1903 44.0012 10.2869 43.6061C9.53608 42.1683 8.91336 40.6671 8.42596 39.1201C0.663109 14.338 32.9446 3.96056 43.4196 22.6854C43.6243 22.7033 43.7471 22.7516 43.8111 22.8838L44.0987 22.7683L45.3583 25.6222C45.2019 25.5907 44.7705 25.554 44.6645 25.5456C44.6649 25.5505 44.6649 25.5554 44.6645 25.5603L44.4493 25.5403L44.3443 25.5351C44.0704 24.6891 43.7146 23.6133 43.4658 22.9835C43.3166 22.9598 43.1656 22.9479 43.0145 22.9478C43.0145 22.9552 43.0219 22.9594 43.025 22.9657C43.2171 23.3246 43.8007 25.13 43.9948 25.6222C44.2635 26.3055 44.2446 26.6897 44.2446 26.6897L42.9904 26.6655C42.9704 26.2992 42.623 25.6107 42.623 25.6107L42.1559 24.666L42.0289 24.3963L41.5514 23.3771C41.4722 23.1976 41.4172 23.0085 41.3876 22.8145C41.3037 22.1554 41.9523 22.1554 41.9691 22.1554C42.306 22.1617 42.581 22.2855 42.8529 22.6676H43.026C42.6356 21.8888 42.4152 21.6484 42.1559 21.2181C37.2774 14.2718 29.1724 12.2146 22.0288 13.9507C31.0763 12.6261 37.9827 16.519 41.4212 22.338C41.1326 22.4808 40.656 22.719 40.4346 22.8387C40.3349 22.8387 39.9654 22.8292 39.8416 22.8387C39.6264 22.8565 39.4217 22.867 39.5718 23.3792C39.638 23.6167 39.7161 23.8507 39.8059 24.0803C39.9108 24.3606 40.2362 25.2066 40.4755 25.9266L40.2226 25.9749C40.1785 25.8468 40.1302 25.7135 40.0756 25.5729C39.7943 24.8571 39.4553 23.9282 39.3566 23.6122C39.3052 23.4495 39.2296 23.1378 39.321 22.8691C39.321 22.8691 38.9788 23.1378 39.2842 23.8641L40.0567 26.0064L39.7418 26.0683C37.3981 26.5385 35.1037 27.1599 33.8148 27.6994C33.8148 27.6994 32.8491 28.0489 32.1648 28.6073C32.1456 28.6199 32.1315 28.6388 32.1249 28.6608C31.9212 28.7235 31.7428 28.8496 31.6158 29.0208C31.4676 29.1327 31.3273 29.2548 31.196 29.3861C30.9252 29.701 30.688 29.9749 30.3857 30.3905C30.1212 30.7852 29.1703 32.2893 28.3222 33.6632C28.2463 33.6907 28.1754 33.7304 28.1123 33.7808C27.9937 33.8733 27.902 33.9959 27.8467 34.1357C27.7913 34.2756 27.7743 34.4277 27.7974 34.5764C27.1099 35.69 26.7058 36.3365 26.5379 36.6063C26.418 36.6165 26.3023 36.6548 26.2 36.7181C26.0977 36.7814 26.0117 36.8678 25.949 36.9705C25.7832 37.3032 25.0611 38.4872 24.9309 38.6184C24.8498 38.7245 24.7924 38.8467 24.7623 38.9769C24.7323 39.107 24.7304 39.2421 24.7567 39.373L24.6916 39.5011L23.1057 41.8669C23.0396 41.9535 22.9989 42.0568 22.9882 42.1653C22.9774 42.2737 22.997 42.383 23.0448 42.4809C23.1234 42.6258 23.2376 42.7483 23.3766 42.837C23.5156 42.9257 23.6748 42.9776 23.8393 42.9878C24.0092 43.0021 24.1788 42.9568 24.319 42.8598L32.7557 44.2652L33.1682 44.3334L33.8284 44.4436L34.3626 44.5329C34.3004 45.421 34.0684 46.2889 33.6794 47.0897L33.8273 47.1096C36.1554 47.2986 37.8158 46.885 38.9641 46.1062C39.0628 46.2941 39.1677 46.4767 39.279 46.652C38.3774 47.245 37.2312 47.626 35.8048 47.7205V47.7236ZM56.7821 50.1146L56.7601 50.1272C56.7832 50.1146 56.8031 50.0957 56.8262 50.081L56.7821 50.1146Z" fill="white"/>
<path d="M30.8213 49.4965C31.6915 49.0532 32.4356 48.3972 32.9845 47.5894H32.9793C33.2208 47.2478 33.414 46.8744 33.5534 46.48C33.0293 47.7777 32.061 48.8469 30.8213 49.4965Z" fill="white"/>
<path d="M29.6846 34.5681C30.3143 35.2398 31.2516 36.1929 31.9538 36.8678C31.7943 35.8581 31.7565 34.819 31.9654 33.8586C32.0948 33.2593 32.3191 32.6846 32.6297 32.1561L32.0315 30.8389C31.8971 31.0404 31.6526 31.413 31.4206 31.7751C31.4217 31.7741 30.5694 33.1375 29.6846 34.5681Z" fill="#FF3C00"/>
<path d="M31.9444 39.5316C32.4328 40.5653 32.7954 41.6538 33.0244 42.7739L33.6342 42.8715C33.5702 42.5566 33.503 42.2742 33.4495 42.0318C33.3393 41.5227 32.8869 40.4406 32.487 39.1202C31.8299 38.7302 31.2348 38.2441 30.7216 37.678C30.7132 37.6686 29.7339 36.7334 28.8816 35.8843L27.9937 37.3222L29.8892 38.5671C30.2965 38.8347 30.752 39.1538 30.7709 39.7479C30.7887 40.3598 30.2576 41.0735 30.0855 41.3044C29.863 41.6004 29.1598 42.4348 28.2477 41.8544C28.2477 41.8544 26.9231 41.0315 25.99 40.4742L25.271 41.5385L32.7347 42.7277C32.5689 41.5479 32.1795 40.471 31.9444 39.5316Z" fill="#FF3C00"/>
<path d="M35.0544 29.8061C36.1439 29.2172 36.8146 28.8981 38.5401 28.6767L38.9704 28.6169C39.2643 28.5738 39.8248 28.4563 39.9854 28.1645C40.0827 27.9607 40.1226 27.7343 40.1009 27.5095C38.2599 27.8947 36.3359 28.3566 34.6702 29.0335C34.095 29.2435 33.6395 29.5363 33.1924 29.8239C33.3236 30.1157 33.4821 30.4631 33.6595 30.8557C34.0228 30.5053 34.425 30.1975 34.8581 29.9383C34.92 29.8932 35.0544 29.8061 35.0544 29.8061Z" fill="#FF3C00"/>
<path d="M38.9609 22.8471C39.0147 22.7687 39.0868 22.7046 39.1709 22.6602C36.3181 17.8321 29.482 12.8412 20.6055 14.3527C12.0041 17.111 5.29397 25.4921 8.27904 37.4386C9.52491 41.9718 10.9807 44.3754 12.5614 46.6289C12.5614 46.6289 12.49 47.7226 14.3772 47.1537C16.086 46.6362 17.1282 46.5974 18.9125 47.9273C22.0225 50.2448 27.3744 51.2965 30.8234 49.5017C32.0623 48.8509 33.0295 47.781 33.5524 46.483C33.7741 45.8292 33.8702 45.1394 33.8357 44.4499L33.1756 44.3397C33.0286 47.16 30.2367 49.8764 25.2311 49.5636C23.1466 49.4859 20.9215 48.472 19.5937 47.7488C18.9829 47.3395 17.2615 46.3738 16.4355 46.1912C17.1534 46.23 18.9545 47.1694 19.7018 47.605C21.2458 48.3996 23.3996 49.1637 25.2322 49.2403C28.571 49.5552 32.359 47.8422 32.7631 44.2715L24.3274 42.8608C24.1872 42.9579 24.0177 43.0032 23.8478 42.9889C23.6832 42.9786 23.524 42.9267 23.385 42.838C23.246 42.7494 23.1318 42.6268 23.0532 42.4819C23.0054 42.384 22.9858 42.2747 22.9966 42.1663C23.0073 42.0579 23.048 41.9546 23.1141 41.8679L24.7 39.5021L24.7651 39.3741C24.7388 39.2431 24.7407 39.1081 24.7707 38.9779C24.8008 38.8478 24.8583 38.7255 24.9393 38.6194C25.0695 38.4882 25.7916 37.3043 25.9575 36.9715C26.0197 36.8694 26.105 36.7833 26.2065 36.72C26.3081 36.6568 26.423 36.6182 26.5421 36.6073C26.71 36.3376 27.1141 35.691 27.8016 34.5774C27.7785 34.4288 27.7955 34.2767 27.8509 34.1368C27.9062 33.9969 27.9979 33.8744 28.1165 33.7818C28.1796 33.7314 28.2505 33.6917 28.3264 33.6642C29.1745 32.2903 30.1254 30.7862 30.3899 30.3916C30.6922 29.9718 30.9294 29.6989 31.2002 29.3871C31.3315 29.2558 31.4718 29.1338 31.62 29.0219C31.747 28.8507 31.9254 28.7246 32.1291 28.6619C32.1357 28.6399 32.1498 28.6209 32.169 28.6083C32.8533 28.0499 33.819 27.7004 33.819 27.7004C35.1079 27.1609 37.4023 26.5396 39.746 26.0693C39.5823 25.5949 39.0607 24.095 39.0607 24.095C39.0376 24.0331 38.6755 23.291 38.9609 22.8471ZM28.4156 43.7341C28.6441 43.7351 28.8652 43.8147 29.0418 43.9596C29.2185 44.1045 29.3398 44.3059 29.3854 44.5297C29.431 44.7536 29.398 44.9863 29.2921 45.1888C29.1863 45.3912 29.0139 45.551 28.804 45.6412C28.7318 45.718 28.6418 45.7757 28.542 45.8093C28.4421 45.8429 28.3355 45.8513 28.2316 45.8338C28.1278 45.8162 28.0298 45.7733 27.9466 45.7087C27.8633 45.6442 27.7973 45.5601 27.7544 45.4638C27.6044 45.3299 27.4987 45.1535 27.4514 44.958C27.4041 44.7626 27.4174 44.5574 27.4895 44.3696C27.5616 44.1819 27.6891 44.0206 27.8551 43.9071C28.0211 43.7936 28.2177 43.7332 28.4188 43.7341H28.4156ZM20.6003 46.8724C20.448 46.9905 20.2551 47.0433 20.0639 47.0193C19.8414 47.1589 19.4951 47.0813 19.2474 46.821C19.0185 46.5785 18.9503 46.2584 19.0626 46.0422C19.0143 45.6906 19.1225 45.341 19.3712 45.1658C19.748 44.9013 20.3159 45.0608 20.6454 45.5279C20.975 45.9949 20.9572 46.5754 20.6003 46.8724ZM25.4925 44.2022C23.8278 45.9645 20.5268 45.953 18.6512 43.5494C21.8252 46.4945 24.785 44.5486 25.4925 44.2022ZM22.4822 42.103C22.2768 42.1709 22.0615 42.2043 21.8451 42.2017C21.5317 42.1946 21.2228 42.125 20.9366 41.9971C20.6504 41.8691 20.3926 41.6853 20.1784 41.4565C19.2946 40.5318 19.2337 39.1043 20.0503 38.2772C20.2328 38.092 20.451 37.9457 20.6917 37.8472C20.9323 37.7487 21.1905 37.7 21.4505 37.7042C21.7642 37.7118 22.0732 37.782 22.3595 37.9107C22.6457 38.0394 22.9033 38.224 23.1172 38.4536C23.552 38.9064 23.8021 39.5053 23.8184 40.1329L22.4822 42.103Z" fill="#FF3C00"/>
<path d="M32.7347 42.7278L33.0296 42.774C32.8006 41.6539 32.438 40.5654 31.9496 39.5317C32.1794 40.4711 32.5688 41.548 32.7347 42.7278Z" fill="#311D00"/>
<path d="M25.2332 49.2352C23.4006 49.1585 21.2447 48.3955 19.7029 47.5999C18.9503 47.1643 17.1544 46.2249 16.4365 46.1861C17.2626 46.3687 18.985 47.3343 19.5948 47.7437C20.9225 48.4669 23.1477 49.4808 25.2322 49.5584C30.2325 49.8733 33.0297 47.1549 33.1766 44.3346L32.7641 44.2664C32.36 47.8371 28.572 49.549 25.2332 49.2352Z" fill="#311D00"/>
<path d="M21.4505 37.7031C21.1904 37.699 20.9323 37.7477 20.6916 37.8462C20.451 37.9447 20.2328 38.091 20.0503 38.2762C19.2368 39.1033 19.2946 40.5308 20.1783 41.4555C20.3922 41.6853 20.6498 41.87 20.936 41.9989C21.2222 42.1278 21.5313 42.1982 21.8451 42.2059C22.0615 42.2085 22.2768 42.1752 22.4822 42.1073L23.8183 40.1309C23.8021 39.5033 23.552 38.9043 23.1172 38.4515C22.9032 38.2221 22.6455 38.0377 22.3593 37.9092C22.0731 37.7807 21.7641 37.7106 21.4505 37.7031V37.7031Z" fill="#311D00"/>
<path d="M18.6512 43.5496C20.5269 45.9531 23.8279 45.9636 25.4925 44.2024C24.7851 44.5488 21.8252 46.4947 18.6512 43.5496Z" fill="#311D00"/>
<path d="M27.7512 45.463C27.7942 45.5592 27.8602 45.6433 27.9434 45.7079C28.0267 45.7724 28.1246 45.8154 28.2285 45.8329C28.3324 45.8505 28.439 45.8421 28.5389 45.8085C28.6387 45.7749 28.7287 45.7171 28.8008 45.6404C29.0003 45.5571 29.1673 45.4112 29.2766 45.2248C29.386 45.0384 29.4318 44.8215 29.4072 44.6067C29.3826 44.392 29.2889 44.1911 29.1402 44.0342C28.9915 43.8774 28.7958 43.7731 28.5827 43.7371C28.3696 43.7011 28.1506 43.7353 27.9586 43.8345C27.7666 43.9338 27.6121 44.0928 27.5182 44.2875C27.4244 44.4822 27.3964 44.7021 27.4385 44.9141C27.4805 45.1262 27.5903 45.3188 27.7512 45.463V45.463ZM28.3317 45.7296C28.2233 45.731 28.1169 45.7002 28.026 45.6411C27.9351 45.5819 27.8639 45.4971 27.8214 45.3974C27.7788 45.2977 27.7669 45.1875 27.787 45.081C27.8072 44.9745 27.8586 44.8764 27.9347 44.7991C28.0108 44.7218 28.1081 44.6689 28.2143 44.6471C28.3205 44.6253 28.4308 44.6355 28.5311 44.6766C28.6315 44.7176 28.7174 44.7875 28.778 44.8774C28.8385 44.9674 28.871 45.0733 28.8712 45.1817C28.8717 45.2531 28.8582 45.3239 28.8314 45.3901C28.8046 45.4562 28.765 45.5165 28.7149 45.5674C28.6648 45.6182 28.6052 45.6588 28.5394 45.6866C28.4737 45.7144 28.4031 45.729 28.3317 45.7296V45.7296ZM28.761 44.6327C28.6214 44.4764 28.2697 44.4039 28.0682 44.5383C27.9769 44.595 27.8835 44.5215 27.999 44.4039C28.0598 44.3535 28.1303 44.3159 28.2062 44.2935C28.282 44.2711 28.3616 44.2644 28.4402 44.2737C28.5187 44.2831 28.5945 44.3082 28.663 44.3478C28.7315 44.3873 28.7913 44.4403 28.8386 44.5036C28.9394 44.6495 28.8365 44.7482 28.761 44.6327V44.6327ZM28.4398 43.9117C28.5985 43.9157 28.7526 43.9661 28.883 44.0567C29.0134 44.1472 29.1145 44.274 29.1737 44.4213C29.233 44.5686 29.2478 44.73 29.2164 44.8856C29.1851 45.0413 29.1088 45.1843 28.9971 45.2971C29.2312 44.7944 29.0391 44.1541 28.4219 44.1268C27.7806 44.1016 27.5676 44.7451 27.6788 45.082C27.4626 44.8784 27.5371 43.9159 28.4398 43.9117V43.9117Z" fill="#311D00"/>
<path d="M27.999 44.404C27.8835 44.5215 27.9769 44.595 28.0682 44.5383C28.2698 44.404 28.6214 44.4764 28.761 44.6328C28.8365 44.7482 28.9394 44.6496 28.8418 44.5037C28.7944 44.4399 28.7345 44.3864 28.6657 44.3466C28.597 44.3068 28.5208 44.2814 28.4419 44.2721C28.363 44.2628 28.283 44.2697 28.2068 44.2923C28.1306 44.315 28.0599 44.353 27.999 44.404V44.404Z" fill="white"/>
<path d="M28.4219 44.1268C29.0391 44.1541 29.2312 44.7943 28.9971 45.2971C29.1088 45.1842 29.1851 45.0412 29.2164 44.8856C29.2478 44.7299 29.233 44.5685 29.1737 44.4212C29.1145 44.2739 29.0134 44.1472 28.883 44.0566C28.7526 43.9661 28.5985 43.9157 28.4398 43.9116C27.5371 43.9116 27.4626 44.8783 27.6788 45.0819C27.5675 44.745 27.7806 44.1016 28.4219 44.1268Z" fill="white"/>
<path d="M28.8712 45.1816C28.8698 45.075 28.8368 44.9712 28.7765 44.8832C28.7162 44.7953 28.6312 44.7272 28.5322 44.6874C28.4333 44.6477 28.3248 44.6381 28.2204 44.6598C28.116 44.6816 28.0204 44.7337 27.9455 44.8097C27.8707 44.8857 27.82 44.9821 27.7999 45.0869C27.7797 45.1916 27.791 45.2999 27.8323 45.3982C27.8736 45.4966 27.943 45.5805 28.0319 45.6394C28.1208 45.6984 28.2251 45.7297 28.3317 45.7295C28.4031 45.7291 28.4738 45.7146 28.5396 45.6868C28.6054 45.659 28.6651 45.6185 28.7152 45.5676C28.7654 45.5167 28.8049 45.4564 28.8317 45.3902C28.8585 45.3239 28.8719 45.2531 28.8712 45.1816V45.1816ZM28.3265 45.6099C28.2413 45.6095 28.1581 45.5838 28.0875 45.5362C28.0168 45.4886 27.9619 45.4212 27.9295 45.3424C27.8972 45.2636 27.8888 45.1769 27.9056 45.0934C27.9224 45.0099 27.9636 44.9333 28.0239 44.8731C28.0842 44.8129 28.161 44.772 28.2445 44.7554C28.3281 44.7388 28.4147 44.7473 28.4934 44.7798C28.5721 44.8124 28.6394 44.8675 28.6869 44.9383C28.7343 45.009 28.7597 45.0923 28.7599 45.1774C28.7601 45.2344 28.749 45.2907 28.7272 45.3433C28.7055 45.3959 28.6735 45.4437 28.6332 45.4839C28.5929 45.5241 28.5451 45.5559 28.4924 45.5775C28.4398 45.5992 28.3834 45.6102 28.3265 45.6099V45.6099Z" fill="white"/>
<path d="M28.3264 44.7471C28.2411 44.7475 28.1579 44.7732 28.0872 44.8209C28.0165 44.8686 27.9615 44.9362 27.9292 45.0151C27.8969 45.094 27.8888 45.1807 27.9057 45.2643C27.9227 45.3479 27.964 45.4245 28.0246 45.4846C28.0851 45.5447 28.162 45.5855 28.2457 45.6018C28.3294 45.6182 28.4161 45.6094 28.4948 45.5765C28.5735 45.5436 28.6406 45.4882 28.6878 45.4171C28.735 45.3461 28.7601 45.2627 28.7599 45.1774C28.7599 45.1206 28.7486 45.0644 28.7268 45.012C28.705 44.9596 28.673 44.912 28.6327 44.872C28.5924 44.832 28.5446 44.8004 28.492 44.7789C28.4395 44.7575 28.3832 44.7467 28.3264 44.7471V44.7471ZM28.0115 45.1921C28.0241 45.1375 28.0493 45.1648 28.0619 45.2068C28.1794 45.3926 28.5069 45.4073 28.6056 45.2635C28.657 45.1911 28.656 45.2908 28.656 45.2908C28.446 45.697 27.9758 45.4451 28.0115 45.1921V45.1921Z" fill="#311D00"/>
<path d="M28.6014 45.2635C28.5028 45.4073 28.1753 45.3926 28.0577 45.2068C28.0452 45.1648 28.02 45.1375 28.0074 45.1921C27.9759 45.4398 28.4461 45.697 28.6518 45.2908C28.6518 45.2908 28.6529 45.1911 28.6014 45.2635Z" fill="white"/>
<path d="M19.3712 45.1659C19.1225 45.3412 19.0144 45.6907 19.0627 46.0423C18.9504 46.2585 19.0186 46.5786 19.2474 46.8211C19.4951 47.0814 19.8415 47.1591 20.064 47.0195C20.2552 47.0435 20.4481 46.9906 20.6003 46.8725C20.9572 46.5755 20.9729 45.994 20.6455 45.528C20.318 45.062 19.748 44.9014 19.3712 45.1659ZM19.3114 46.7403C19.0795 46.4968 19.0396 46.1588 19.2222 45.9846C19.4048 45.8103 19.7397 45.8691 19.9716 46.1137C20.2036 46.3582 20.2435 46.6972 20.0608 46.8694C19.8782 47.0415 19.5434 46.9859 19.3114 46.7413V46.7403ZM20.2015 46.1493C20.1145 45.9907 19.9738 45.8683 19.8047 45.804C19.684 45.7809 19.7302 45.5857 19.874 45.635C20.028 45.7044 20.1631 45.8099 20.2676 45.9426C20.3998 46.1619 20.2592 46.2721 20.2015 46.1504V46.1493ZM20.3652 46.8295C21.0286 45.9667 19.7355 44.9622 19.2295 45.7599C19.6536 44.4584 21.3644 46.0948 20.3652 46.8305V46.8295Z" fill="#311D00"/>
<path d="M19.8739 45.6361C19.7301 45.5868 19.684 45.782 19.8047 45.8051C19.9738 45.8694 20.1144 45.9918 20.2014 46.1504C20.2591 46.2722 20.3998 46.162 20.2675 45.9405C20.1626 45.809 20.0276 45.7046 19.8739 45.6361Z" fill="white"/>
<path d="M19.2295 45.76C19.7386 44.9623 21.0285 45.9699 20.3652 46.8295C21.3644 46.0948 19.6535 44.4585 19.2295 45.76Z" fill="white"/>
<path d="M19.9716 46.1148C19.7396 45.8702 19.4048 45.8135 19.2222 45.9856C19.0395 46.1578 19.0794 46.4979 19.3114 46.7414C19.5433 46.9849 19.8792 47.0447 20.0608 46.8705C20.2424 46.6962 20.2035 46.3593 19.9716 46.1148ZM19.9653 46.818C19.8131 46.9303 19.557 46.8379 19.3691 46.6658C19.1812 46.4937 19.1508 46.1935 19.2893 46.0581C19.4457 45.908 19.7228 46.0024 19.8887 46.1914C20.023 46.3467 20.1395 46.6868 19.9653 46.818Z" fill="white"/>
<path d="M19.2894 46.058C19.1509 46.1934 19.1666 46.4778 19.3692 46.6657C19.5717 46.8536 19.8132 46.9302 19.9653 46.8179C20.1385 46.6867 20.0231 46.3466 19.8887 46.1881C19.7197 46.0023 19.4458 45.9079 19.2894 46.058ZM19.8373 46.7433C19.5224 46.7727 19.2474 46.3959 19.3618 46.229C19.3618 46.229 19.4479 46.1115 19.4668 46.2196C19.4916 46.3202 19.5422 46.4126 19.6136 46.4877C19.685 46.5628 19.7748 46.618 19.874 46.6478C19.916 46.6594 19.9297 46.7266 19.8373 46.7433V46.7433Z" fill="#311D00"/>
<path d="M19.4635 46.2196C19.4478 46.1147 19.3586 46.2291 19.3586 46.2291C19.2442 46.3959 19.5234 46.7728 19.8341 46.7434C19.9264 46.7266 19.9128 46.6594 19.8676 46.6478C19.769 46.6176 19.6799 46.5622 19.609 46.4871C19.5382 46.412 19.4881 46.3199 19.4635 46.2196V46.2196Z" fill="white"/>
<path d="M17.908 47.8244C17.9689 47.7824 18.0329 47.7352 18.0823 47.6995C17.2321 47.1569 16.1772 46.8021 14.4622 47.3678L14.3856 47.392C14.797 47.3091 15.3669 47.2135 15.7228 47.2377C16.1762 47.2713 16.8427 47.3363 17.4735 47.7362L17.1586 47.9084C16.0738 48.4507 14.896 48.7823 13.6876 48.8856C12.9865 48.9359 13.1219 48.5266 13.5826 48.2936C13.8366 48.1645 14.0507 47.9189 14.1452 47.4686C14.0686 47.5085 14.0686 47.4917 13.9563 47.5127H13.9437C13.7904 48.6148 11.6346 48.5004 11.8739 47.0015C11.8739 47.0015 11.559 46.3644 11.3858 45.995C11.3858 46.0097 11.3417 45.763 11.3659 45.7567C11.3659 45.7567 11.8907 46.6111 12.11 46.8819C11.8193 47.9052 13.315 48.3324 13.7159 47.562C12.3976 47.8076 12.3514 47.1327 12.3672 46.9071C12.3567 46.8745 12.3493 46.8378 12.3409 46.8021C12.1111 46.568 11.3638 45.5762 10.5136 44.0186C10.4002 44.9265 11.4288 47.0267 11.5139 47.2335L11.602 47.4508C11.2872 48.3114 12.1856 49.4387 13.7925 49.1795C15.3743 49.0315 17.1502 48.3692 17.908 47.8244Z" fill="white"/>
<path d="M40.0883 45.0662L40.1932 45.2698C40.2614 45.3989 40.3339 45.5248 40.4031 45.6466C40.5824 45.4355 40.7452 45.2109 40.8902 44.9749L40.3475 45.0315C40.3475 45.0315 40.2562 45.0473 40.0883 45.0662Z" fill="#311D00"/>
<path d="M40.9016 43.4025C41.1325 43.3805 41.3603 43.3584 41.587 43.3343C41.7338 42.7818 41.8221 42.2154 41.8505 41.6444C41.8505 41.5909 41.8505 41.5395 41.8505 41.4849L46.9777 42.3571C46.9777 42.3571 46.6408 41.594 46.5516 41.3358L41.841 40.5276L41.8347 40.3786C41.8211 40.1855 41.8032 39.9923 41.7791 39.7971C41.5587 39.8223 41.3403 39.8454 41.1252 39.8685C41.2774 41.0587 41.2364 42.2962 40.9016 43.4025Z" fill="#311D00"/>
<path d="M31.9538 36.8677C32.0588 36.9726 32.1637 37.0681 32.2571 37.1553L32.3338 37.2151C32.0304 35.6554 32.0189 34.0127 32.805 32.5412L32.6297 32.156C32.3187 32.6844 32.0941 33.2592 31.9643 33.8585C31.7565 34.8188 31.7901 35.8579 31.9538 36.8677Z" fill="#311D00"/>
<path d="M33.6342 42.8715L34.4193 42.9964C34.4193 42.946 34.4141 42.8914 34.4109 42.8463C35.2747 42.2228 35.9423 41.1994 36.3002 40.2454L36.2404 40.1131L36.1134 40.1058C35.2097 40.0554 34.2241 39.921 33.2123 39.4855C33.4684 40.4553 33.7297 41.3936 33.8735 42.27C33.6951 41.5175 33.2837 40.4962 32.9058 39.3438C32.7662 39.2745 32.6266 39.201 32.486 39.1191C32.8859 40.4395 33.3382 41.5217 33.4484 42.0307C33.503 42.2742 33.5744 42.5576 33.6342 42.8715Z" fill="#311D00"/>
<path d="M40.5941 35.7005C40.2792 34.2552 40.613 31.5682 41.6668 30.802C40.1606 30.9846 39.7418 34.759 40.5941 35.7005Z" fill="white"/>
<path d="M35.5466 38.5829L32.9562 32.873C32.361 34.3771 32.4482 35.9631 32.7462 37.5217C33.5647 38.1256 34.5335 38.4927 35.5466 38.5829V38.5829Z" fill="#311D00"/>
<path d="M45.5766 27.3783C46.3932 27.8045 47.8741 27.2198 46.9809 25.8039L45.057 22.3308L44.3128 22.6761L45.6574 25.6738L45.8085 25.6906C46.0294 25.7205 46.2472 25.77 46.4593 25.8386C47.025 26.0023 47.1247 27.2765 46.0468 27.1695C45.8725 27.1464 45.7046 27.1275 45.565 27.1128C45.3383 27.0712 45.1095 27.0421 44.8796 27.0257L44.8209 27.0183C45.0958 28.09 45.0161 29.5321 43.5687 29.8522C44.316 29.5258 43.6621 29.3002 43.6243 29.2834C42.0646 28.9254 39.4731 29.4062 39.1887 29.2099C40.8534 29.0493 40.9793 28.2191 40.8439 27.3615L40.5868 27.414C40.7474 28.3167 40.3706 28.6526 39.8709 28.8383C39.4422 28.9944 38.9918 29.0829 38.5359 29.1007L38.0394 29.0839C38.2546 29.0115 38.6797 28.9937 39.2003 28.8866C40.0011 28.7197 40.4661 28.3692 40.4104 27.4508L40.1029 27.5137C40.1246 27.7385 40.0847 27.9649 39.9875 28.1687C39.8269 28.4605 39.2664 28.578 38.9725 28.6211L38.5422 28.6809C36.8166 28.9024 36.1459 29.2214 35.0564 29.8103C35.0564 29.8103 34.9221 29.8953 34.8602 29.9425C34.4265 30.2003 34.0237 30.5067 33.6594 30.8557L33.8127 31.1936C34.0175 30.9899 34.2352 30.7995 34.4645 30.6237C34.7964 30.3433 35.1646 30.1089 35.5592 29.9268C34.9387 30.3192 34.3723 30.7914 33.8746 31.3311L36.4136 36.9339C36.2036 35.37 39.2024 34.1808 40.2971 36.7796C40.5183 37.3078 40.7004 37.8516 40.8418 38.4065L41.5062 38.3393C41.4362 38.0475 41.3544 37.7561 41.2606 37.465C41.071 36.6201 40.9794 35.7562 40.9877 34.8903C40.9877 34.842 40.9877 34.7927 40.9877 34.7444C41.4401 35.2692 43.0649 37.0347 45.0077 37.5993L44.5249 36.4185C44.5249 36.4185 42.5684 35.5789 41.1147 33.3474C41.1347 33.2362 41.1525 33.1532 41.1651 33.0997C41.3288 32.28 41.6206 31.5085 42.0992 30.9092C42.1307 30.8693 42.1612 30.8357 42.1906 30.8042C42.2369 30.7374 42.2893 30.6748 42.3469 30.6174L45.4286 37.8439C45.4286 37.8439 45.9429 37.8093 46.412 37.7242C46.412 37.7242 43.9728 31.9514 43.2307 30.1871C43.2811 30.1797 43.3357 30.1755 43.3892 30.1713L43.4616 30.1619C43.5068 30.1619 43.5466 30.1556 43.5666 30.1524C44.3013 30.0202 44.6897 29.6917 44.9709 29.1805C45.2113 28.7418 45.2438 28.1624 45.204 27.6932C45.2989 27.5579 45.4273 27.4494 45.5766 27.3783V27.3783ZM40.5941 35.7006C39.7418 34.756 40.1606 30.9848 41.6668 30.8021C40.613 31.5683 40.2834 34.2553 40.5941 35.7006V35.7006Z" fill="#311D00"/>
<path d="M27.7355 40.7492C27.7653 40.8246 27.8004 40.898 27.8405 40.9685V40.9685C27.9073 41.0832 28.0023 41.1789 28.1165 41.2467C28.9499 41.7421 29.4096 41.1113 29.4138 41.106C29.418 41.1008 29.7969 40.6054 29.2427 40.0564C29.1312 39.9613 29.0018 39.8896 28.8621 39.8454C28.7223 39.8013 28.5752 39.7856 28.4293 39.7993C28.3733 39.5863 28.2447 39.3996 28.0657 39.2714C27.8867 39.1432 27.6686 39.0815 27.449 39.0971H27.4395C26.8864 39.1349 26.7573 39.434 26.6943 39.6061C26.6549 39.7221 26.6405 39.8451 26.6521 39.9671C26.6637 40.089 26.7009 40.2071 26.7615 40.3136C26.7594 40.3283 27.0281 40.8583 27.7355 40.7492ZM28.465 39.9494C29.0874 39.9305 29.5733 40.5529 29.2606 41.0095L29.1472 41.0284C28.6046 41.0997 28.2991 40.8846 28.2078 40.3986C28.346 40.2857 28.4376 40.1257 28.465 39.9494V39.9494ZM27.7376 39.2839C28.0462 39.3826 28.2708 39.6534 28.2561 39.9315H28.2907C28.2655 40.1341 28.0525 40.4091 27.6179 40.343C27.5985 40.2533 27.5884 40.1618 27.5875 40.0701C27.6635 40.0959 27.7435 40.1076 27.8237 40.1047C27.824 40.0622 27.8268 40.0198 27.8321 39.9777C27.7463 39.9681 27.6628 39.9435 27.5854 39.9053C27.5888 39.6893 27.6408 39.477 27.7376 39.2839ZM27.0176 39.4183C27.0777 39.3598 27.15 39.3152 27.2292 39.2876C27.3085 39.26 27.3928 39.2502 27.4762 39.2587C27.3876 39.4292 27.3415 39.6186 27.3419 39.8108C27.2989 39.7751 27.2653 39.7741 27.2222 39.7289V39.8822C27.2495 39.9305 27.2926 39.9452 27.3471 39.9871C27.345 40.093 27.356 40.1988 27.3797 40.302C27.3513 40.2926 27.3356 40.2695 27.3052 40.2548C26.8738 40.0092 27.0176 39.4183 27.0176 39.4183V39.4183ZM26.857 39.6082C26.7846 40.5067 27.6043 40.6379 28.0651 40.4679C28.1648 41.1952 28.7998 41.2141 29.1042 41.1658C28.9843 41.2307 28.8507 41.2663 28.7145 41.2696C28.5782 41.2729 28.4431 41.2439 28.3202 41.1849C28.1973 41.1259 28.0901 41.0386 28.0075 40.9302C27.9248 40.8218 27.869 40.6954 27.8447 40.5613C27.2684 40.7376 26.6124 40.2716 26.857 39.6082Z" fill="white"/>
<path d="M42.3575 23.6784C42.1749 23.5609 41.8967 23.1599 41.9376 22.8335C42.3669 22.8398 42.496 23.4633 42.3575 23.6784Z" fill="#311D00"/>
<path d="M42.8014 24.8435C42.5855 24.635 42.46 24.3501 42.4519 24.05C42.793 24.1193 42.9987 24.5423 42.8014 24.8435Z" fill="#311D00"/>
<path d="M40.972 24.0091C40.972 24.0091 41.2418 24.8551 41.5839 25.7C42.4803 25.467 43.1227 27.1211 41.542 27.2408C41.6962 27.901 43.1825 27.625 42.6073 26.1314C42.4918 25.8312 41.4979 23.7677 41.3068 23.2534C41.1861 22.9248 41.1819 22.8682 41.1882 22.7538C41.1861 22.713 41.191 22.6721 41.2029 22.6331L41.1767 22.6457L40.8545 22.8125C40.6215 23.0886 40.972 24.0091 40.972 24.0091Z" fill="#311D00"/>
<path d="M40.3601 23.9378C40.613 24.703 41.0129 25.8082 41.0129 25.8082L41.3362 25.7473L40.7201 24.027C40.7201 24.027 40.4671 23.3637 40.6004 22.9333L40.3065 23.0729C40.3065 23.0729 40.169 23.3553 40.3601 23.9378Z" fill="#311D00"/>
<path d="M42.5947 27.5524C43.7934 27.6364 44.0757 27.1032 44.0757 27.1032C43.6926 27.0969 42.9369 27.0969 42.9369 27.0969C42.9159 27.331 42.5947 27.5524 42.5947 27.5524Z" fill="#311D00"/>
<path d="M28.6917 33.6298C28.8711 33.6298 29.0632 33.8586 29.0632 33.8586L29.5114 34.352L31.1782 31.6167C31.4552 31.1822 31.9507 30.5671 31.9129 30.5996C31.9129 30.5996 31.703 30.0885 31.6053 29.8848C31.5299 29.7321 31.4938 29.5628 31.5004 29.3926C31.1889 29.7613 30.8978 30.1468 30.6282 30.5471C30.3595 30.9607 29.5639 32.2139 28.6917 33.6298Z" fill="#311D00"/>
<path d="M49.8201 36.9905C49.9609 37.0038 50.0945 37.0594 50.2032 37.15C50.2032 37.15 51.4627 36.9905 51.7314 36.8813C51.7324 36.8813 50.3008 37.0241 49.8201 36.9905Z" fill="#311D00"/>
<path d="M50.2998 41.4986C50.2998 41.4986 49.4307 41.5112 48.2268 41.4912L48.5868 42.3194L49.9513 42.0507C49.9513 42.0507 50.4436 42.0318 50.2998 41.4986Z" fill="#311D00"/>
<path d="M46.961 39.1475C46.961 39.1475 46.1581 39.2787 46.0164 39.2965C46.0164 39.2965 47.2119 42.2238 47.4008 42.5828C47.4008 42.5828 48.1911 42.4684 48.3528 42.397C47.8313 41.3394 47.3667 40.2547 46.961 39.1475Z" fill="#311D00"/>
<path d="M49.0655 43.8181C49.0655 43.8181 48.251 43.9986 48.0526 44.0354C48.0526 44.0354 49.2072 46.1346 51.3767 47.1999C51.3767 47.1999 51.3473 46.3728 51.3116 46.0454C51.3127 46.0475 49.9272 45.1133 49.0655 43.8181Z" fill="#311D00"/>
<path d="M55.637 47.5601C55.637 47.5601 55.8889 48.3147 53.118 48.6747C53.118 48.6747 54.7711 48.4417 55.2172 47.8833C55.2172 47.8833 55.6475 47.5233 54.769 47.325C53.9114 47.1329 53.7803 47.2357 52.9532 46.8757C52.9532 46.8757 53.0067 47.685 52.9889 47.8833C52.9889 47.8833 53.5273 48.045 53.8285 48.0271C53.8285 48.0271 53.8485 47.7763 53.1463 47.5601C53.1463 47.5601 56.166 47.8477 52.9847 48.5309C52.9945 48.8747 52.9702 49.2185 52.9122 49.5575C52.9122 49.5575 54.5612 49.124 55.0692 48.9802C55.6538 48.8185 56.7706 48.2979 55.637 47.5601Z" fill="#311D00"/>
<path d="M36.4839 40.1426C37.396 42.1368 37.7529 42.9765 38.0761 43.5832C38.4375 43.6199 38.802 43.6117 39.1614 43.559L37.5744 40.1478C37.2119 40.1873 36.846 40.1855 36.4839 40.1426V40.1426Z" fill="#311D00"/>
<path d="M31.8184 29.2288C31.7737 29.3008 31.75 29.3839 31.75 29.4686C31.75 29.5534 31.7737 29.6365 31.8184 29.7085C31.8184 29.7137 34.0069 34.4988 35.8741 38.5828C36.2303 38.6442 36.5919 38.6682 36.9531 38.6542L32.572 28.9527C32.5007 28.9211 32.4234 28.9053 32.3453 28.9066C32.2382 28.9145 32.1345 28.9478 32.0429 29.0039C31.9512 29.0599 31.8743 29.137 31.8184 29.2288V29.2288Z" fill="#311D00"/>
<path d="M52.3853 49.7201C52.4648 49.673 52.5308 49.6061 52.5768 49.5259C52.6228 49.4457 52.6472 49.3549 52.6477 49.2625C52.993 45.3517 51.4994 40.174 49.987 37.3863C49.8948 37.3094 49.7826 37.2605 49.6636 37.2452C49.5446 37.23 49.4237 37.2491 49.3152 37.3002C49.2252 37.3376 49.1467 37.3981 49.0874 37.4755L49.0749 37.5647V37.6056C48.9354 37.654 48.7911 37.6871 48.6445 37.7043C46.5243 38.1241 39.3125 39.0047 37.334 38.9544C36.7259 38.9592 36.118 38.9312 35.513 38.8704C34.011 38.7004 33.2385 38.2627 32.1616 37.423C31.1928 36.5161 29.229 34.4841 28.8858 34.0286C28.7252 33.8407 28.4387 33.8932 28.2938 34.0086C28.1804 34.0923 28.1047 34.2175 28.0835 34.3568C28.0622 34.4961 28.0971 34.6381 28.1805 34.7518C28.9624 35.6082 30.9042 37.4587 30.9231 37.4807C32.677 39.3857 34.4424 39.7804 36.0315 39.8696C37.1482 39.9473 38.5851 39.8801 38.3322 39.8959C41.2574 39.7195 46.2346 39.0236 48.9594 38.5314C49.163 38.4852 49.3299 38.4537 49.3299 38.4537H49.4244C49.5545 38.5135 49.6773 38.9092 49.6847 38.9386V38.9239C49.9681 39.6376 50.5338 41.4902 50.5401 41.5091C50.5401 41.5091 50.6965 42.0769 50.6346 42.1388C50.539 42.2354 49.7833 42.4149 49.7833 42.4149C48.3853 42.7875 42.6041 43.644 39.4773 43.8182C39.4553 43.8235 38.6376 43.9505 36.8638 43.6849L25.2584 41.7715L24.6139 42.6542C24.5635 42.6542 36.6172 44.617 36.6172 44.617C37.4688 44.7578 38.3308 44.8262 39.1939 44.8216L39.5434 44.8122C39.9801 44.7933 40.2278 44.7555 40.2341 44.7555C43.4658 44.428 47.5592 43.9053 50.2053 43.2756C50.3801 43.2398 50.558 43.2215 50.7364 43.221C50.8126 43.2287 50.8873 43.2478 50.9578 43.2777C51.0341 43.3742 51.084 43.4888 51.1027 43.6104C51.575 45.3149 51.6747 47.877 51.68 47.9977C51.68 47.9977 51.6894 48.5288 51.6002 48.7324C51.49 48.851 51.0974 48.9182 51.0974 48.9182C46.8067 50.0161 41.8001 49.2415 39.8573 45.0798C39.4374 45.1155 38.7982 45.1029 38.7982 45.1029C38.8511 45.2563 38.9164 45.4052 38.9934 45.548C40.2456 48.3199 42.4991 49.4241 44.4062 49.9279C46.5054 50.4832 48.9993 50.4475 51.3262 49.8492C51.7031 49.7233 51.6894 49.6949 51.6894 49.6949C51.7973 49.7472 51.9149 49.7765 52.0347 49.7808C52.1545 49.7852 52.2739 49.7645 52.3853 49.7201V49.7201Z" fill="#311D00"/>
<path d="M25.9774 37.6077C25.8882 37.7641 25.6846 38.102 25.2647 38.6919C25.0811 38.9501 25.016 39.1852 25.0716 39.391C25.1545 39.6953 25.482 39.8475 25.4852 39.8486H25.4915L27.4742 41.0651L27.7061 41.2036L28.3443 41.5983C28.8145 41.9132 29.3781 41.6581 29.6731 41.2645C29.9313 40.9139 30.0331 40.4122 29.502 39.9074C29.502 39.9074 29.4096 39.7856 28.952 39.5305C28.5248 39.2944 27.0449 38.3991 26.3416 37.9561C26.3458 37.9677 26.0687 37.806 25.9774 37.6077ZM26.6891 39.6156C26.752 39.4434 26.8811 39.1443 27.4343 39.1065H27.4437C27.6633 39.091 27.8815 39.1526 28.0605 39.2808C28.2395 39.409 28.3681 39.5957 28.424 39.8087C28.5699 39.795 28.7171 39.8107 28.8568 39.8549C28.9965 39.899 29.126 39.9708 29.2375 40.0658C29.7917 40.6106 29.4117 41.105 29.4086 41.1155C29.4054 41.126 28.9446 41.7463 28.1165 41.2467C28.0021 41.1773 27.9074 41.0797 27.8415 40.9633V40.9633C27.8014 40.8927 27.7664 40.8194 27.7366 40.7439C27.0291 40.8489 26.7604 40.3241 26.7573 40.3178C26.6973 40.212 26.6603 40.0949 26.6485 39.9739C26.6368 39.8529 26.6506 39.7309 26.6891 39.6156V39.6156Z" fill="#311D00"/>
<path d="M30.0131 38.9995C29.5985 38.6846 28.6402 38.0549 27.9139 37.5857L27.7428 37.7515C27.7428 37.7515 29.3592 38.8284 29.7738 39.1066C30.2471 39.4267 30.4319 39.8329 30.3574 40.2401C30.3542 40.2401 30.7552 39.5673 30.0131 38.9995Z" fill="#311D00"/>
<path d="M26.4717 37.783C27.1697 38.2196 29.4431 39.5589 29.4431 39.5589C29.4431 39.5589 30.0572 39.9493 30.0844 40.4447C30.2702 39.9199 29.9574 39.5253 29.6405 39.2975L27.5245 37.8806C27.1288 37.9855 26.2922 37.5499 26.3227 37.0042C26.1138 37.1826 26.0729 37.529 26.4717 37.783Z" fill="#311D00"/>
<path d="M28.2078 40.3996C28.2991 40.8845 28.6045 41.0997 29.1472 41.0294L29.2605 41.0105C29.5754 40.5539 29.0873 39.9315 28.4649 39.9504C28.4376 40.1267 28.346 40.2867 28.2078 40.3996V40.3996Z" fill="#311D00"/>
<path d="M27.8478 40.5612C27.8722 40.6953 27.928 40.8217 28.0107 40.9301C28.0933 41.0385 28.2005 41.1258 28.3234 41.1848C28.4463 41.2438 28.5814 41.2728 28.7177 41.2695C28.8539 41.2662 28.9875 41.2306 29.1074 41.1657C28.8009 41.214 28.1627 41.1951 28.0683 40.4678C27.6075 40.6378 26.7878 40.5066 26.8602 39.6082C26.6125 40.2715 27.2685 40.7375 27.8478 40.5612Z" fill="#311D00"/>
<path d="M52.4808 36.9738C51.8026 37.1587 51.1152 37.3083 50.4215 37.4219C50.6461 37.8575 50.6997 38.0339 50.7773 38.205C51.0034 38.1774 51.2279 38.1385 51.4501 38.0884C52.041 37.9772 52.6309 37.8386 52.9259 37.7463L53.0445 37.7211C53.1473 37.7049 53.2405 37.651 53.3059 37.5699C53.3712 37.4888 53.4041 37.3863 53.3982 37.2823C53.3902 37.1784 53.3456 37.0807 53.2724 37.0066C53.1992 36.9324 53.1021 36.8866 52.9983 36.8772C52.824 36.8989 52.6512 36.9312 52.4808 36.9738V36.9738Z" fill="#311D00"/>
<path d="M53.7739 41.0304C53.3058 41.1354 51.9056 41.4083 51.9056 41.4083L51.9949 41.6602C52.3727 41.6245 54.008 41.2099 54.008 41.2099C54.3229 41.2099 54.3302 41.4135 54.3302 41.4135C53.7005 41.6486 52.0914 41.9845 52.0914 41.9845C52.1628 42.2889 52.3171 42.8829 52.3171 42.8829C54.2242 42.5418 54.6367 42.3319 54.6367 42.3319C55.193 42.0978 54.9778 41.445 54.9778 41.445C54.7626 40.6893 53.7739 41.0304 53.7739 41.0304Z" fill="#311D00"/>
<path d="M54.409 37.8639C54.0615 36.5571 53.3069 36.7188 53.3069 36.7188C53.7215 36.8458 54.0752 37.5416 53.3195 37.9552C53.6595 38.8385 53.9338 39.7457 54.1403 40.6695C55.5299 40.66 55.6024 42.3257 54.7879 42.5902C54.7879 42.5902 55.3127 45.251 55.4586 46.7152C55.4687 46.8787 55.4704 47.0426 55.4638 47.2064C56.04 47.325 56.3749 47.7312 56.3749 47.9411C56.6551 46.2638 55.6737 41.4084 54.409 37.8639Z" fill="#311D00"/>
<path d="M46.3512 36.9727L46.6577 37.6748C46.6577 37.6748 48.1544 37.5111 48.802 37.3495C48.8096 37.276 48.8422 37.2075 48.8944 37.1553C48.9466 37.1031 49.0151 37.0705 49.0886 37.0629C48.1756 37.1338 47.2575 37.1035 46.3512 36.9727V36.9727Z" fill="#311D00"/>
<path d="M25.7308 40.3451C25.7308 40.3451 24.9729 39.8896 24.8774 39.708L23.3681 42.0171C23.3311 42.0626 23.308 42.1177 23.3015 42.176C23.2949 42.2343 23.3053 42.2932 23.3314 42.3457C23.3883 42.444 23.4688 42.5267 23.5654 42.5864C23.6621 42.6461 23.7721 42.681 23.8856 42.6878C23.9608 42.6969 24.037 42.6851 24.1059 42.6536C24.1748 42.6221 24.2337 42.5722 24.276 42.5094C24.276 42.5094 25.4127 40.8153 25.7308 40.3451Z" fill="#311D00"/>
<path d="M32.6161 28.6221C32.721 28.6788 32.7336 28.7008 32.8544 28.9139C32.9299 29.0472 33.1409 29.5037 33.1409 29.5037C33.5229 29.2141 33.8861 29.0073 34.5673 28.7606C36.7326 27.8811 39.322 27.3626 41.608 26.906L41.7823 26.8713C42.1549 26.8115 42.2546 26.5838 42.2262 26.3896C42.1952 26.2624 42.117 26.1517 42.0076 26.0798C41.8981 26.0079 41.7654 25.9802 41.6364 26.0023C38.7804 26.463 35.4773 27.3164 33.8851 27.9829C33.4426 28.1548 33.0176 28.3688 32.6161 28.6221V28.6221Z" fill="#311D00"/>
<path d="M26.6943 36.9065L26.6869 36.9149C26.5526 37.0765 26.7762 37.3074 26.8234 37.3525C27.027 37.5499 27.3545 37.6758 27.5098 37.552L28.6644 35.7183C28.3921 35.4702 28.1421 35.1987 27.9171 34.907C26.9651 36.4509 26.7142 36.8676 26.6974 36.9012L26.6943 36.9065Z" fill="#311D00"/>
<path d="M44.2615 25.7766C44.2615 25.7766 44.4934 26.3172 44.4934 26.694C44.9448 26.737 45.8254 26.821 46.1623 26.8944C46.5339 26.8944 46.5989 26.6478 46.6094 26.5397C46.6283 26.3381 46.516 26.0946 46.3271 26.0674H46.3155H46.304C46.0384 25.9729 44.7611 25.8249 44.2615 25.7766Z" fill="#311D00"/>
<path d="M27.8237 40.1089C27.7435 40.1118 27.6635 40.1 27.5875 40.0742C27.5884 40.166 27.5986 40.2574 27.618 40.3471C28.0525 40.4133 28.2656 40.1372 28.2908 39.9357H28.2561C28.2708 39.6575 28.0462 39.3867 27.7376 39.2881C27.6396 39.4837 27.5875 39.6991 27.5854 39.9178C27.6628 39.9561 27.7463 39.9806 27.8321 39.9903C27.8271 40.0296 27.8243 40.0692 27.8237 40.1089V40.1089Z" fill="#311D00"/>
<path d="M27.3051 40.2518C27.3355 40.2665 27.3513 40.2895 27.3796 40.299C27.3559 40.1958 27.345 40.09 27.3471 39.9841C27.2925 39.9463 27.2495 39.9316 27.2222 39.8792V39.7291C27.2652 39.7742 27.2988 39.7752 27.3418 39.8109C27.3414 39.6188 27.3875 39.4293 27.4762 39.2588C27.3927 39.2503 27.3084 39.2602 27.2292 39.2877C27.1499 39.3153 27.0777 39.3599 27.0175 39.4184C27.0175 39.4184 26.8737 40.0093 27.3051 40.2518Z" fill="#311D00"/>
<path d="M45.3614 25.6222L44.1019 22.7673L43.8154 22.8828C43.7493 22.7537 43.6265 22.7043 43.4228 22.6844C32.9447 3.96163 0.663179 14.339 8.43022 39.118C8.91717 40.6652 9.5399 42.1664 10.2912 43.604C10.1935 43.9986 10.1935 44.4111 10.2912 44.8058C10.5011 45.5993 10.6774 46.0863 11.3166 47.4917C11.0553 48.4447 11.9464 49.8449 14.1075 49.4293C16.6759 49.0315 18.0183 48.1015 18.33 47.8643C18.4161 47.9241 18.5022 47.9871 18.5882 48.0501C23.1425 51.603 30.5915 51.8864 33.3435 47.6806C34.4393 47.9042 35.808 47.7205 35.808 47.7205C37.2333 47.626 38.3816 47.245 39.278 46.6531C39.173 46.4757 39.0628 46.2952 38.9631 46.1062C37.8085 46.885 36.1544 47.2996 33.8263 47.1107L33.6783 47.0908C34.0696 46.2902 34.3047 45.4225 34.3711 44.5339C34.199 44.5056 34.0216 44.4741 33.8379 44.4458C33.8717 45.1351 33.7745 45.8247 33.5513 46.4778C33.4135 46.8722 33.221 47.2453 32.9793 47.5862C32.9793 47.5862 32.9793 47.5862 32.9846 47.5862C32.4357 48.3941 31.6911 49.0499 30.8203 49.4922C27.3734 51.2902 22.0204 50.2396 18.9105 47.9241C17.1262 46.5922 16.0829 46.6321 14.3762 47.1474C12.4869 47.7205 12.5614 46.6226 12.5614 46.6226C10.9776 44.3765 9.5239 41.9719 8.27908 37.4376C5.29506 25.49 12.0062 17.111 20.6024 14.3537C29.481 12.8423 36.317 17.8321 39.1688 22.6592C39.0846 22.7044 39.0126 22.7692 38.9589 22.8481C38.6755 23.2911 39.0366 24.03 39.0638 24.0961C39.0638 24.0961 39.5886 25.596 39.7482 26.0683L40.0631 26.0085L39.2906 23.8642C38.9841 23.1399 39.3273 22.8712 39.3273 22.8712C39.236 23.1399 39.3105 23.4496 39.3619 23.6122C39.4616 23.9271 39.7996 24.8581 40.0799 25.5729C40.1344 25.7135 40.1848 25.8479 40.2289 25.977C40.3118 25.9602 40.3947 25.9424 40.4808 25.9287C40.2404 25.2066 39.9109 24.3627 39.8112 24.0814C39.7251 23.8474 39.6852 23.7581 39.5761 23.3803C39.4302 22.8681 39.6306 22.8555 39.8479 22.8397C39.9718 22.8303 40.3412 22.8397 40.4378 22.8397C40.6613 22.719 41.14 22.4818 41.4254 22.338C37.9828 16.518 31.0816 12.6271 22.0341 13.9496C29.1714 12.2146 37.2764 14.2708 42.1549 21.2213C42.4121 21.6537 42.6325 21.892 43.0208 22.6687H42.8466C42.5748 22.2845 42.2998 22.1617 41.9649 22.1554C41.9471 22.1554 41.2974 22.1554 41.3803 22.8146C41.4102 23.009 41.466 23.1986 41.5462 23.3782V23.3782L42.03 24.3973L42.1591 24.6692L42.6251 25.6138C42.6251 25.6138 42.9715 26.3034 42.9915 26.6697L44.2457 26.6928C44.2457 26.6928 44.2657 26.3097 43.997 25.6254C43.8017 25.1331 43.2182 23.3289 43.0261 22.9688C43.0237 22.9627 43.0209 22.9567 43.0177 22.951C43.1682 22.9509 43.3185 22.9636 43.4669 22.9888C43.7136 23.6185 44.0715 24.6923 44.3465 25.5393L44.4514 25.5446L44.6687 25.5624C44.6687 25.5624 44.6687 25.554 44.6635 25.5477C44.7747 25.553 45.2061 25.5907 45.3614 25.6222ZM10.5147 44.0186C11.3649 45.5793 12.1112 46.5702 12.341 46.8042C12.3494 46.842 12.3578 46.8787 12.3662 46.9092C12.3494 47.1359 12.3977 47.8108 13.7181 47.5652C13.314 48.3345 11.8194 47.9084 12.1091 46.884C11.8939 46.6153 11.367 45.7599 11.367 45.7599C11.3418 45.7651 11.3901 46.0149 11.3869 45.9971L11.874 47.0047C11.6378 48.5046 13.7895 48.6169 13.9469 47.5179C13.9532 47.5179 13.9553 47.5179 13.9585 47.5116C14.0697 47.4917 14.0729 47.5116 14.1474 47.4686C14.0529 47.9178 13.8409 48.1645 13.5859 48.2936C13.123 48.5256 12.9876 48.937 13.6908 48.8856C14.394 48.8341 15.6662 48.6337 17.1629 47.9063L17.4778 47.7352C16.848 47.3364 16.1815 47.2713 15.726 47.2366C15.3712 47.2136 14.8013 47.308 14.3888 47.3909L14.4665 47.3689C16.1815 46.8021 17.2374 47.159 18.0876 47.7006C18.0362 47.7352 17.9732 47.7803 17.9134 47.8234C17.1545 48.3702 15.3765 49.0315 13.7968 49.1805C12.1899 49.4408 11.2946 48.3135 11.6063 47.4539L11.5171 47.2366C11.4279 47.0278 10.3993 44.9296 10.5147 44.0186ZM43.214 24.5485C43.3284 25.0471 42.9673 25.3157 42.6094 24.9033C42.4764 24.7482 42.3799 24.5653 42.3271 24.368L42.3155 24.3365C42.2789 24.1808 42.2682 24.0201 42.284 23.861C42.1197 23.7145 41.9872 23.5359 41.8946 23.3362C41.6847 22.7064 41.8946 22.5658 41.9891 22.5322C42.3355 22.4461 42.8193 22.9615 42.7847 23.734C42.9768 23.9282 43.1164 24.1077 43.214 24.5485V24.5485Z" fill="#311D00"/>
<path d="M43.2139 24.5485C43.1163 24.1077 42.9767 23.9272 42.7846 23.7351C42.8192 22.9626 42.3354 22.4472 41.989 22.5333C41.8945 22.5669 41.6825 22.7107 41.8945 23.3373C41.9871 23.537 42.1196 23.7156 42.2839 23.8621C42.2681 24.0212 42.2788 24.1819 42.3154 24.3376L42.327 24.369C42.3798 24.5664 42.4763 24.7493 42.6093 24.9043C42.9672 25.3158 43.3283 25.0471 43.2139 24.5485ZM42.3574 23.6784C42.1748 23.5609 41.8966 23.1599 41.9376 22.8335C42.3669 22.8398 42.496 23.4632 42.3574 23.6784V23.6784ZM42.8014 24.8435C42.5855 24.6349 42.46 24.35 42.4519 24.05C42.793 24.1192 42.9987 24.5422 42.8014 24.8435V24.8435Z" fill="white"/>
</g>
<defs>
<clipPath id="clip0_14_2090">
<rect width="52.48" height="40.5681" fill="white" transform="translate(5.76001 11.6479)"/>
</clipPath>
</defs>
</svg>
