<svg width="64" height="64" viewBox="0 0 64 64" fill="none" xmlns="http://www.w3.org/2000/svg">
<path fill-rule="evenodd" clip-rule="evenodd" d="M46.9038 43.377C45.6558 45.2648 44.4689 47.0055 43.5029 48.4019C44.6207 49.326 44.5539 50.4902 44.5539 50.7111C44.5323 51.949 43.8732 52.873 43.2696 53.4133C42.5187 54.0531 41.4927 54.3634 40.41 54.3714C40.3783 54.3714 39.6037 54.3476 39.3375 54.2864C39.2231 54.454 39.0023 54.6579 38.6433 54.804C38.6038 54.9172 38.5493 55.0305 38.4779 55.1381C38.1824 55.582 37.692 55.8289 37.1925 55.8289C37.1925 55.8289 36.6863 55.8142 36.3364 55.5731C35.8879 55.2774 35.641 54.7859 35.641 54.2853V54.2717C35.6421 54.0327 35.6999 53.7904 35.8154 53.5707C35.7633 53.4472 35.581 52.71 35.581 52.71L36.0578 52.2898C36.0963 52.2672 36.2141 52.0894 36.3466 51.6352C36.487 51.1924 36.6546 50.5344 37.0057 49.7677C37.453 48.7937 38.0736 47.7858 38.5266 47.0882C38.4825 46.8651 38.248 46.762 38.0793 46.7213C37.8902 46.6703 37.6569 46.5604 37.4713 46.3441C37.2764 46.1176 37.127 45.7983 37.2107 45.386C37.2933 44.9795 37.5482 44.6861 37.846 44.5491V44.548C38.1835 44.3724 38.6003 44.4562 38.6003 44.4562C39.5935 44.548 40.3273 45.4698 40.3273 45.4698C41.316 44.0904 43.6161 40.6691 43.6648 40.5944C40.6501 41.1708 37.5357 41.249 34.949 40.8197C30.2457 40.0394 26.6274 37.5355 24.2899 36.3939C21.9524 35.2535 17.4993 34.0847 12.9059 35.2535C8.31353 36.4222 5.28067 40.6533 5.28067 40.6533C6.65214 30.9907 12.6375 29.3621 13.2116 29.1991C14.0837 28.3825 15.2275 25.891 12.5185 24.2103C11.5933 23.6362 10.8164 22.9091 10.8164 22.9091C11.3838 22.9759 12.7145 22.8004 13.4529 22.5082C14.3396 22.1582 15.155 22.0416 15.155 22.0416C14.4551 21.3745 13.386 21.0404 13.386 21.0404C14.454 20.9736 16.1233 20.6067 17.1573 20.139C18.1913 19.6724 18.7587 18.8377 18.5911 18.4708C18.4246 18.1027 17.4903 18.3043 17.4903 18.3043C17.8244 17.8037 18.625 17.6033 18.625 17.6033C16.3226 17.4696 14.6454 18.7233 14.6454 18.7233C14.9013 18.1741 15.7428 17.1865 15.7428 17.1865C15.4234 17.2918 14.5389 17.5682 14.4834 17.5852C18.0882 14.8014 22.112 12.3541 27.7497 12.3179C33.3862 12.2805 38.8777 14.8071 42.5369 15.9781C46.1983 17.1491 48.1406 17.7403 52.0941 17.1559C53.9865 16.8751 55.6435 16.0993 56.8575 15.3722C56.8575 15.3722 57.7068 13.2125 57.7715 10.1117C57.7715 10.1117 58.7895 11.9373 58.7941 14.7799C58.8042 24.5354 54.0771 31.66 52.5664 34.2536C51.1224 36.805 49.2243 39.8605 46.9038 43.377ZM57.2991 7.55225C57.2991 7.55225 57.4272 9.89767 56.9843 12.0449C56.5562 14.1197 56.3206 14.9102 56.3206 14.9102C55.4146 15.4413 53.948 16.0948 51.8042 16.4515C47.803 17.1186 44.1722 16.0438 40.2084 14.4877C36.2435 12.9317 30.9388 11.2556 26.0169 11.8207C21.2445 12.3688 17.83 14.302 16.0146 15.5625C14.1992 16.8218 13.8651 17.1548 12.309 17.5999C12.309 17.5999 13.5321 18.0812 14.1618 18.0812C14.1618 18.0812 13.8651 19.3054 13.9761 19.712C13.9761 19.712 16.5695 18.5263 16.8662 19.0823C17.163 19.6384 15.9399 20.0099 15.0882 20.2307C14.2366 20.4538 12.0123 20.4153 12.0123 20.4153C12.0123 20.4153 13.0553 21.2228 13.4234 21.7834C13.4234 21.7834 11.4574 22.6395 9.2705 22.3428C9.2705 22.3428 9.19802 23.1526 10.9953 24.4787C10.6125 24.6158 10.1278 24.8378 9.82769 25.1583C9.82769 25.1583 11.7111 24.7698 12.8945 26.088C13.206 26.4788 13.3079 26.8287 13.2728 27.2704C13.2082 28.0711 12.9013 28.3768 12.1471 28.8751C11.7156 29.0507 11.2569 29.2704 10.8141 29.5411C8.73142 30.8208 7.2082 32.7687 6.13911 34.9941C5.67591 35.9579 5.30558 37.0779 5.04397 38.0938C4.78236 39.1153 4.6861 40.0224 4.62494 40.5887C4.56379 41.1538 4.47998 42.9353 4.47998 42.9353C4.47998 42.9353 5.4143 41.6261 5.85258 40.9987C6.2886 40.3735 9.05193 36.899 13.0769 35.8922C14.3645 35.5649 15.6465 35.4279 16.8719 35.4279C19.8176 35.4256 22.4484 36.2251 24.0056 36.9873C26.2661 38.0813 29.9796 40.6634 34.8482 41.4709C35.9945 41.6601 37.2299 41.7541 38.5108 41.7541C39.7396 41.7541 41.0114 41.6646 42.282 41.4913C41.564 42.5627 40.8755 43.5638 40.2209 44.4913C39.5572 43.8594 38.6569 43.7937 38.6569 43.7937C37.5651 43.6906 37.0182 44.3554 37.0182 44.3554C36.7973 44.5944 36.6319 44.9047 36.5674 45.2705C36.4904 45.6091 36.5821 46.0033 36.6457 46.2037C36.8539 46.8651 37.419 47.1663 37.6387 47.2626C36.043 49.3883 35.5798 51.8358 35.5798 51.8368L34.8516 52.4789L35.1144 53.5435C34.7089 54.8493 35.3454 55.8289 36.171 56.2343C37.0091 56.6466 37.7916 56.4076 37.7916 56.4076C38.2843 56.2694 38.7305 55.9591 39.034 55.5039C39.0805 55.4348 39.1212 55.3646 39.1574 55.2943C39.3273 55.2026 39.4734 55.0996 39.598 54.9886C39.8279 55.0146 40.4168 55.0327 40.4168 55.0327C41.6241 55.0225 42.8041 54.6805 43.7045 53.9161C44.4134 53.2819 45.1937 52.2003 45.2209 50.7224C45.2209 50.4449 45.2719 49.326 44.3477 48.3509C50.1791 39.7892 53.965 34.2772 56.3818 28.669C62.785 13.8037 57.3229 7.60547 57.2991 7.55225Z" fill="#B1BABF"/>
<path fill-rule="evenodd" clip-rule="evenodd" d="M38.0781 51.0577C38.077 51.06 38.0759 51.0634 38.0747 51.0657C38.0736 51.0668 38.0736 51.0679 38.0736 51.0691C38.0747 51.0668 38.0759 51.0645 38.077 51.0623C38.077 51.06 38.0781 51.0589 38.0781 51.0577ZM49.7249 37.6556C47.1586 38.8515 41.2368 40.8346 35.3397 39.7338C33.2876 39.351 30.5866 38.71 27.0146 36.5446C24.6715 35.1256 22.1414 33.7688 16.2433 33.7949C11.3577 33.8187 8.2195 36.0327 7.22063 36.8561C9.87184 28.2059 17.7088 29.471 17.7088 29.471C16.2784 28.7846 14.5616 29.0474 14.5616 29.0474C17.0168 25.1844 13.061 23.3758 13.061 23.3758C13.3939 23.3758 14.8956 22.942 15.6624 22.6748C16.4302 22.4086 17.839 22.224 17.839 22.224C17.3475 21.7721 15.8288 21.4075 15.8288 21.4075C17.2637 21.4075 18.5627 20.7121 19.4665 19.771C19.7813 19.4437 20.6431 17.805 19.6658 17.1696C18.7666 16.5852 16.9829 17.2342 16.9817 17.2353C16.984 17.233 22.3215 11.4822 33.3363 13.9397C38.5617 15.1062 44.4519 18.1662 49.8902 18.1991C51.7181 18.2104 55.751 17.617 58.1575 15.1945C58.0307 19.797 57.1734 26.2433 49.7249 37.6556ZM42.7916 47.7825C42.7849 47.7768 42.7747 47.7701 42.769 47.7655C42.6297 47.6387 42.4497 47.4858 42.2503 47.3193C42.5753 46.8561 46.299 41.3193 47.3908 39.6024C47.7725 39.4676 48.1439 39.3204 48.5108 39.1664C47.7725 40.334 43.7441 46.4042 42.7916 47.7825ZM42.5968 52.6297C42.0917 53.0702 41.2333 53.3511 40.3364 53.3341C39.5368 53.3182 38.9751 53.1891 38.4666 52.9128C38.4643 52.9184 38.4632 52.923 38.4622 52.9298C38.4224 52.9637 38.342 53.1483 37.7543 53.2355C37.3601 53.3001 37.1315 53.2208 37.1076 53.2129C37.8007 53.9139 38.4281 53.4722 38.4281 53.4722C38.4576 53.5946 38.5006 53.6818 38.5006 53.6818C38.5006 53.6818 38.2923 53.9876 37.658 53.8822C37.581 53.8698 37.5153 53.8482 37.4507 53.8245C37.4632 53.8312 37.4745 53.8358 37.487 53.8437C37.7304 54.0034 37.7961 54.3307 37.6366 54.573C37.4745 54.8165 37.1483 54.8822 36.905 54.7225C36.6625 54.5617 36.5957 54.2344 36.7565 53.9921C36.8879 53.7927 37.128 53.7146 37.3443 53.7792C36.8686 53.5504 36.7463 53.0725 36.7463 53.0725C37.3545 52.5334 37.3352 51.5572 37.9558 50.2004C37.9841 50.1381 38.0158 50.0747 38.0464 50.0113C38.0464 50.0136 38.0453 50.0158 38.0442 50.0181C37.9094 50.3556 37.7803 50.9354 37.8335 51.3578C37.8448 51.4496 37.8631 51.5334 37.8845 51.6149V51.6161C37.8935 51.6534 38.1019 52.4972 38.6716 52.3601C38.6659 52.3726 38.5832 52.5583 38.5821 52.5606C38.8312 52.7157 39.402 52.9864 40.3737 52.9989C41.7384 53.017 42.4847 52.119 42.6897 51.4507C42.8506 50.9309 42.6014 50.3533 42.0872 49.8471C42.2378 49.6727 42.3296 49.4293 42.2288 49.094C42.2752 49.2491 41.9842 49.5254 41.6772 49.4983C41.6489 49.496 41.6218 49.4915 41.5934 49.4835C41.1302 49.3544 40.6025 48.7904 40.1552 48.4564C39.7101 48.1223 39.5798 47.6047 39.5889 47.2378C39.5957 46.8708 39.4711 46.436 39.1212 46.1064C38.7712 45.7769 38.4576 45.7451 38.3579 45.7191C38.2571 45.692 38.2288 45.6296 38.2389 45.5628C38.2594 45.4529 38.401 45.4733 38.401 45.4733C39.2504 45.6432 39.8709 46.4848 40.0079 46.7315C40.1348 46.958 41.4757 48.0056 41.9944 48.4643C42.2367 48.641 43.2865 49.4462 43.4745 50.2718C43.6976 51.2571 43.1009 52.1902 42.5968 52.6297ZM41.0838 50.3895C41.2503 50.4722 41.4893 50.6342 41.6014 50.8686C41.6308 50.9309 41.6444 50.9909 41.6444 51.0577C41.6615 51.3318 41.3409 51.7327 41.0566 51.838C40.8505 51.923 40.5776 51.9649 40.3137 51.9637C40.2299 51.9637 40.1472 51.9603 40.0668 51.9524C40.1416 51.8267 40.2322 51.6738 40.333 51.5096C40.5595 51.1393 40.8405 50.7078 41.0838 50.3895ZM38.7191 48.7599C38.9435 48.3793 39.1789 48.0056 39.4179 47.6342C39.4292 47.6173 39.4405 47.6002 39.4519 47.5832C39.4417 47.6613 39.4145 48.086 39.5572 48.5073C39.6399 48.7089 39.7712 48.9128 39.9785 49.103C40.1642 49.274 40.3194 49.4111 40.4485 49.5186C39.8212 50.3295 38.932 51.846 38.932 51.846C38.5515 51.8686 38.3613 51.7429 38.1462 51.2842C38.1155 51.2185 38.0917 51.1461 38.0736 51.0702V51.0691C37.9604 50.5968 38.0634 49.9886 38.0658 49.9717C38.0815 49.9399 38.504 49.1245 38.7191 48.7599ZM44.9876 40.3102C45.5085 40.1834 46.0238 40.0452 46.5301 39.8866C46.5448 39.8821 46.5596 39.8776 46.5742 39.8719C46.0567 40.6568 41.9819 46.4869 41.701 46.8652C41.6784 46.8471 40.9785 46.248 40.9537 46.2264C41.9921 44.7836 44.9287 40.3997 44.9876 40.3102ZM57.7715 10.1118C57.7068 13.2126 56.8574 15.3723 56.8574 15.3723C55.6435 16.0994 53.9865 16.8752 52.0941 17.156C48.1406 17.7404 46.1982 17.1492 42.5368 15.9782C38.8777 14.8072 33.3862 12.2806 27.7496 12.3179C22.112 12.3542 18.0882 14.8015 14.4834 17.5853C14.5389 17.5683 15.4234 17.2919 15.7428 17.1866C15.7428 17.1866 14.9013 18.1742 14.6454 18.7234C14.6454 18.7234 16.3226 17.4697 18.625 17.6034C18.625 17.6034 17.8243 17.8038 17.4902 18.3044C17.4902 18.3044 18.4246 18.1028 18.591 18.4709C18.7586 18.8378 18.1913 19.6725 17.1573 20.1391C16.1233 20.6068 14.454 20.9737 13.386 21.0405C13.386 21.0405 14.4551 21.3746 15.155 22.0417C15.155 22.0417 14.3396 22.1583 13.4528 22.5083C12.7144 22.8005 11.3837 22.976 10.8164 22.9092C10.8164 22.9092 11.5933 23.6363 12.5185 24.2104C15.2275 25.8911 14.0836 28.3826 13.2116 29.1991C12.6374 29.3622 6.65211 30.9908 5.28064 40.6534C5.28064 40.6534 8.3135 36.4223 12.9058 35.2535C17.4993 34.0848 21.9523 35.2535 24.2898 36.394C26.6273 37.5356 30.2457 40.0395 34.949 40.8198C37.5357 41.2491 40.6501 41.1709 43.6648 40.5945C43.6161 40.6692 41.316 44.0905 40.3273 45.4699C40.3273 45.4699 39.5934 44.5481 38.6002 44.4563C38.6002 44.4563 38.1835 44.3725 37.846 44.5481V44.5492C37.5481 44.6862 37.2933 44.9795 37.2106 45.3861C37.1269 45.7984 37.2763 46.1177 37.4712 46.3442C37.6568 46.5605 37.8901 46.6704 38.0793 46.7213C38.248 46.7621 38.4824 46.8652 38.5266 47.0883C38.0736 47.7859 37.453 48.7938 37.0057 49.7678C36.6546 50.5345 36.487 51.1925 36.3465 51.6353C36.214 52.0894 36.0962 52.2673 36.0577 52.2899L35.581 52.7101C35.581 52.7101 35.7633 53.4473 35.8154 53.5708C35.6999 53.7905 35.6421 54.0328 35.641 54.2718V54.2854C35.641 54.786 35.8879 55.2775 36.3363 55.5732C36.6863 55.8143 37.1925 55.829 37.1925 55.829C37.692 55.829 38.1823 55.5821 38.4779 55.1382C38.5493 55.0306 38.6037 54.9173 38.6433 54.8041C39.0023 54.658 39.2231 54.4541 39.3375 54.2865C39.6036 54.3477 40.3783 54.3715 40.41 54.3715C41.4927 54.3635 42.5187 54.0532 43.2696 53.4134C43.8732 52.8731 44.5323 51.9491 44.5538 50.7112C44.5538 50.4903 44.6207 49.3261 43.5029 48.402C44.4689 47.0056 45.6558 45.2649 46.9038 43.377C49.2243 39.8606 51.1224 36.8051 52.5663 34.2537C54.0771 31.6601 58.8042 24.5355 58.794 14.78C58.7895 11.9374 57.7715 10.1118 57.7715 10.1118ZM38.0747 51.0657C38.0736 51.0668 38.0736 51.0679 38.0736 51.0691C38.0747 51.0668 38.0759 51.0645 38.077 51.0623C38.077 51.06 38.0781 51.0589 38.0781 51.0577C38.077 51.06 38.0759 51.0634 38.0747 51.0657Z" fill="black"/>
<path fill-rule="evenodd" clip-rule="evenodd" d="M45.8473 31.3813C43.2108 33.2465 39.0828 33.8162 39.0828 33.8162C39.0363 33.9951 38.7634 34.1831 38.7634 34.1831C38.7634 34.1831 39.1858 34.3394 40.2232 35.1197C41.2594 35.9 40.9786 35.8615 41.3093 36.0846C41.64 36.3066 41.828 36.2443 41.828 36.2443C41.9276 36.4447 41.9402 36.7426 41.9402 36.7426C42.0782 36.8728 42.7544 37.5184 42.1258 38.1865C41.4961 38.8547 40.7691 38.2341 40.7691 38.2341C40.512 38.2885 40.2617 38.2035 40.2617 38.2035C40.2617 38.2035 38.9163 39.0506 37.58 38.1276C36.4927 37.3779 36.5584 36.4889 36.6219 36.182C36.2549 36.3926 35.8608 36.5569 35.4566 36.6837C34.3658 37.0257 32.974 37.1673 31.5912 36.7075C30.6829 36.4017 29.9309 35.8717 29.3375 35.2839C28.7429 34.695 28.3035 34.0449 28.017 33.4594C27.974 33.37 27.9332 33.2816 27.8969 33.1956C27.8018 33.4221 27.3465 34.2818 25.9366 34.2205C24.3137 34.1503 23.7508 32.6633 23.7508 32.6633C23.7508 32.6633 23.5005 32.5795 23.3284 32.3824C23.3284 32.3824 22.3748 32.439 22.2752 31.5262C22.1766 30.6134 23.1064 30.507 23.2956 30.4866C23.2956 30.4866 23.4836 30.2556 23.684 30.1559C23.684 30.1559 23.7973 30.3201 24.1948 30.3416C24.5923 30.3632 24.3454 30.2239 25.6432 30.2273C26.9411 30.2295 27.3715 30.3609 27.3715 30.3609C27.3715 30.3609 27.2673 30.0461 27.3386 29.875C27.3386 29.875 24.3907 26.9305 23.4133 23.8524C22.436 20.7742 22.735 19.6326 23.9218 16.3869C23.9218 16.3869 24.8018 21.9169 27.5028 25.3914C29.0442 27.3745 30.7781 28.9203 31.9842 29.883C32.0114 29.883 32.0397 29.8841 32.0668 29.8841C31.8098 29.5976 31.6138 29.2612 31.5164 28.8762C31.2752 27.9249 30.88 27.0404 30.6988 26.336C30.5176 25.6304 30.9207 24.2204 30.9207 24.2204C30.3794 23.3529 30.6433 21.9248 30.6433 21.9248C30.6433 21.9248 30.9366 21.7855 31.1597 21.5149C31.3817 21.2431 31.3047 20.4412 31.4859 19.2612C31.6671 18.0811 32.4349 16.8602 34.1359 16.166C35.8279 15.4752 38.3693 16.3812 38.3919 16.3891C38.4146 16.3959 40.9888 17.2057 41.922 18.7776C42.8597 20.3574 42.7351 21.7957 42.1677 22.8456C41.6004 23.8965 41.0545 24.4888 41.0692 24.8399C41.0828 25.1899 41.2334 25.4775 41.2334 25.4775C41.2334 25.4775 40.5833 26.7765 39.6264 27.1434C39.6264 27.1434 39.0975 28.5104 38.5267 28.9634C37.9582 29.4164 37.1088 29.883 36.3421 30.4968C36.0397 30.7391 35.692 30.8886 35.3217 30.9645C35.3466 30.9826 35.3704 31.0008 35.3953 31.0189C36.9366 30.9781 39.2424 30.7912 41.6558 30.1423C45.9061 28.9985 49.9435 25.1185 49.9435 25.1185C48.9334 28.4232 48.4826 29.5149 45.8473 31.3813ZM49.8903 18.1989C44.452 18.166 38.5618 15.106 33.3364 13.9395C22.3216 11.4819 16.9841 17.2328 16.9818 17.2351C16.9829 17.234 18.7666 16.585 19.6659 17.1694C20.6432 17.8048 19.7814 19.4435 19.4665 19.7708C18.5628 20.7119 17.2638 21.4073 15.8289 21.4073C15.8289 21.4073 17.3476 21.7719 17.8391 22.2238C17.8391 22.2238 16.4303 22.4084 15.6624 22.6745C14.8957 22.9418 13.394 23.3756 13.0611 23.3756C13.0611 23.3756 17.0169 25.1842 14.5616 29.0472C14.5616 29.0472 16.2785 28.7844 17.7089 29.4707C17.7089 29.4707 9.87191 28.2057 7.2207 36.8558C8.21958 36.0325 11.3578 33.8185 16.2434 33.7947C22.1415 33.7686 24.6716 35.1254 27.0147 36.5444C30.5867 38.7098 33.2877 39.3508 35.3398 39.7336C41.2369 40.8344 47.1587 38.8513 49.7249 37.6554C57.1735 26.2431 58.0308 19.7968 58.1576 15.1943C55.751 17.6168 51.7182 18.2102 49.8903 18.1989Z" fill="#A71930"/>
<path fill-rule="evenodd" clip-rule="evenodd" d="M46.5741 39.8723C46.0566 40.6571 41.9816 46.4865 41.7008 46.8648C41.6781 46.8467 40.9782 46.2476 40.9534 46.226C41.992 44.7832 44.9285 40.4001 44.9874 40.3106C45.5084 40.1838 46.0238 40.0456 46.53 39.887C46.5448 39.8825 46.5596 39.878 46.5741 39.8723" fill="#FFFFFE"/>
<path fill-rule="evenodd" clip-rule="evenodd" d="M38.0441 50.0178C37.9092 50.3553 37.7802 50.935 37.8333 51.3577C37.8446 51.4493 37.8629 51.5332 37.8844 51.6146V51.6159C37.566 53.0779 36.9499 53.1017 36.7869 53.0802C36.7608 53.0767 36.7461 53.0722 36.7461 53.0722C37.3541 52.5332 37.3349 51.557 37.9556 50.2001C37.9839 50.1378 38.0158 50.0744 38.0463 50.011C38.0463 50.0133 38.0452 50.0155 38.0441 50.0178" fill="#FFFFFE"/>
<path fill-rule="evenodd" clip-rule="evenodd" d="M39.5571 48.5069C39.4142 48.0855 39.4423 47.661 39.4518 47.5828C39.4405 47.5998 39.4293 47.6167 39.4179 47.6337C39.1789 48.0052 38.9433 48.3789 38.7191 48.7593C38.5038 49.1242 38.0814 49.9396 38.0656 49.9713C38.0633 49.9883 37.9604 50.5966 38.0733 51.0687C38.0737 51.0677 38.074 51.0668 38.0744 51.0658C38.0786 51.055 38.0846 51.0409 38.0735 51.0699C38.7709 49.5343 39.556 48.5079 39.5571 48.5069" fill="#FFFFFE"/>
<path fill-rule="evenodd" clip-rule="evenodd" d="M31.3848 25.7214C31.3848 25.7214 31.4878 26.289 31.7661 26.7882C32.0439 27.2871 32.375 28.1629 32.4978 28.5167C32.5482 28.662 32.6465 28.8268 32.8075 28.9918C33.0285 28.8691 33.5702 28.9073 34.1601 29.1055C34.7244 29.2951 35.1647 29.5738 35.2914 29.7996C35.4943 29.7623 35.6549 29.6944 35.773 29.6158C36.0849 29.4079 36.8764 28.9089 37.3998 28.6786C37.9224 28.4483 38.3469 28.0577 38.3469 28.0577C38.304 27.8712 38.0514 27.7129 37.9644 27.6628C37.9124 27.6723 37.7056 27.7137 37.6021 27.79C37.4838 27.8772 37.0535 28.5174 36.4901 28.7581C36.5435 28.4413 36.3385 28.2771 36.2858 28.2826C36.2336 28.2889 36.192 28.4132 36.1812 28.4446C36.1703 28.4764 36.0615 28.6906 36.0243 28.791C35.9872 28.8916 35.9985 28.8996 35.9985 28.8996C35.908 28.8971 35.8175 28.892 35.7279 28.885C35.8142 28.7224 35.8911 28.5607 35.9637 28.3995C36.0162 28.265 35.8726 28.2355 35.8726 28.2355L35.8718 28.2346C35.7915 28.2223 35.7113 28.2088 35.6311 28.1937C35.6279 28.1933 35.6258 28.1937 35.6224 28.1935C35.5218 28.1756 35.4608 28.2386 35.4479 28.2771C35.4379 28.3026 35.4284 28.3278 35.4176 28.353C35.3809 28.442 35.3411 28.5307 35.3028 28.6193C35.301 28.6244 35.2997 28.6302 35.297 28.6349C35.2515 28.747 35.2902 28.8407 35.2902 28.8407C35.2587 28.8386 35.184 28.841 35.0583 28.8162C34.9986 28.8043 34.9191 28.7691 34.9191 28.7691C34.9634 28.7328 34.9903 28.6638 34.9903 28.6638L34.9912 28.6642C35.0713 28.4683 35.1951 28.1641 35.1951 28.1641C35.1951 28.1641 35.244 28.0331 35.1586 28.0079C35.0432 27.9791 34.9284 27.9475 34.8141 27.9132C34.7275 27.8949 34.6897 27.9661 34.6801 27.9893C34.6625 28.0353 34.6314 28.1061 34.6209 28.1381C34.5769 28.2634 34.5333 28.388 34.4899 28.5121C34.4899 28.514 34.4899 28.5154 34.4894 28.517C34.4625 28.597 34.4838 28.6722 34.4838 28.6722C34.4838 28.6722 34.3727 28.6497 34.3143 28.6344C34.2555 28.6189 34.1679 28.5574 34.1679 28.5574C34.1821 28.5428 34.1991 28.503 34.2112 28.4747C34.2643 28.2889 34.3143 28.0561 34.359 27.8619C34.3622 27.8347 34.3629 27.754 34.2812 27.7197C34.1838 27.6841 34.0865 27.6467 33.9909 27.6073C33.906 27.5806 33.8688 27.6505 33.8556 27.6918C33.8171 27.8677 33.7719 28.0778 33.7428 28.2304C33.7305 28.3376 33.779 28.4125 33.779 28.4125C33.7342 28.4014 33.6432 28.3623 33.5702 28.3313C33.5224 28.3112 33.4163 28.2415 33.4163 28.2415C33.4706 28.2367 33.5017 28.1209 33.5017 28.1209C33.5622 27.9956 33.6024 27.8869 33.6498 27.7681C33.6516 27.7624 33.6542 27.7575 33.656 27.7517C33.6574 27.7482 33.6578 27.7456 33.66 27.741C33.7069 27.615 33.6191 27.5481 33.6045 27.5375C33.4782 27.4744 33.3357 27.4001 33.3344 27.4001C33.2621 27.3613 33.2137 27.4124 33.1984 27.462C33.1482 27.6038 33.0698 27.7325 33.0426 27.8884C33.0301 27.9768 33.0373 28.0387 33.0373 28.0387C32.8651 27.9566 32.8018 27.8269 32.8018 27.8269C32.8429 27.7777 32.8978 27.6038 32.899 27.4412C32.9009 27.2784 32.911 27.1266 32.8349 27.0727C32.7588 27.0186 32.6319 27.1555 32.5665 27.2521C32.5018 27.3485 32.4867 27.4047 32.4867 27.4047C32.4867 27.4091 32.4867 27.4133 32.4867 27.4173C32.1815 26.8857 32.224 26.1131 32.1828 25.9713C32.1406 25.8304 31.9614 25.6421 31.9614 25.6421C31.9614 25.6421 31.5621 25.5729 31.3848 25.7214" fill="#FFFFFE"/>
<path fill-rule="evenodd" clip-rule="evenodd" d="M36.1863 31.7209C36.3627 31.9034 36.524 32.0893 36.6711 32.2779C36.6711 32.2779 37.1401 32.2434 37.2049 32.2381C38.0138 32.1701 38.8224 32.0717 39.6216 31.9275C41.5987 31.5705 43.0936 31.0653 43.8036 30.7982C43.9696 30.7328 44.128 30.6657 44.2833 30.5983C47.7757 29.0833 48.6154 27.1546 48.6366 27.1052C48.6324 27.1136 48.4924 27.2291 48.2672 27.4116C48.1708 27.4911 48.0651 27.577 47.9452 27.6719C46.6328 28.7083 43.8957 30.5722 39.439 31.3731C38.3588 31.5672 37.2582 31.6735 36.1863 31.7209" fill="#FFFFFE"/>
<path fill-rule="evenodd" clip-rule="evenodd" d="M35.0025 33.0051C35.0021 32.9863 35.0019 32.9676 35.0012 32.949C34.9344 32.9106 34.8665 32.8725 34.7972 32.8347C34.8022 32.7154 34.8018 32.5958 34.7965 32.4761C34.6818 32.4107 34.5683 32.3486 34.4553 32.2899C34.4533 32.4086 34.447 32.5279 34.437 32.6471C34.311 32.5846 34.1817 32.5236 34.0492 32.4644C34.0666 32.3459 34.0811 32.2277 34.0926 32.1103C33.9815 32.0583 33.8715 32.0097 33.7607 31.9637C33.7399 32.0788 33.7167 32.1953 33.6915 32.3125C33.5645 32.2614 33.4351 32.212 33.3031 32.165C33.3372 32.0501 33.3701 31.9364 33.4022 31.8241C33.2915 31.7843 33.1801 31.747 33.0677 31.7121C33.0255 31.8209 32.9831 31.9316 32.941 32.0439C32.807 32.0021 32.6739 31.9636 32.5415 31.9282C32.5923 31.8191 32.6443 31.7116 32.6974 31.6066C32.5818 31.577 32.4641 31.5494 32.3446 31.5237C32.2823 31.6251 32.222 31.7291 32.164 31.8352C32.0218 31.8032 31.8811 31.7744 31.7423 31.7492C31.8069 31.646 31.875 31.5454 31.9462 31.4478C31.821 31.4268 31.693 31.4075 31.562 31.3906C31.4837 31.4853 31.4096 31.5832 31.3401 31.6839C31.2615 31.6727 31.1837 31.6625 31.1068 31.6535C31.0989 31.663 31.0914 31.673 31.0837 31.6827C31.0174 31.7657 30.9538 31.8517 30.8925 31.9403C30.8727 31.969 30.8531 31.9979 30.8339 32.027C30.9225 32.0424 31.0123 32.0587 31.1029 32.076C31.0172 32.2398 30.9438 32.4104 30.8858 32.5879C31.0262 32.6053 31.1666 32.6257 31.3059 32.6499C31.3646 32.4813 31.4338 32.3183 31.5119 32.1604C31.656 32.1922 31.8018 32.2269 31.9489 32.2641C31.8792 32.4178 31.8148 32.5753 31.7574 32.7369C31.8954 32.7673 32.0334 32.8001 32.1694 32.8365C32.2252 32.6783 32.2848 32.5232 32.3472 32.3711C32.4885 32.4114 32.6305 32.454 32.7732 32.4995C32.7184 32.6518 32.6641 32.8064 32.6108 32.9629C32.7455 33.0047 32.8787 33.0496 33.0118 33.0974C33.0636 32.9403 33.1135 32.7842 33.1617 32.6296C33.3032 32.6792 33.4424 32.7305 33.5793 32.7833C33.5373 32.9425 33.4911 33.1025 33.4401 33.2627C33.5706 33.3161 33.7004 33.3731 33.8288 33.4324C33.8806 33.2678 33.9248 33.1024 33.9618 32.9369C34.1016 32.9954 34.2388 33.0552 34.373 33.1161C34.34 33.2904 34.2967 33.4636 34.2416 33.6347C34.367 33.6999 34.4915 33.7679 34.6134 33.8386C34.6749 33.6601 34.7199 33.4779 34.7503 33.2935C34.8329 33.3335 34.914 33.3741 34.9942 33.4147C34.9958 33.3841 34.9974 33.3533 34.9988 33.3227C35.0036 33.2162 35.0049 33.1103 35.0025 33.0051" fill="#FFFFFE"/>
<path fill-rule="evenodd" clip-rule="evenodd" d="M25.1695 24.2218L25.295 24.4474C25.3768 24.5806 25.4794 24.7586 25.6115 24.9747C26.2452 25.9894 27.0876 27.0808 28.2159 28.2167C28.2196 28.22 29.6222 29.6035 30.2199 30.1303C30.4513 30.0672 30.6942 30.0147 30.9456 29.9739C30.1128 29.2852 29.2922 28.5314 28.5419 27.7186C24.7493 23.6102 24.0248 19.79 23.781 18.7639C23.781 18.7639 23.4202 21.0178 25.1695 24.2218" fill="#FFFFFE"/>
<path fill-rule="evenodd" clip-rule="evenodd" d="M40.1565 23.4165L40.1575 23.4199C40.1575 23.4199 40.0159 24.3757 39.7815 24.7506C39.5482 25.1266 39.3262 25.4731 38.7454 25.4414C38.7454 25.4414 39.0816 25.344 38.974 25.0802C38.9661 25.0609 38.9604 25.0417 38.9559 25.0213C38.9548 25.0201 38.9548 25.0201 38.9548 25.0201C38.9525 25.0201 38.8653 25.0473 38.8189 25.053C38.4678 25.096 37.7294 24.9828 37.3749 24.7404C37.3715 24.7393 37.3693 24.7381 37.367 24.737C37.367 24.737 37.2787 24.8423 37.3919 25.1719C37.3647 25.1628 36.9208 24.9986 36.7611 24.6396C36.5958 24.2704 36.7566 23.2783 36.1631 23.0711C35.5652 22.8774 35.0952 23.7664 34.7396 23.9612C34.3852 24.156 33.914 24.0054 33.914 24.0054C34.2062 23.8106 34.1982 23.6736 34.1982 23.6736C34.1948 23.6736 34.1914 23.6713 34.188 23.6713C33.7588 23.6498 33.1008 23.2953 32.8471 23.0496C32.8132 23.0156 32.7611 22.942 32.7599 22.942C32.752 22.9488 32.7441 22.9544 32.735 22.9601C32.726 22.9669 32.7169 22.9726 32.7078 22.9782C32.4723 23.1164 32.6569 23.3814 32.6716 23.4018C32.1914 23.079 32.2209 22.6679 32.2628 22.2274C32.3035 21.7879 32.7667 20.9397 32.7667 20.9397L32.7735 20.9442C32.7735 20.9431 32.7724 20.942 32.7701 20.9397C32.7962 20.9499 33.2073 21.13 33.5697 21.4754C33.6059 21.5094 33.641 21.5445 33.675 21.5807C34.0692 22.0088 34.4418 22.4006 34.8075 22.5229C34.9264 22.5626 35.0521 22.5716 35.1665 22.566C35.1677 22.566 35.1699 22.566 35.1722 22.5649C35.2039 22.5637 35.2346 22.5615 35.2639 22.5581V22.5569C35.4519 22.5343 35.6014 22.4844 35.6014 22.4844C35.7249 22.7528 36.6977 23.079 36.9638 22.942C36.9638 22.942 36.9683 22.9476 36.9706 22.951C36.9876 22.976 37.0669 23.0858 37.1882 23.2025V23.2036C37.2096 23.224 37.2322 23.2444 37.256 23.2647C37.2571 23.2659 37.2594 23.267 37.2605 23.2693C37.3489 23.3429 37.4531 23.4108 37.5731 23.4505C37.9389 23.5739 38.4723 23.4867 39.0442 23.3825C39.0941 23.3746 39.1428 23.3678 39.1915 23.3621C39.7056 23.3033 40.1565 23.4165 40.1565 23.4165Z" fill="#FFFFFE"/>
<path fill-rule="evenodd" clip-rule="evenodd" d="M36.3602 25.3745L36.3001 25.5535C36.2197 25.7947 35.9298 25.9136 35.6535 25.8219C35.6535 25.8207 35.6535 25.8207 35.6535 25.8207C35.6535 25.8207 35.8392 25.7732 35.8992 25.5954C35.9004 25.5931 35.9015 25.5908 35.9015 25.5886C35.8483 25.5954 35.7916 25.5954 35.735 25.5772C35.5595 25.5184 35.461 25.3394 35.5153 25.1797C35.5244 25.1526 35.5085 25.1231 35.4802 25.1129C35.4519 25.1039 35.4224 25.1186 35.4134 25.1446C35.3601 25.3054 35.1734 25.3881 34.9966 25.3292C34.94 25.31 34.8948 25.276 34.8562 25.2364C34.855 25.2386 34.8539 25.242 34.8539 25.2443C34.7939 25.4232 34.9139 25.5727 34.9139 25.5727C34.6387 25.4798 34.4802 25.2103 34.5606 24.9702L34.6206 24.7913C34.6625 24.6576 34.7678 24.5772 34.8426 24.5319C34.9196 24.4821 34.9819 24.4459 35.0623 24.3496L35.0657 24.3451V24.3439C35.171 24.2273 35.2526 24.139 35.3013 23.9917C35.3794 23.763 35.6478 23.6418 35.9173 23.7177C35.9275 23.7199 35.9378 23.7222 35.9468 23.7256C35.9581 23.7301 35.9683 23.7335 35.9796 23.7381C36.2356 23.8411 36.3771 24.0982 36.3001 24.3281C36.2514 24.4753 36.2628 24.5931 36.2741 24.7494L36.2752 24.7539V24.7562C36.2809 24.8819 36.3092 24.9487 36.3398 25.0348C36.3703 25.1152 36.4077 25.2432 36.3602 25.3745Z" fill="#FFFFFE"/>
<path fill-rule="evenodd" clip-rule="evenodd" d="M35.8392 21.5081C36.2979 21.9135 36.4983 21.952 36.5391 21.9634C36.581 21.9792 36.7635 22.0698 37.3715 22.0222C38.0737 21.9894 39.3194 21.8603 39.6863 22.3133C39.6863 22.3258 38.7996 22.2261 38.2029 22.3224C37.6093 22.4481 36.7667 22.5285 36.393 22.3982C36.017 22.2771 35.393 21.704 34.9966 21.2465C34.581 20.8127 33.8199 20.3597 33.8199 20.345C34.3839 20.2046 35.3001 21.0585 35.8392 21.5081Z" fill="#FFFFFE"/>
<path fill-rule="evenodd" clip-rule="evenodd" d="M40.8562 21.8263C41.0091 21.6123 41.2877 21.0324 41.2877 20.3235C41.2877 19.5171 40.9276 18.542 39.615 17.7436C39.6105 17.7402 39.606 17.7368 39.6003 17.7346C39.5844 17.7244 39.5674 17.7142 39.5505 17.7051C39.3817 17.6032 39.2141 17.5137 39.0568 17.4378C38.9842 17.4027 38.914 17.371 38.8472 17.3404C38.7792 17.311 38.7147 17.2838 38.6535 17.2589C38.6071 17.2396 38.5629 17.2227 38.521 17.2068C38.4893 17.1943 38.4587 17.183 38.4294 17.1717C38.3285 17.1343 38.2447 17.1071 38.1835 17.0879C38.1711 17.0834 38.1597 17.08 38.1473 17.0754C38.0227 17.0358 37.5459 16.892 36.9514 16.7685C33.7271 16.2193 33.1053 18.6383 33.094 19.2261C33.0861 19.6553 33.1144 19.9452 33.1008 20.1174C33.3545 20.0132 33.5991 19.8784 33.7861 19.6983C33.7429 19.7482 33.0385 20.55 32.2854 20.6349C32.2854 20.6349 32.1201 21.3609 31.9185 21.7278C31.7192 22.0959 31.3284 22.3473 31.3284 22.3473C31.2911 22.866 31.5708 23.6168 31.8822 23.7731C32.1925 23.9294 33.0227 24.2035 33.3454 24.5715C33.6671 24.9396 33.6761 25.3303 33.6014 25.6078C33.5776 25.7221 33.5278 25.8581 33.4881 25.9566C33.4983 25.9588 33.5075 25.9611 33.5153 25.9634C33.5833 25.9872 33.6208 26.0336 33.6195 26.0585C33.6195 26.0585 33.5833 26.0812 33.5561 26.1231C33.53 26.165 33.4847 26.2725 33.4723 26.302C33.427 26.4141 33.3942 26.5047 33.3556 26.6168C33.3534 26.6202 33.3534 26.6236 33.3534 26.627C33.3171 26.7346 33.4258 26.772 33.4258 26.772C33.4258 26.7731 33.4372 26.7765 33.4383 26.7765C33.5255 26.7924 33.6195 26.8116 33.7169 26.832C33.7169 26.832 33.8473 26.8558 33.8913 26.7391C33.9332 26.6157 33.9695 26.5138 34.0159 26.3903C34.0181 26.3835 34.0215 26.3756 34.0249 26.3688V26.3677L34.0283 26.3598C34.0283 26.3598 34.0567 26.2748 34.0692 26.2239C34.0804 26.1763 34.1304 26.0947 34.1756 26.0947C34.2231 26.0947 34.2877 26.1174 34.2809 26.2137C34.2741 26.3099 34.2548 26.3733 34.2514 26.3847C34.2503 26.3892 34.2492 26.3949 34.2492 26.3983C34.2061 26.55 34.1189 26.8694 34.1189 26.8694C34.077 26.9917 34.2108 27.0302 34.2108 27.0302C34.2922 27.0528 34.4145 27.0721 34.5006 27.0981C34.5063 27.0993 34.5108 27.1004 34.5176 27.1015C34.5176 27.1015 34.6195 27.1344 34.6558 27.1208C34.6931 27.1072 34.7169 27.0506 34.7237 27.0325C34.7294 27.0143 34.8653 26.5398 34.88 26.4889C34.8903 26.4504 34.8857 26.3733 34.8653 26.3292C34.8721 26.3303 34.9955 26.3518 35.0647 26.3745C35.1223 26.3949 35.1994 26.4254 35.2379 26.4549C35.179 26.4843 35.1405 26.5817 35.1371 26.5953C35.1359 26.5976 35.1348 26.5987 35.1348 26.5998C35.1257 26.6316 35.1144 26.6621 35.1054 26.6927C35.0623 26.8229 35.0057 26.9894 34.9615 27.1208C34.9547 27.1559 34.9479 27.2431 35.0499 27.2816C35.0555 27.2827 35.0602 27.2861 35.0657 27.2873C35.1507 27.319 35.2584 27.3575 35.3375 27.3892C35.3375 27.3892 35.3636 27.3994 35.3964 27.3994C35.4361 27.3994 35.4849 27.3847 35.5074 27.3167C35.5278 27.2544 35.5743 27.1163 35.615 26.9906C35.6547 26.866 35.6909 26.7527 35.692 26.7391C35.6931 26.7154 35.7214 26.6712 35.7384 26.6565C35.7849 26.6531 35.8188 26.6599 35.8506 26.6757C35.8879 26.6938 35.931 26.7403 35.9479 26.7573C35.923 26.8003 35.8834 26.9102 35.8732 26.9702C35.8653 27.0211 35.8053 27.2397 35.7769 27.3416C35.7735 27.3496 35.7713 27.3609 35.768 27.37C35.7656 27.3733 35.7667 27.3767 35.7656 27.3813C35.7645 27.3847 35.7633 27.3869 35.7645 27.3892C35.7486 27.4945 35.8506 27.5478 35.8506 27.5478C35.9412 27.5908 36.0284 27.6327 36.1077 27.6723C36.1077 27.6723 36.119 27.6769 36.1201 27.6769C36.1201 27.6769 36.2288 27.712 36.265 27.6044C36.2662 27.601 36.2684 27.5976 36.2696 27.5965C36.3059 27.4832 36.3342 27.3892 36.3658 27.2737C36.3738 27.242 36.3828 27.2103 36.3909 27.1786C36.393 27.1752 36.3942 27.1661 36.3954 27.1536C36.3976 27.1457 36.4134 27.0891 36.4179 27.054C36.4213 27.0359 36.4213 27.0189 36.4202 27.0064C36.4202 27.0064 36.4803 27.0302 36.5504 27.0608C36.5788 26.8229 36.6807 26.6451 36.6807 26.6451C36.7033 26.5908 36.7362 26.5444 36.7713 26.5024C36.7701 26.5024 36.769 26.5036 36.769 26.5036C36.8993 26.2793 37.136 26.0574 37.5289 25.9758C38.008 25.8773 38.8347 26.1582 39.1779 26.2216C39.4802 26.2771 40.0432 25.9487 40.3647 25.5693C40.4236 25.4787 40.4644 25.413 40.4644 25.413C40.4644 25.413 40.3036 24.977 40.3659 24.5625C40.4293 24.1491 40.7339 23.4685 40.7339 23.4685C40.1677 22.9316 40.102 21.815 40.102 21.815C40.1371 22.0415 40.2288 22.268 40.3477 22.4809C40.4474 22.3303 40.6411 22.1253 40.8562 21.8263V21.8263Z" fill="#FFFFFE"/>
<path fill-rule="evenodd" clip-rule="evenodd" d="M24.8053 31.4486C25.3706 31.3818 26.4418 31.3958 26.7126 31.4426C26.7143 31.4405 26.7165 31.4383 26.7187 31.4361C26.8748 31.1891 27.1067 31.079 27.2749 31.0232C26.9947 30.9788 26.6659 30.9413 26.3835 30.9161C26.2431 30.9035 26.1026 30.8934 25.9619 30.8866C25.8728 30.8822 25.7837 30.8795 25.6944 30.8777C25.5093 30.9135 25.2968 30.98 25.1481 31.0776C24.9756 31.1896 24.8641 31.3292 24.8053 31.4486" fill="#FFFFFE"/>
<path fill-rule="evenodd" clip-rule="evenodd" d="M24.567 31.464C24.5735 31.4568 24.5973 31.4119 24.6016 31.4039C24.6667 31.2808 24.7944 31.1635 24.9141 31.0938C24.9154 31.093 24.9165 31.0919 24.9176 31.0914C25.1269 30.9657 25.4556 30.8895 25.6633 30.878C25.6693 30.8774 25.59 30.8758 25.5503 30.876C25.2923 30.8772 25.0345 30.9026 24.7791 30.9383C24.5529 30.9698 24.3356 31.0093 24.1264 31.0074C24.0598 31.0071 23.9957 31.0023 23.9337 30.9905C23.9328 30.9904 23.9312 30.9905 23.9302 30.9903C23.9312 30.9905 23.9328 30.9904 23.9337 30.9905C23.8748 30.9794 23.8176 30.9629 23.7614 30.9389C23.7638 30.9481 23.8857 31.464 24.567 31.464" fill="#FFFFFE"/>
<path fill-rule="evenodd" clip-rule="evenodd" d="M38.4562 34.7751C38.5564 34.9207 38.6763 35.159 38.6527 35.4491C38.8956 35.5749 39.7588 36.2093 40.1693 36.6044C40.1945 36.4734 40.1896 36.2947 40.1193 36.1014C40.0596 35.9337 39.9308 35.7531 39.8045 35.6125C39.7882 35.6004 39.7718 35.5883 39.7553 35.5761C39.6261 35.4833 39.4933 35.3951 39.3595 35.3091C39.172 35.1887 38.9815 35.0732 38.7886 34.9619C38.6971 34.9092 38.6045 34.8579 38.5123 34.8061C38.4929 34.7951 38.475 34.7858 38.4562 34.7751" fill="#FFFFFE"/>
<path fill-rule="evenodd" clip-rule="evenodd" d="M40.2961 36.2507C40.3458 36.3738 40.3733 36.5265 40.3652 36.6595C40.3631 36.6962 40.3578 36.7289 40.3511 36.7596C40.3515 36.76 40.3525 36.7618 40.3529 36.7625C40.3768 36.7805 40.4002 36.7974 40.4235 36.8129C40.4613 36.8383 40.5007 36.8607 40.5409 36.8817C40.6047 36.9145 40.6714 36.9399 40.741 36.9569C40.7907 36.9689 40.8463 36.9765 40.8976 36.9765C41.047 36.9765 41.1859 36.9184 41.304 36.8298C41.3058 36.8285 41.3076 36.8274 41.3093 36.8259C41.2518 36.812 41.1974 36.7917 41.145 36.766C41.0877 36.7379 41.0324 36.7022 40.9779 36.6616C40.906 36.608 40.6938 36.4078 40.6425 36.3558C40.5727 36.2854 40.5022 36.2157 40.4316 36.1461C40.346 36.062 40.16 35.8899 40.0733 35.8242C40.0543 35.8099 39.8262 35.627 39.8262 35.627C39.8344 35.6339 40.213 36.0331 40.2961 36.2507" fill="#FFFFFE"/>
<path fill-rule="evenodd" clip-rule="evenodd" d="M48.511 39.1667C47.7726 40.3344 43.744 46.4038 42.7913 47.7822C42.7848 47.7765 42.7744 47.7697 42.7688 47.7652C42.6294 47.6384 42.4494 47.4854 42.2501 47.319C42.575 46.8557 46.2991 41.3186 47.3908 39.6028C47.7726 39.4679 48.144 39.3208 48.511 39.1667" fill="#B1BABF"/>
<path fill-rule="evenodd" clip-rule="evenodd" d="M41.6442 51.0575C41.6613 51.3317 41.3407 51.7326 41.0563 51.838C40.8502 51.9229 40.5772 51.9648 40.3133 51.9636C40.2295 51.9636 40.147 51.9603 40.0665 51.9524C40.1413 51.8266 40.232 51.6738 40.3326 51.5096C40.5591 51.1391 40.8401 50.7076 41.0835 50.3894C41.25 50.4721 41.489 50.634 41.6011 50.8685C41.6305 50.9307 41.6442 50.9908 41.6442 51.0575" fill="#B1BABF"/>
<path fill-rule="evenodd" clip-rule="evenodd" d="M39.9784 49.1028C39.7711 48.9125 39.6397 48.7087 39.5571 48.5071C39.5559 48.5081 38.7709 49.5345 38.0735 51.0701C38.0916 51.1459 38.1153 51.2183 38.146 51.2841C38.361 51.7429 38.5515 51.8686 38.9319 51.8458C38.9319 51.8458 39.8211 50.3294 40.4485 49.5185C40.3193 49.4108 40.1642 49.2738 39.9784 49.1028" fill="#B1BABF"/>
<path fill-rule="evenodd" clip-rule="evenodd" d="M43.4747 50.2716C43.2868 49.446 42.2369 48.6407 41.9945 48.464C41.4758 48.0053 40.1349 46.9578 40.0079 46.7311C39.871 46.4843 39.2504 45.6428 38.401 45.4729C38.401 45.4729 38.2594 45.4525 38.2388 45.5624C38.2286 45.6292 38.2569 45.6915 38.3578 45.7187C38.4576 45.7447 38.7712 45.7764 39.1212 46.106C39.4711 46.4356 39.5956 46.8704 39.589 47.2375C39.5799 47.6044 39.7102 48.122 40.1553 48.4561C40.6025 48.7902 41.1303 49.3542 41.5937 49.4834C41.622 49.4912 41.6489 49.4957 41.6772 49.4981C41.9843 49.5253 42.2753 49.2489 42.2289 49.0937C42.3298 49.429 42.2379 49.6725 42.0873 49.8469C42.6016 50.3531 42.8508 50.9307 42.6899 51.4507C42.4848 52.1188 41.7385 53.0169 40.3737 52.9988C39.402 52.9863 38.8311 52.7157 38.5821 52.5605C38.5832 52.5581 38.6659 52.3725 38.6715 52.36C38.1019 52.497 37.8935 51.6534 37.8844 51.616C37.5661 53.0781 36.95 53.1019 36.7869 53.0803C36.7609 53.0768 36.7462 53.0723 36.7462 53.0723C36.7462 53.0723 36.8685 53.5504 37.3441 53.7792C37.1277 53.7145 36.8877 53.7928 36.7564 53.9921C36.5955 54.2345 36.6624 54.5618 36.9048 54.7226C37.1483 54.8823 37.4744 54.8166 37.6364 54.573C37.796 54.3307 37.7304 54.0034 37.4868 53.8438C37.4744 53.8358 37.463 53.8313 37.4507 53.8245C37.5151 53.8483 37.5808 53.8697 37.6579 53.8823C38.2922 53.9876 38.5004 53.6817 38.5004 53.6817C38.5004 53.6817 38.4576 53.5946 38.4279 53.4722C38.4279 53.4722 37.8006 53.914 37.1074 53.2128C37.1313 53.2208 37.36 53.3 37.7542 53.2355C38.3419 53.1482 38.4224 52.9636 38.462 52.9297C38.4631 52.9229 38.4642 52.9184 38.4667 52.9127C38.9751 53.1891 39.5368 53.3181 40.3363 53.334C41.2333 53.3509 42.0919 53.0701 42.597 52.6296C43.101 52.1901 43.6979 51.2569 43.4747 50.2716" fill="#B1BABF"/>
<path fill-rule="evenodd" clip-rule="evenodd" d="M33.7946 30.1387C33.7955 30.139 33.7972 30.1393 33.799 30.1397C33.8003 30.1404 33.8016 30.1411 33.803 30.1413C34.0242 30.2154 34.2339 30.2708 34.4551 30.2957C34.6763 30.3205 34.9095 30.3147 35.1782 30.2671C35.7201 30.171 36.3407 29.6142 36.5739 29.4492C36.8079 29.2843 37.6916 28.7004 37.8917 28.5593C38.0921 28.4177 38.2595 28.2995 38.4651 27.9523C38.6713 27.6037 39.0194 26.7941 39.0194 26.7941C39.0194 26.7941 38.6852 26.7282 38.5747 26.7147C38.5747 26.7147 38.5731 26.7177 38.5696 26.7237C38.5203 26.8108 38.1218 27.5139 37.9766 27.6608C37.9766 27.6608 37.9722 27.6613 37.9645 27.6627C38.0515 27.7128 38.304 27.8711 38.347 28.0576C38.347 28.0576 37.9225 28.4482 37.3998 28.6784C36.8765 28.9088 36.085 29.4078 35.7731 29.6157C35.655 29.6943 35.4944 29.7621 35.2914 29.7995C35.1648 29.5737 34.7245 29.295 34.1602 29.1054C33.5703 28.9072 33.0286 28.8689 32.8076 28.9917C32.6466 28.8267 32.5483 28.6619 32.4979 28.5166C32.3751 28.1628 32.044 27.2869 31.7662 26.7881C31.4879 26.2889 31.3849 25.7212 31.3849 25.7212C31.5622 25.5728 31.9615 25.642 31.9615 25.642C31.9577 25.6148 31.9569 25.577 31.9573 25.5317C31.9615 25.2365 32.0426 24.6232 32.0542 24.5371C32.0551 24.5304 32.0558 24.5271 32.0558 24.5271C31.9599 24.4712 31.6525 24.322 31.6525 24.322C31.6525 24.322 31.6516 24.3253 31.6503 24.3318C31.6269 24.4273 31.4397 25.2031 31.3967 25.5801C31.3508 25.9815 31.4127 26.1765 31.4879 26.4103C31.5627 26.6437 31.9149 27.6424 32.0015 27.9147C32.0126 27.9488 32.0245 27.9915 32.038 28.0407C32.1316 28.3855 32.2941 29.0563 32.6218 29.4091C32.9934 29.8095 33.3521 29.9898 33.7946 30.1387" fill="#B1BABF"/>
<path fill-rule="evenodd" clip-rule="evenodd" d="M34.997 21.2468C35.3934 21.7044 36.0174 22.2773 36.3934 22.3986C36.7672 22.529 37.6097 22.4484 38.2031 22.3227C38.8002 22.2265 39.6858 22.3261 39.6858 22.3137C39.32 21.8607 38.0742 21.9898 37.372 22.0225C36.7637 22.0701 36.5814 21.9796 36.5396 21.9637C36.4988 21.9524 36.2982 21.9139 35.8395 21.5084C35.3005 21.0587 34.3843 20.2048 33.8202 20.3452C33.8202 20.36 34.5814 20.813 34.997 21.2468" fill="#B1BABF"/>
<path fill-rule="evenodd" clip-rule="evenodd" d="M32.6718 23.4019C32.6571 23.3815 32.4724 23.1165 32.7081 22.9783C32.7171 22.9728 32.7261 22.967 32.7351 22.9602C32.7442 22.9545 32.7522 22.9477 32.7602 22.9409C32.7647 22.9364 32.6785 22.7869 32.6729 22.7756C32.537 22.4472 32.5687 22.0383 32.6536 21.7088C32.6785 21.6125 32.7081 21.5174 32.7455 21.4245C32.7455 21.4245 32.8927 21.1062 32.8077 20.9782C32.7975 20.9669 32.7861 20.9556 32.776 20.9454L32.7738 20.9442L32.7669 20.9397C32.7669 20.9397 32.3037 21.7879 32.2629 22.2275C32.221 22.668 32.1915 23.0791 32.6718 23.4019" fill="#B1BABF"/>
<path fill-rule="evenodd" clip-rule="evenodd" d="M34.1984 23.6739C34.1984 23.6739 34.2064 23.8109 33.9142 24.0056C33.9142 24.0056 34.3854 24.1562 34.7397 23.9615C35.0955 23.7667 35.5654 22.8777 36.1636 23.0713C36.757 23.2785 36.5962 24.2706 36.7615 24.6399C36.9211 24.999 37.3651 25.1632 37.3922 25.1723C37.279 24.8426 37.3675 24.7374 37.3675 24.7374H37.3664C37.0118 24.5255 36.9404 23.7158 36.9392 23.5061C36.9382 23.2978 36.963 22.9478 36.9643 22.9422C36.698 23.0792 35.7252 22.753 35.6017 22.4846C35.6017 22.4846 35.4071 22.7826 35.2801 22.9489C35.1522 23.1166 34.6083 23.7192 34.1984 23.6739" fill="#B1BABF"/>
<path fill-rule="evenodd" clip-rule="evenodd" d="M36.7162 27.1383C36.7399 27.1519 36.7783 27.1666 36.7931 27.1905C36.827 27.2392 36.8361 27.2585 36.8361 27.2585C36.8033 27.2641 36.7704 27.2687 36.7377 27.2743C36.7196 27.2732 36.6379 27.3026 36.6379 27.3274C36.4795 27.8349 36.528 27.9244 36.5654 27.9482C36.5972 27.9684 36.9506 27.7658 37.0559 27.3989C37.0559 27.3966 37.1148 27.0907 37.1272 26.9696C37.1489 26.7736 37.2303 26.5505 37.2404 26.5234L37.2383 26.5245C37.2383 26.5234 37.2404 26.5212 37.2404 26.5212C36.8815 26.5041 36.6811 26.6457 36.6811 26.6457C36.6811 26.6457 36.5791 26.8236 36.5508 27.0613C36.5508 27.0624 36.6889 27.1236 36.7162 27.1383" fill="#B1BABF"/>
<path fill-rule="evenodd" clip-rule="evenodd" d="M39.1784 26.2221C38.8352 26.1586 38.0085 25.8778 37.5294 25.9764C37.1353 26.0579 36.8986 26.281 36.7672 26.5064C36.7683 26.5053 36.7694 26.503 36.7717 26.503C36.7739 26.5007 36.775 26.5007 36.7763 26.4984C37.0413 26.1927 37.5226 26.2052 37.8862 26.2516C38.1704 26.2867 38.4525 26.3467 38.7311 26.4134C39.4412 26.5812 39.5668 26.4328 39.8227 26.2403C40.0426 26.0749 40.2226 25.8201 40.3562 25.5822C40.3595 25.5778 40.362 25.5744 40.3642 25.5698C40.0426 25.9491 39.4808 26.2776 39.1784 26.2221" fill="#B1BABF"/>
<path fill-rule="evenodd" clip-rule="evenodd" d="M28.7034 30.1907C28.7438 30.2266 29.0736 30.5551 29.1064 30.5394C29.3121 30.4414 29.5368 30.3507 29.7757 30.2675C26.4315 27.3503 25.1595 24.2038 25.1595 24.2038L25.1695 24.2218C23.4202 21.0178 23.781 18.7639 23.781 18.7639C23.781 18.7639 23.7592 18.8284 23.7592 18.8286C23.6126 19.2602 23.5575 19.7312 23.5336 20.1842C23.493 20.9507 23.5649 21.7217 23.7271 22.4714C23.8994 23.2679 24.1748 24.0353 24.5126 24.7759C24.8583 25.5338 25.2857 26.2534 25.7617 26.9367C26.3477 27.7784 27.0164 28.5616 27.7414 29.2868C28.0526 29.598 28.3738 29.899 28.7034 30.1907" fill="#B1BABF"/>
<path fill-rule="evenodd" clip-rule="evenodd" d="M24.8052 31.4485C24.7758 31.5088 24.7556 31.5654 24.7565 31.6079C24.7583 31.6731 24.7888 31.7317 24.8184 31.7753C24.8184 31.7753 25.855 31.8306 26.5067 32.0094C26.5326 31.9167 26.5663 31.803 26.6109 31.6647C26.6387 31.5767 26.6766 31.5027 26.7186 31.4361C26.7164 31.4382 26.7142 31.4404 26.7125 31.4425C26.4417 31.3957 25.3705 31.3817 24.8052 31.4485" fill="#B1BABF"/>
<path fill-rule="evenodd" clip-rule="evenodd" d="M28.0355 29.9038C27.9984 29.9141 27.9728 29.9443 27.983 30.0029C27.9928 30.0615 28.0527 30.2321 27.9654 30.494C27.8777 30.7569 27.6813 30.9265 27.4876 31.0112C27.2945 31.0958 27.0566 31.2875 26.9898 31.6007C26.9239 31.9137 26.7544 32.3259 26.8014 32.5981C26.8193 32.7017 26.9219 32.8451 27.1585 32.835C26.9969 32.9688 26.8443 32.9589 26.7202 32.9023C26.5244 33.2636 26.2297 33.4126 25.6936 33.3084C25.1447 33.2019 24.4498 32.6758 24.3057 31.7873C24.3059 31.7684 24.5702 31.7697 24.5946 31.7697C24.5959 31.7697 24.5968 31.7697 24.5982 31.7697C24.5658 31.7275 24.5309 31.6662 24.5287 31.5998C24.5278 31.5627 24.5433 31.515 24.5669 31.464C23.8856 31.464 23.7638 30.9481 23.7613 30.9388C23.7613 30.9388 23.5451 31.1124 23.5359 31.4088C23.5125 31.2865 23.4146 31.1866 23.2851 31.1673C23.1209 31.142 22.9669 31.255 22.9422 31.4197C22.9174 31.5841 23.0311 31.7381 23.1952 31.763C23.3595 31.7875 23.5134 31.6747 23.5382 31.5103C23.5387 31.5063 23.5388 31.5025 23.5393 31.4984C23.5431 31.5335 23.5498 31.5701 23.5603 31.6079C23.5888 31.7128 23.6277 31.7873 23.6677 31.8439C23.7638 31.9796 23.8682 31.9993 23.8682 31.9993C23.8693 31.9995 23.8829 31.9801 23.884 31.9788C23.8912 31.9704 23.9522 31.9067 23.9601 31.9119C23.8912 31.8673 23.5974 31.6445 23.7761 31.158C23.7761 31.158 23.7659 31.5972 24.1291 31.8309C24.169 32.0127 24.4539 33.0991 25.5193 33.4371C26.6824 33.8067 27.1305 33.2522 27.2349 33.0434C27.2822 32.9478 27.4013 32.6514 27.4013 32.6514C27.5022 32.3625 27.7578 31.2385 27.8538 31.1076C27.9494 30.9762 28.2379 30.4501 28.1211 29.9668C28.1211 29.9668 28.0974 29.8875 28.0355 29.9038" fill="#B1BABF"/>
<path fill-rule="evenodd" clip-rule="evenodd" d="M40.7411 36.9569C40.6714 36.9399 40.6047 36.9145 40.541 36.8817C40.5008 36.8607 40.4613 36.8383 40.4235 36.813C40.4003 36.7974 40.3769 36.7806 40.353 36.7626C40.3521 36.7619 40.3512 36.7612 40.3502 36.7605C40.3384 36.8152 40.3219 36.8628 40.2987 36.8917C40.2572 36.9434 40.1919 36.9712 40.1413 36.9858C40.1423 36.9861 40.1435 36.9873 40.1446 36.9882C40.2205 37.049 40.2985 37.1027 40.3636 37.1759C39.7129 37.7971 38.8414 37.7979 38.339 37.5518C37.848 37.3109 37.7032 37.0141 37.7654 36.6063C37.6327 36.5768 37.5046 36.4951 37.4569 36.2906C37.4613 36.2946 37.467 36.297 37.4716 36.3008C37.5848 36.3922 37.7694 36.4258 37.8838 36.3171C37.9868 36.2192 38.0669 36.0581 38.139 35.8852C38.2049 35.7265 38.262 35.5639 38.3348 35.4083C38.3642 35.3452 38.3852 35.2764 38.3964 35.2076C38.4293 35.0141 38.3887 34.8081 38.2934 34.6372C38.1908 34.453 38.1355 34.1991 38.2246 33.9364C38.3135 33.6753 38.4637 33.5751 38.5066 33.5344C38.5505 33.4941 38.5477 33.4541 38.5245 33.4233C38.485 33.3734 38.4189 33.4223 38.4189 33.4223C38.0337 33.7373 37.9466 34.3309 37.9439 34.4936C37.9415 34.6562 37.467 35.7063 37.3734 35.9971C37.3695 36.0092 37.2885 36.2587 37.2697 36.4102C37.2409 36.6422 37.2498 37.3523 38.4001 37.7596C39.4534 38.1324 40.3326 37.4337 40.4746 37.3119C40.7705 37.3339 40.9856 37.1797 41.09 37.0766C41.1378 37.0297 41.1657 36.9935 41.1657 36.9935C41.052 37.3669 40.8148 37.4588 40.6697 37.4794C40.6226 37.486 40.5848 37.4854 40.5644 37.4836C40.5675 37.4931 40.5688 37.5006 40.5711 37.5091C40.5878 37.5716 40.5843 37.6092 40.5843 37.6092C40.5843 37.6092 40.6187 37.6256 40.6779 37.6294C40.7612 37.6345 40.8951 37.6141 41.0666 37.4825C41.0957 37.4597 41.1179 37.4354 41.1411 37.4115C41.074 37.5531 41.1258 37.7234 41.2655 37.7993C41.4103 37.878 41.5914 37.8238 41.6695 37.6792C41.7482 37.5349 41.6943 37.3536 41.5496 37.2755C41.443 37.2173 41.3173 37.2319 41.2274 37.3005C41.3147 37.1562 41.3249 37.0083 41.32 36.9153C41.3193 36.8995 41.3094 36.8276 41.3081 36.8271C41.307 36.8281 41.3054 36.8288 41.304 36.8298C41.1859 36.9184 41.0471 36.9765 40.8977 36.9765C40.8464 36.9765 40.7908 36.9689 40.7411 36.9569" fill="#B1BABF"/>
<path fill-rule="evenodd" clip-rule="evenodd" d="M38.599 35.6875C38.5502 35.8249 38.5091 35.9359 38.4734 36.0252C39.0518 36.2856 39.6003 36.6098 39.9614 36.8571C40.0122 36.84 40.0715 36.8119 40.1122 36.7608C40.1383 36.7274 40.1564 36.6703 40.1693 36.6045C39.7588 36.2095 38.8956 35.575 38.6527 35.4492C38.6527 35.4492 38.6299 35.5992 38.599 35.6875" fill="#B1BABF"/>
<path fill-rule="evenodd" clip-rule="evenodd" d="M36.9514 16.7685C33.7271 16.2192 33.1053 18.6383 33.094 19.2261C33.0861 19.6553 33.1144 19.9452 33.1008 20.1173C32.632 20.3133 32.1302 20.3846 32.1302 20.3846C32.1574 20.1128 32.1563 19.5126 32.2729 19.0392C32.3828 18.5941 33.1257 16.6507 35.7373 16.6394C36.008 16.6394 36.2979 16.6587 36.6093 16.7028C36.7215 16.7221 36.8302 16.7436 36.9355 16.7651C36.9412 16.7662 36.9457 16.7674 36.9514 16.7685" fill="#B1BABF"/>
<path fill-rule="evenodd" clip-rule="evenodd" d="M41.6263 22.173C41.4508 22.6136 41.102 23.0484 40.9492 23.2965C40.7701 23.1005 40.529 22.8083 40.3477 22.4811C40.4474 22.3304 40.641 22.1254 40.8562 21.8265C41.0091 21.6124 41.2877 21.0326 41.2877 20.3236C41.2877 19.5173 40.9276 18.5422 39.615 17.7438C39.6104 17.7404 39.6059 17.737 39.6003 17.7347C39.5844 17.7245 39.5674 17.7143 39.5504 17.7053C39.3817 17.6033 39.2141 17.5139 39.0568 17.438L39.188 17.4935C42.564 19.1175 41.82 21.6826 41.6263 22.173" fill="#B1BABF"/>
<path fill-rule="evenodd" clip-rule="evenodd" d="M40.1013 23.4257C39.9565 23.4766 39.8817 23.8199 39.8817 23.8199C39.8534 23.9229 39.8182 24.0236 39.7762 24.1222C39.6799 24.3441 39.5464 24.5605 39.3777 24.7362C39.2508 24.8687 39.1115 24.9344 38.9564 25.0216C38.9609 25.0419 38.9666 25.0612 38.9745 25.0803C39.082 25.3443 38.7456 25.4417 38.7456 25.4417C39.3257 25.4734 39.5486 25.1269 39.782 24.7508C40.0153 24.3759 40.1568 23.42 40.1568 23.42L40.1467 23.4189C40.1319 23.4211 40.1173 23.4235 40.1013 23.4257" fill="#B1BABF"/>
<path fill-rule="evenodd" clip-rule="evenodd" d="M32.1077 24.1904C32.3353 24.2899 32.5607 24.3965 32.777 24.5188C33.101 24.7023 33.4499 24.9186 33.5846 25.2868C33.5857 25.29 33.5857 25.2935 33.5879 25.2969C33.6242 25.3898 33.6275 25.5052 33.6027 25.6003C33.6027 25.588 33.597 25.572 33.589 25.5552C33.5596 25.4973 33.5087 25.4555 33.4758 25.4011C33.4758 25.4 33.4746 25.3989 33.4725 25.3965C33.3999 25.3139 33.3218 25.2381 33.23 25.1757C33.23 25.1757 33.23 25.178 33.23 25.1792L33.2278 25.1746C33.2278 25.1746 33.1576 25.4203 33.0478 25.6015C32.9854 25.7057 32.9186 25.8212 32.8483 25.9799C32.8483 25.9821 32.8472 25.9844 32.8462 25.9865C32.7092 26.3424 32.8688 26.7184 32.9062 26.7205C32.9504 26.7239 33.0444 26.681 33.2222 26.1816C33.2267 26.1701 33.2357 26.1463 33.2414 26.1203C33.246 26.0965 33.238 26.0534 33.2278 26.0184C33.2278 26.0184 33.229 26.016 33.23 26.0127C33.2516 25.931 33.3559 25.9379 33.4216 25.9459C33.4442 25.9481 33.4667 25.9515 33.4884 25.9572C33.528 25.8587 33.5778 25.7227 33.6017 25.6084C33.6764 25.3309 33.6674 24.9401 33.3457 24.572C33.0228 24.2038 32.1926 23.9298 31.8823 23.7736C31.5709 23.6173 31.2911 22.8663 31.3285 22.3477C31.3285 22.3477 31.2991 22.6364 31.2991 22.9275C31.2991 23.0442 31.3025 23.162 31.3149 23.2605C31.3217 23.3103 31.3308 23.3556 31.341 23.3942C31.4304 23.7023 31.4406 23.897 32.1077 24.1904" fill="#B1BABF"/>
<path fill-rule="evenodd" clip-rule="evenodd" d="M36.2757 24.7566V24.7543L36.2743 24.7497C36.2631 24.5934 36.2518 24.4757 36.3005 24.3284C36.3776 24.0979 36.2354 23.8408 35.9793 23.7383C36.1355 23.807 36.2191 23.9727 36.1691 24.1223C36.1069 24.3068 36.1182 24.4621 36.1295 24.6218C36.1374 24.9309 36.279 25.0171 36.2156 25.2085L36.152 25.3954C36.116 25.5041 36.0162 25.5719 35.9018 25.589C35.9018 25.5912 35.9007 25.5936 35.8997 25.5958C35.8394 25.7736 35.6539 25.8211 35.6539 25.8211C35.6539 25.8211 35.6539 25.8211 35.6539 25.8223C35.9302 25.9141 36.2202 25.7951 36.3005 25.5538L36.3606 25.3749C36.4082 25.2436 36.3708 25.1156 36.34 25.0351C36.3096 24.949 36.2812 24.8822 36.2757 24.7566" fill="#B1BABF"/>
<path fill-rule="evenodd" clip-rule="evenodd" d="M34.775 24.9331L34.8385 24.7464C34.9018 24.5548 35.0672 24.5718 35.2609 24.3295C35.3651 24.2094 35.4704 24.0939 35.5327 23.9082C35.5825 23.7587 35.7513 23.6759 35.9179 23.7179C35.6482 23.642 35.3799 23.7632 35.3016 23.992C35.253 24.1392 35.1715 24.2275 35.066 24.3441V24.3452L35.0627 24.3499C34.9823 24.4461 34.9199 24.4824 34.843 24.5322C34.768 24.5775 34.6628 24.6578 34.621 24.7915L34.5608 24.9705C34.4805 25.2107 34.6391 25.4802 34.9142 25.573C34.9142 25.573 34.7943 25.4236 34.8542 25.2447C34.8542 25.2423 34.8555 25.239 34.8566 25.2367C34.7772 25.1541 34.7387 25.0408 34.775 24.9331" fill="#B1BABF"/>
<path fill-rule="evenodd" clip-rule="evenodd" d="M44.2833 30.5983L44.2612 30.616C44.2612 30.616 41.3585 32.344 36.9485 32.6597C37.0896 32.8692 37.2144 33.077 37.319 33.2802C38.6912 33.2032 40.0798 33.0124 41.3921 32.6485C42.2311 32.4158 43.0569 32.1204 43.8447 31.7485C44.6377 31.3741 45.4154 30.9265 46.0993 30.3747C46.5453 30.0148 46.9632 29.6268 47.3465 29.2007C47.8739 28.6147 48.3557 27.917 48.6158 27.1669C48.6158 27.1669 48.637 27.105 48.6366 27.1052C48.6154 27.1546 47.7757 29.0833 44.2833 30.5983" fill="#B1BABF"/>
<path d="M32.7454 21.4248C32.7454 21.4248 32.8926 21.1064 32.8077 20.9784C32.7991 20.9689 32.7897 20.9594 32.7809 20.9505L32.776 20.9456L32.7737 20.9445C32.7737 20.9436 32.7729 20.9427 32.7714 20.9411L32.7703 20.9399C32.7962 20.9501 33.2073 21.1302 33.5697 21.4756C33.6061 21.5097 33.6412 21.5448 33.6753 21.5809C34.0692 22.0091 34.442 22.401 34.8078 22.5233C34.9267 22.5629 35.0523 22.572 35.1668 22.5664C35.1671 22.5664 35.1675 22.5664 35.168 22.5664C35.1683 22.5664 35.1687 22.5664 35.169 22.5663C35.1701 22.5662 35.1713 22.5658 35.1726 22.5652C35.2042 22.5641 35.2348 22.5618 35.2641 22.5584V22.5574C35.4521 22.5346 35.6017 22.4848 35.6017 22.4848C35.6017 22.4848 35.407 22.7827 35.2801 22.9491C35.1522 23.1167 34.6083 23.7193 34.1984 23.674C34.1968 23.674 34.1951 23.6735 34.1934 23.6729C34.1928 23.6727 34.1922 23.6725 34.1916 23.6724L34.1906 23.6721C34.1898 23.6719 34.189 23.6718 34.1882 23.6718C33.7589 23.6502 33.101 23.2957 32.8472 23.0499C32.8225 23.0251 32.788 22.979 32.7707 22.9561C32.7644 22.9477 32.7604 22.9423 32.7601 22.9423C32.7522 22.9491 32.7441 22.9548 32.7351 22.9604C32.7441 22.9548 32.7522 22.948 32.7601 22.9412C32.7636 22.9377 32.7145 22.8504 32.6883 22.8038L32.6819 22.7924L32.6778 22.785C32.6752 22.7804 32.6735 22.7772 32.6728 22.7758C32.5369 22.4474 32.5686 22.0386 32.6535 21.709C32.6785 21.6127 32.708 21.5176 32.7454 21.4248Z" fill="black"/>
<path d="M37.3664 24.7376C37.0118 24.5257 36.9403 23.7159 36.9392 23.5063C36.9382 23.2979 36.963 22.948 36.9642 22.9423C36.9642 22.9423 36.9686 22.948 36.971 22.9514C36.988 22.9763 37.0672 23.0863 37.1885 23.2028V23.2039C37.21 23.2243 37.2325 23.2447 37.2564 23.2652C37.2567 23.2655 37.2571 23.2657 37.2574 23.266C37.2586 23.2669 37.26 23.2679 37.2608 23.2696C37.3493 23.3432 37.4535 23.4112 37.5736 23.4509C37.9392 23.5744 38.4727 23.4871 39.0446 23.3829C39.0946 23.375 39.1432 23.3683 39.192 23.3625C39.705 23.3037 40.1559 23.417 40.1559 23.417L40.1569 23.4202L40.1468 23.4192C40.1401 23.4202 40.1335 23.4212 40.1268 23.4222L40.1182 23.4235L40.1121 23.4244C40.1086 23.425 40.105 23.4255 40.1014 23.426C39.9565 23.4769 39.8818 23.8201 39.8818 23.8201C39.8535 23.9232 39.8183 24.0239 39.7762 24.1225C39.68 24.3444 39.5465 24.5608 39.3777 24.7364C39.2696 24.8493 39.1525 24.9137 39.0243 24.9842C39.002 24.9965 38.9794 25.0089 38.9564 25.0218L38.9552 25.0207C38.9551 25.0207 38.9548 25.0208 38.9544 25.0209L38.954 25.021L38.9512 25.0217L38.9427 25.0241C38.9165 25.0316 38.8555 25.0491 38.8194 25.0534C38.4681 25.0966 37.7298 24.9833 37.3754 24.7409C37.3722 24.7398 37.3701 24.7388 37.3681 24.7378L37.3675 24.7376H37.3664Z" fill="black"/>
<path d="M36.152 25.3956L36.2155 25.2087C36.2494 25.1064 36.2248 25.0341 36.1932 24.9418C36.1658 24.8614 36.1331 24.7659 36.1294 24.6219L36.1294 24.6207C36.1181 24.4614 36.1071 24.3065 36.1691 24.1225C36.219 23.9729 36.1355 23.8072 35.9793 23.7385C35.9686 23.7342 35.9582 23.7297 35.9472 23.7261C35.9386 23.7228 35.929 23.7207 35.9194 23.7186L35.9178 23.7182C35.7512 23.6762 35.5824 23.759 35.5326 23.9085C35.4732 24.0856 35.3747 24.1988 35.2753 24.313L35.2608 24.3298C35.1709 24.4422 35.0871 24.4988 35.0168 24.5464C34.9356 24.6012 34.8723 24.644 34.8384 24.7466L34.775 24.9334C34.7386 25.0411 34.7771 25.1543 34.8565 25.237C34.895 25.2766 34.9403 25.3106 34.9969 25.3299C35.1736 25.3888 35.3606 25.3061 35.4137 25.1453C35.4228 25.1191 35.4521 25.1045 35.4804 25.1135C35.5087 25.1238 35.5247 25.1532 35.5156 25.1804C35.4613 25.34 35.5599 25.519 35.7352 25.5779C35.7918 25.596 35.8485 25.596 35.9018 25.5892C36.0162 25.5721 36.116 25.5043 36.152 25.3956Z" fill="black"/>
<path fill-rule="evenodd" clip-rule="evenodd" d="M41.6558 30.1426C39.2424 30.7915 36.9366 30.9784 35.3952 31.0192C35.3828 31.0101 35.3706 31.001 35.3584 30.992C35.3463 30.9829 35.3341 30.9739 35.3216 30.9648C35.692 30.8889 36.0396 30.7394 36.342 30.4971C36.7565 30.1652 37.1953 29.8763 37.6007 29.6094L37.6008 29.6093C37.9452 29.3826 38.2655 29.1717 38.5266 28.9636C39.0974 28.5106 39.6263 27.1437 39.6263 27.1437C40.5833 26.7768 41.2333 25.4778 41.2333 25.4778C41.2333 25.4778 41.0827 25.1901 41.0691 24.8402C41.0603 24.631 41.2507 24.3361 41.5259 23.9097C41.7126 23.6204 41.9384 23.2706 42.1677 22.8458C42.735 21.796 42.8596 20.3577 41.9219 18.7778C40.9887 17.2059 38.4145 16.3962 38.3919 16.3894L38.391 16.3891C38.3332 16.3687 35.8159 15.4803 34.1359 16.1663C32.4349 16.8605 31.667 18.0814 31.4858 19.2614C31.4125 19.7387 31.3815 20.1541 31.3558 20.4976C31.318 21.0034 31.2919 21.3533 31.1597 21.5151C30.9365 21.7858 30.6432 21.9251 30.6432 21.9251C30.6432 21.9251 30.3794 23.3532 30.9207 24.2207C30.9207 24.2207 30.5175 25.6307 30.6987 26.3362C30.7817 26.6588 30.9096 27.0191 31.047 27.4064C31.2096 27.8647 31.3856 28.3608 31.5164 28.8764C31.6138 29.2615 31.8097 29.5979 32.0668 29.8844C32.0532 29.8844 32.0393 29.8841 32.0255 29.8838C32.0116 29.8835 31.9977 29.8832 31.9841 29.8832C30.778 28.9206 29.0441 27.3747 27.5028 25.3917C24.8017 21.9172 23.9218 16.3871 23.9218 16.3871C22.7349 19.6329 22.4359 20.7745 23.4133 23.8526C24.3906 26.9308 27.3386 29.8753 27.3386 29.8753C27.2672 30.0463 27.3714 30.3612 27.3714 30.3612C27.3714 30.3612 26.9411 30.2298 25.6432 30.2275C24.8353 30.2254 24.626 30.2786 24.4872 30.3139C24.403 30.3352 24.3448 30.35 24.1947 30.3419C23.7972 30.3204 23.684 30.1562 23.684 30.1562C23.4835 30.2558 23.2955 30.4869 23.2955 30.4869C23.1064 30.5073 22.1766 30.6137 22.2751 31.5265C22.3748 32.4393 23.3283 32.3827 23.3283 32.3827C23.5005 32.5798 23.7508 32.6636 23.7508 32.6636C23.7508 32.6636 24.3136 34.1505 25.9365 34.2208C27.3465 34.282 27.8018 33.4223 27.8969 33.1958C27.9331 33.2819 27.9739 33.3702 28.0169 33.4597C28.3035 34.0452 28.7429 34.6953 29.3374 35.2842C29.9309 35.872 30.6829 36.402 31.5911 36.7078C32.9739 37.1676 34.3658 37.026 35.4565 36.684C35.8607 36.5571 36.2548 36.3929 36.6219 36.1823C36.5583 36.4892 36.4926 37.3782 37.58 38.1279C38.9162 39.0509 40.2616 38.2038 40.2616 38.2038C40.2616 38.2038 40.5119 38.2887 40.769 38.2344C40.769 38.2344 41.4961 38.855 42.1258 38.1868C42.7543 37.5186 42.0782 36.8731 41.9401 36.7429C41.9401 36.7429 41.9276 36.445 41.8279 36.2446C41.8279 36.2446 41.6399 36.3068 41.3092 36.0849C41.1842 36.0005 41.1466 35.9536 41.0921 35.8856C41.0026 35.7738 40.8676 35.6053 40.2231 35.12C39.1858 34.3397 38.7633 34.1834 38.7633 34.1834C38.7633 34.1834 39.0363 33.9954 39.0827 33.8165C39.0827 33.8165 43.2107 33.2468 45.8473 31.3816C48.4825 29.5152 48.9334 28.4234 49.9435 25.1188C49.9435 25.1188 45.9061 28.9988 41.6558 30.1426ZM31.3148 23.2603C31.3023 23.1618 31.299 23.044 31.299 22.9274C31.299 22.6363 31.3284 22.3475 31.3284 22.3475C31.3284 22.3475 31.7191 22.0961 31.9184 21.728C32.12 21.3611 32.2854 20.6352 32.2854 20.6352C33.0385 20.5502 33.7429 19.7484 33.7861 19.6986C33.5991 19.8786 33.3545 20.0134 33.1008 20.1176C32.6319 20.3135 32.1302 20.3849 32.1302 20.3849C32.1375 20.3116 32.1428 20.2144 32.1489 20.1023L32.1489 20.1021L32.1489 20.1018C32.1654 19.7982 32.1878 19.385 32.2729 19.0395C32.3828 18.5944 33.1257 16.651 35.7373 16.6397C36.0079 16.6397 36.2979 16.6589 36.6093 16.7031C36.7214 16.7223 36.8301 16.7439 36.9355 16.7654C36.9383 16.7659 36.9408 16.7665 36.9434 16.7671C36.9459 16.7676 36.9485 16.7682 36.9513 16.7688C37.5459 16.8922 38.0227 17.036 38.1472 17.0757C38.1535 17.078 38.1594 17.0799 38.1654 17.0819C38.1713 17.0839 38.1773 17.0859 38.1835 17.0881C38.2446 17.1074 38.3284 17.1346 38.4293 17.1719C38.4513 17.1807 38.4746 17.1895 38.4992 17.1988L38.521 17.2071C38.5629 17.2229 38.607 17.2399 38.6535 17.2592C38.7146 17.2829 38.7792 17.3101 38.8471 17.3407L38.8781 17.3548C38.9355 17.3811 38.9953 17.4084 39.0568 17.4381L39.188 17.4936C42.564 19.1176 41.82 21.6827 41.6263 22.1731C41.499 22.4927 41.2804 22.8093 41.1117 23.0538C41.0479 23.1463 40.9911 23.2285 40.9492 23.2966C40.7701 23.1006 40.529 22.8085 40.3477 22.4812C40.2288 22.2682 40.1371 22.0417 40.102 21.8152C40.102 21.8152 40.1676 22.9319 40.7339 23.4687C40.7339 23.4687 40.4293 24.1493 40.3658 24.5627C40.3035 24.9772 40.4644 25.4132 40.4644 25.4132C40.4644 25.4132 40.4236 25.4789 40.3647 25.5695C40.3635 25.5718 40.3621 25.5739 40.3606 25.5759C40.3593 25.5778 40.3579 25.5798 40.3568 25.582C40.2231 25.8198 40.0432 26.0746 39.8222 26.24C39.8047 26.2532 39.7877 26.2662 39.7711 26.2789C39.5465 26.4514 39.3928 26.5693 38.7305 26.4132C38.4519 26.3464 38.1699 26.2864 37.8856 26.2513C37.5221 26.2049 37.0408 26.1924 36.7758 26.4982C36.7751 26.4996 36.7744 26.5001 36.7734 26.5008C36.7731 26.5011 36.7727 26.5014 36.7723 26.5018L36.7717 26.5022L36.7712 26.5027C36.7361 26.5446 36.7033 26.591 36.6806 26.6454C36.6806 26.6454 36.8811 26.5038 37.2402 26.5208C37.2402 26.5208 37.2394 26.5216 37.2387 26.5225C37.2382 26.5231 37.2378 26.5238 37.2378 26.5242L37.2402 26.5231C37.2299 26.5503 37.1484 26.7734 37.127 26.9693C37.1169 27.066 37.0774 27.2803 37.0618 27.3646L37.0592 27.379L37.0569 27.3916C37.056 27.3965 37.0555 27.3993 37.0555 27.3996C36.9502 27.7666 36.5968 27.9682 36.5652 27.9478C36.5278 27.924 36.4791 27.8345 36.6376 27.3272C36.6376 27.3023 36.7191 27.2728 36.7373 27.2739C36.7537 27.2711 36.7701 27.2686 36.7865 27.266C36.803 27.2635 36.8194 27.2609 36.8358 27.2581C36.8358 27.2581 36.8267 27.2388 36.7928 27.1913C36.7813 27.1719 36.7555 27.1587 36.7334 27.1474C36.7271 27.1441 36.721 27.1411 36.7157 27.138C36.6997 27.1293 36.6448 27.1044 36.6026 27.0852C36.5735 27.072 36.5504 27.0615 36.5504 27.061C36.4803 27.0305 36.4202 27.0067 36.4202 27.0067C36.4213 27.0191 36.4213 27.0361 36.4179 27.0542C36.4137 27.0872 36.3994 27.1391 36.3959 27.1519L36.3954 27.1539C36.3941 27.1664 36.393 27.1754 36.3908 27.1788C36.387 27.1938 36.383 27.2089 36.3789 27.2239C36.3745 27.2406 36.37 27.2573 36.3658 27.2739C36.3342 27.3895 36.3059 27.4835 36.2695 27.5967C36.2684 27.5978 36.2661 27.6012 36.265 27.6046C36.2288 27.7122 36.12 27.6771 36.12 27.6771C36.1189 27.6771 36.1077 27.6726 36.1077 27.6726C36.0283 27.6329 35.9411 27.591 35.8505 27.548C35.8505 27.548 35.7486 27.4948 35.7644 27.3895C35.7633 27.3872 35.7644 27.3849 35.7656 27.3815C35.7657 27.381 35.7658 27.3804 35.7659 27.3799L35.766 27.3787C35.7661 27.3781 35.7662 27.3774 35.7662 27.3767C35.7664 27.3744 35.7665 27.3723 35.768 27.3702C35.7694 27.3662 35.7707 27.3617 35.7719 27.3573C35.7735 27.3518 35.775 27.3463 35.7769 27.3419C35.8052 27.24 35.8652 27.0214 35.8732 26.9704C35.8834 26.9104 35.923 26.8006 35.9479 26.7575C35.946 26.7556 35.9438 26.7533 35.9413 26.7508L35.9411 26.7507C35.9212 26.7303 35.8836 26.692 35.8505 26.676C35.8188 26.6601 35.7848 26.6533 35.7384 26.6567C35.7214 26.6714 35.6931 26.7156 35.692 26.7394C35.6908 26.753 35.6547 26.8662 35.6149 26.9908C35.5885 27.0727 35.5595 27.16 35.5368 27.228L35.5368 27.2281C35.5247 27.2645 35.5145 27.2953 35.5074 27.317C35.4848 27.3849 35.436 27.3996 35.3964 27.3996C35.3635 27.3996 35.3375 27.3895 35.3375 27.3895C35.282 27.3672 35.2124 27.3416 35.1465 27.3174C35.1185 27.3071 35.0911 27.297 35.0657 27.2875C35.0629 27.287 35.0604 27.2859 35.0579 27.2847C35.0553 27.2836 35.0527 27.2824 35.0498 27.2819C34.9479 27.2434 34.9547 27.1562 34.9615 27.1211C34.9751 27.0806 34.9899 27.0367 35.0051 26.9916C35.0393 26.8905 35.0756 26.783 35.1053 26.693C35.1095 26.6788 35.1142 26.6647 35.1189 26.6505C35.1244 26.6339 35.1299 26.6172 35.1348 26.6001C35.1348 26.5998 35.1349 26.5994 35.135 26.599C35.1352 26.5986 35.1355 26.5982 35.1358 26.5977C35.136 26.5973 35.1363 26.5969 35.1366 26.5964L35.137 26.5956C35.1404 26.582 35.1789 26.4846 35.2378 26.4551C35.1993 26.4257 35.1223 26.3951 35.0647 26.3747C34.9955 26.3521 34.872 26.3306 34.8652 26.3294C34.8856 26.3736 34.8903 26.4506 34.8799 26.4891C34.8753 26.5052 34.8586 26.5633 34.8378 26.6359L34.8367 26.6397C34.7915 26.7973 34.7275 27.0204 34.7237 27.0327C34.7169 27.0508 34.6931 27.1075 34.6557 27.1211C34.6195 27.1346 34.5175 27.1018 34.5175 27.1018C34.5154 27.1014 34.5134 27.1011 34.5116 27.1007C34.5096 27.1003 34.5078 27.0999 34.506 27.0995L34.503 27.0989L34.5006 27.0984C34.4536 27.0842 34.3958 27.072 34.3398 27.0602C34.2932 27.0503 34.2477 27.0407 34.2107 27.0305C34.2107 27.0305 34.077 26.9919 34.1189 26.8696C34.1189 26.8696 34.2061 26.5503 34.2491 26.3985C34.2491 26.3951 34.2503 26.3895 34.2514 26.3849L34.2515 26.3846C34.2552 26.3724 34.2741 26.3092 34.2809 26.2139C34.2876 26.1176 34.2231 26.095 34.1755 26.095C34.1303 26.095 34.0804 26.1765 34.0692 26.2241C34.0566 26.2751 34.0283 26.36 34.0283 26.36L34.0249 26.3679V26.3691C34.0215 26.3759 34.0181 26.3838 34.0158 26.3906C33.9694 26.514 33.9332 26.616 33.8913 26.7394C33.8472 26.856 33.7169 26.8323 33.7169 26.8323C33.6195 26.8119 33.5255 26.7926 33.4383 26.7768C33.4371 26.7768 33.4258 26.7734 33.4258 26.7722C33.4258 26.7722 33.3171 26.7349 33.3533 26.6273C33.3533 26.6239 33.3533 26.6205 33.3556 26.6171C33.3942 26.505 33.4269 26.4144 33.4722 26.3022L33.4732 26.3C33.4868 26.2678 33.5306 26.1642 33.556 26.1233C33.5832 26.0814 33.6195 26.0588 33.6195 26.0588C33.6207 26.0338 33.5832 25.9874 33.5153 25.9636C33.5075 25.9614 33.4983 25.9591 33.4881 25.9568C33.4666 25.9512 33.4439 25.9478 33.4213 25.9455C33.3556 25.9376 33.2514 25.9308 33.2299 26.0123C33.2294 26.0137 33.229 26.0148 33.2286 26.0157C33.228 26.0172 33.2276 26.018 33.2276 26.018C33.2378 26.0531 33.2457 26.0961 33.2412 26.1199C33.2355 26.146 33.2265 26.1697 33.222 26.1811C33.0442 26.6805 32.9502 26.7235 32.906 26.7201C32.8686 26.7179 32.7089 26.3419 32.846 25.9863C32.8471 25.984 32.8482 25.9817 32.8482 25.9795C32.9184 25.8209 32.9853 25.7054 33.0475 25.6012C33.1574 25.42 33.2276 25.1743 33.2276 25.1743L33.2299 25.1788V25.1754C33.3216 25.2377 33.3998 25.3136 33.4722 25.3962C33.4746 25.3985 33.4756 25.3996 33.4756 25.4008C33.4904 25.4252 33.5089 25.4472 33.5274 25.4692C33.5501 25.4961 33.5728 25.523 33.5889 25.5548C33.5968 25.5718 33.6025 25.5876 33.6025 25.6001C33.6274 25.505 33.624 25.3894 33.5879 25.2966C33.5863 25.2943 33.5857 25.292 33.5852 25.2897L33.5849 25.2882L33.5846 25.2871L33.5844 25.2864C33.4496 24.9183 33.1008 24.702 32.7769 24.5185C32.5606 24.3962 32.3352 24.2898 32.1076 24.1901C31.4874 23.9174 31.435 23.7299 31.3588 23.4574L31.3588 23.4572C31.353 23.4366 31.3471 23.4156 31.3409 23.394C31.3307 23.3555 31.3216 23.3102 31.3148 23.2603ZM32.0011 27.9149C32.0124 27.9489 32.0249 27.992 32.0385 28.0407C32.0442 28.0618 32.0501 28.0842 32.0564 28.1077C32.152 28.4671 32.3145 29.0782 32.6217 29.4099C32.9933 29.8096 33.3522 29.9897 33.795 30.1392L33.7952 30.1392L33.7956 30.1392C33.7959 30.1393 33.7963 30.1393 33.7967 30.1394C33.7973 30.1396 33.7979 30.1399 33.7984 30.1403C33.8007 30.1403 33.8018 30.1415 33.8029 30.1415C34.0238 30.2162 34.2333 30.2706 34.4553 30.2955C34.6761 30.3204 34.9094 30.3147 35.1779 30.2672C35.6212 30.1885 36.1167 29.8027 36.4104 29.5741C36.476 29.523 36.5316 29.4797 36.5742 29.4495C36.6946 29.3641 36.9886 29.1674 37.2723 28.9776C37.5381 28.7997 37.7949 28.6278 37.8914 28.5593L37.8936 28.5578C38.093 28.4169 38.2602 28.2987 38.4655 27.9523C38.6716 27.6035 39.0193 26.7938 39.0193 26.7938C39.0193 26.7938 38.6852 26.7281 38.5742 26.7145C38.5742 26.7145 38.5731 26.7179 38.5697 26.7235L38.5624 26.7363C38.4894 26.8643 38.1156 27.5197 37.9763 27.6613C37.9763 27.6613 37.9717 27.6613 37.9649 27.6635C37.9128 27.6726 37.7056 27.7134 37.6025 27.7904C37.5717 27.813 37.5199 27.8728 37.4503 27.9531C37.2515 28.1826 36.9073 28.58 36.4904 28.7587C36.5436 28.4416 36.3387 28.2773 36.2854 28.283C36.2366 28.2883 36.1978 28.398 36.1837 28.4379L36.1812 28.445C36.1771 28.4564 36.1602 28.4918 36.1387 28.537C36.1007 28.6167 36.048 28.7272 36.0249 28.7915C35.9875 28.8923 35.999 28.9002 35.999 28.9002C35.9083 28.8968 35.8177 28.8923 35.7282 28.8855C35.8143 28.7224 35.8913 28.5605 35.9638 28.3997C36.0159 28.2649 35.8732 28.2354 35.8732 28.2354L35.872 28.2343C35.7916 28.2219 35.7113 28.2094 35.6309 28.1935H35.6229C35.5221 28.1754 35.461 28.2388 35.4485 28.2773L35.4449 28.2861L35.4418 28.2937L35.4346 28.3118C35.4291 28.3257 35.4235 28.3396 35.4179 28.3532C35.3904 28.4182 35.3617 28.4838 35.3331 28.5491C35.3228 28.5725 35.3126 28.596 35.3024 28.6194C35.3012 28.625 35.3001 28.6307 35.2967 28.6352C35.2514 28.7473 35.2899 28.8413 35.2899 28.8413C35.2872 28.8411 35.2842 28.841 35.2807 28.8408C35.2767 28.8406 35.2721 28.8405 35.2671 28.8403C35.2284 28.8389 35.16 28.8365 35.0578 28.8164C34.9989 28.804 34.9196 28.7689 34.9196 28.7689C34.9638 28.7326 34.9909 28.6635 34.9909 28.6635C35.0713 28.4676 35.1948 28.1641 35.1948 28.1641C35.1948 28.1641 35.2435 28.0327 35.1585 28.0078C35.043 27.9795 34.9286 27.9478 34.8143 27.9138C34.7271 27.8946 34.6897 27.9659 34.6806 27.9897C34.6739 28.0065 34.6655 28.0269 34.6569 28.0475C34.6425 28.0825 34.6277 28.1181 34.6206 28.138C34.5918 28.2201 34.5634 28.3016 34.5353 28.3827L34.4904 28.5118C34.4904 28.514 34.4904 28.5152 34.4892 28.5174C34.4621 28.5967 34.4836 28.6726 34.4836 28.6726C34.4836 28.6726 34.3726 28.6499 34.3148 28.6341C34.2559 28.6194 34.1676 28.5571 34.1676 28.5571C34.181 28.5448 34.1961 28.5102 34.2081 28.4827L34.2118 28.4744C34.2574 28.3117 34.3022 28.1133 34.3423 27.9356C34.348 27.9105 34.3535 27.8858 34.359 27.8617C34.3624 27.8345 34.3635 27.7541 34.2809 27.7201C34.1835 27.6839 34.0861 27.6465 33.9909 27.6069C33.906 27.5809 33.8686 27.6511 33.855 27.6918C33.8165 27.8674 33.7724 28.078 33.7429 28.2309C33.7305 28.3374 33.7792 28.4121 33.7792 28.4121C33.7392 28.4031 33.6637 28.3711 33.5966 28.3426C33.5878 28.3389 33.5792 28.3352 33.5708 28.3317C33.5221 28.3113 33.4167 28.2411 33.4167 28.2411C33.4711 28.2366 33.5017 28.1211 33.5017 28.1211C33.5509 28.0181 33.5871 27.9265 33.6248 27.8314L33.6412 27.7899L33.65 27.7677C33.6506 27.7649 33.6517 27.7623 33.6529 27.7598C33.654 27.7572 33.6551 27.7547 33.6557 27.7519C33.6563 27.75 33.657 27.7484 33.6578 27.7464L33.6581 27.7457C33.6587 27.7443 33.6594 27.7427 33.6602 27.7405C33.7067 27.6148 33.6195 27.548 33.6047 27.5378C33.5222 27.4965 33.4329 27.4505 33.3804 27.4233L33.3801 27.4232C33.3668 27.4163 33.3559 27.4107 33.348 27.4067L33.3393 27.4022C33.336 27.4005 33.3342 27.3996 33.3341 27.3996C33.2616 27.3611 33.214 27.4121 33.1982 27.4619C33.1808 27.5114 33.1599 27.5594 33.1389 27.6075C33.0999 27.6971 33.0607 27.7872 33.043 27.8889C33.0306 27.9772 33.0374 28.0384 33.0374 28.0384C32.8652 27.9568 32.8018 27.8266 32.8018 27.8266C32.8426 27.7779 32.8981 27.6035 32.8992 27.4416L32.8993 27.4297L32.8994 27.416L32.8997 27.3941C32.9015 27.2497 32.9031 27.1214 32.8346 27.0724C32.7588 27.0191 32.6319 27.155 32.5662 27.2524C32.5017 27.3487 32.487 27.4053 32.487 27.4053V27.4178C32.2599 27.0226 32.2252 26.495 32.2052 26.1916C32.1983 26.0863 32.1931 26.008 32.1823 25.9716C32.1404 25.83 31.9615 25.642 31.9615 25.642C31.9581 25.6148 31.9569 25.5774 31.9569 25.5321C31.9614 25.2432 32.0394 24.6513 32.0535 24.5444L32.0543 24.5378C32.0555 24.531 32.0555 24.5276 32.0555 24.5276C31.9603 24.471 31.6523 24.3226 31.6523 24.3226C31.6523 24.3226 31.6512 24.326 31.65 24.3317C31.6262 24.4279 31.4394 25.2037 31.3963 25.5808C31.3907 25.6307 31.3873 25.6771 31.385 25.7213C31.3669 26.0304 31.4213 26.206 31.4881 26.411C31.5227 26.5192 31.6171 26.792 31.7169 27.0807L31.7169 27.0808L31.717 27.081C31.8324 27.4146 31.955 27.7692 32.0011 27.9149ZM47.3466 29.2003C47.8743 28.6147 48.3557 27.9171 48.6161 27.1674L48.6354 27.1085L48.6365 27.1051C48.632 27.1142 48.4927 27.2297 48.2673 27.412C48.1711 27.4913 48.0646 27.5774 47.9446 27.6725C46.6331 28.7087 43.8958 30.5717 39.4394 31.3735C38.359 31.5672 37.2582 31.6737 36.1857 31.7212C36.3625 31.9036 36.5243 32.0893 36.6715 32.2784C36.6715 32.2784 37.1404 32.2434 37.205 32.2376C38.0136 32.1697 38.8222 32.0723 39.6217 31.9273C41.5991 31.5706 43.094 31.0655 43.803 30.7982C43.9694 30.7325 44.128 30.6657 44.2831 30.5978L44.2617 30.6159C44.2617 30.6159 41.3579 32.3441 36.949 32.6601C37.0894 32.8696 37.214 33.0768 37.3193 33.2807C38.6908 33.2037 40.0793 33.0123 41.3918 32.6487C42.231 32.4154 43.0566 32.121 43.8449 31.7484C44.6376 31.3747 45.4157 30.9262 46.0997 30.3747C46.5448 30.0145 46.9627 29.6272 47.3466 29.2003ZM38.7882 34.9625C38.9819 35.0735 39.1721 35.189 39.359 35.309C39.4938 35.3951 39.6263 35.4834 39.7554 35.5763C39.7629 35.5822 39.7708 35.5879 39.7786 35.5936C39.7872 35.5998 39.7958 35.6061 39.8041 35.6126C39.9309 35.753 40.06 35.9342 40.1189 36.1018C40.1892 36.2943 40.1948 36.4732 40.1687 36.6046C40.1564 36.6703 40.1382 36.7269 40.1121 36.7609C40.0715 36.8119 40.0124 36.8402 39.9615 36.8572C39.6002 36.6103 39.0522 36.2852 38.4734 36.0248C38.5085 35.9353 38.5504 35.8243 38.5992 35.6873C38.6297 35.5989 38.6523 35.4494 38.6523 35.4494C38.6761 35.1596 38.556 34.9206 38.4564 34.7756C38.4593 34.7772 38.4622 34.7788 38.465 34.7804C38.4695 34.7828 38.474 34.7853 38.4785 34.7877C38.4894 34.7935 38.5004 34.7995 38.5119 34.8062L38.5621 34.8343L38.5624 34.8345C38.6381 34.8769 38.7131 34.9189 38.7882 34.9625ZM40.4315 36.1459C40.3465 36.0621 40.1597 35.89 40.0736 35.8243L39.8324 35.6329C39.8811 35.6827 40.2186 36.0463 40.2956 36.2513C40.3454 36.3736 40.3737 36.5265 40.3658 36.659C40.3635 36.6963 40.3579 36.7292 40.3511 36.7598C40.3511 36.7598 40.3522 36.762 40.3533 36.762C40.3528 36.762 40.3522 36.7617 40.3516 36.7615L40.351 36.7611C40.3506 36.761 40.3503 36.7609 40.3499 36.7609C40.3386 36.8153 40.3216 36.8628 40.299 36.8923C40.2571 36.9433 40.1914 36.9717 40.1416 36.9863C40.1421 36.9863 40.1426 36.9865 40.1431 36.9869C40.1435 36.9871 40.1439 36.9875 40.1443 36.9879L40.145 36.9885C40.1485 36.9913 40.152 36.9941 40.1556 36.9969L40.1656 37.0047C40.1739 37.0111 40.1822 37.0176 40.1905 37.024C40.2515 37.071 40.3119 37.1176 40.3635 37.1765C39.7123 37.7971 38.8414 37.7983 38.3386 37.5514C37.8482 37.3114 37.7033 37.0146 37.7656 36.6057C37.633 36.5774 37.5051 36.4948 37.4564 36.2909C37.4581 36.2922 37.46 36.2933 37.462 36.2945C37.4651 36.2964 37.4684 36.2983 37.4712 36.3011C37.5845 36.3928 37.7689 36.4257 37.8833 36.3169C37.9864 36.2196 38.0668 36.0587 38.1393 35.8855C38.1623 35.8299 38.1842 35.7738 38.2061 35.7177C38.2467 35.6136 38.2874 35.5095 38.3352 35.4087C38.3646 35.3453 38.385 35.2762 38.3964 35.2082C38.4293 35.0146 38.3884 34.8084 38.2933 34.6374C38.1902 34.4528 38.1359 34.1992 38.2242 33.9364C38.3021 33.7087 38.4254 33.6037 38.4844 33.5534C38.4883 33.5501 38.492 33.547 38.4953 33.5442C38.4976 33.5422 38.4998 33.5402 38.5018 33.5384C38.5034 33.537 38.5048 33.5357 38.5062 33.5344C38.5504 33.4947 38.5481 33.454 38.5243 33.4234C38.4847 33.3736 38.419 33.4223 38.419 33.4223C38.034 33.7371 37.9468 34.3305 37.9434 34.4936C37.942 34.5928 37.766 35.02 37.6073 35.405C37.5051 35.653 37.4101 35.8835 37.3737 35.9976C37.3692 36.009 37.2888 36.2592 37.2695 36.4098C37.2412 36.642 37.2503 37.3521 38.3998 37.7598C39.4531 38.1325 40.333 37.4336 40.4745 37.3124C40.7701 37.3339 40.9853 37.1799 41.0895 37.0769C41.1325 37.035 41.1586 37.0021 41.1642 36.9942C41.0521 37.3668 40.8143 37.4585 40.6693 37.4789C40.6229 37.4857 40.5844 37.4857 40.564 37.4834C40.5664 37.4907 40.5677 37.4963 40.569 37.5022C40.5696 37.5046 40.5701 37.507 40.5708 37.5096C40.5878 37.5718 40.5844 37.6091 40.5844 37.6091C40.5844 37.6091 40.6183 37.6261 40.6772 37.6295C40.761 37.6341 40.8947 37.6137 41.0669 37.4823C41.0948 37.46 41.117 37.4367 41.1393 37.4133L41.1404 37.4121C41.0736 37.5536 41.1257 37.7235 41.2651 37.7994C41.41 37.8777 41.5912 37.8243 41.6693 37.6795C41.7486 37.5355 41.6942 37.3532 41.5493 37.2751C41.4428 37.2173 41.3172 37.232 41.2276 37.3C41.3148 37.1561 41.325 37.0078 41.3194 36.915C41.3194 36.8991 41.3092 36.8277 41.308 36.8277L41.3092 36.8266C41.2514 36.8119 41.1971 36.7915 41.145 36.7666C41.0872 36.7382 41.0328 36.702 40.9785 36.6612C40.906 36.608 40.6943 36.4075 40.6422 36.3555C40.6013 36.3139 40.5596 36.2728 40.5179 36.2316C40.4891 36.2031 40.4602 36.1746 40.4315 36.1459ZM37.1132 34.8243C37.1132 34.8243 37.1098 34.8662 37.0928 34.9172C36.855 35.6261 34.2208 36.933 31.7836 36.1154C29.3487 35.2977 28.0588 32.5933 28.2717 31.9568C28.2864 31.9149 28.3 31.8945 28.3 31.8945C28.3021 31.8931 28.3034 31.8899 28.3046 31.8869C28.3053 31.8851 28.306 31.8833 28.3068 31.882C28.3238 31.8515 28.3442 31.8231 28.3668 31.796C28.9014 31.1199 31.3363 30.0066 33.5809 30.7597C35.4394 31.3837 36.6444 33.0621 37.0068 34.138C37.0996 34.4177 37.137 34.6567 37.1132 34.8243ZM27.5701 32.0437C27.6764 31.6391 27.795 31.1877 27.8538 31.1074C27.9489 30.976 28.2377 30.4505 28.1211 29.967C28.1211 29.967 28.0973 29.8877 28.035 29.9035C27.9988 29.9137 27.9727 29.9443 27.9829 30.0032C27.9842 30.0104 27.9862 30.0193 27.9887 30.03C28.0057 30.1049 28.0422 30.2645 27.9648 30.4936C27.8776 30.7575 27.6817 30.9262 27.488 31.0111C27.2944 31.0961 27.0565 31.2875 26.9897 31.6012C26.97 31.6948 26.941 31.7974 26.9113 31.9024C26.8418 32.1481 26.7684 32.4074 26.8017 32.5978C26.8187 32.702 26.9218 32.8447 27.1585 32.8356C26.9965 32.9692 26.8448 32.9591 26.7202 32.9024C26.5243 33.2637 26.2298 33.4121 25.693 33.3079C25.1449 33.2025 24.4495 32.6759 24.3057 31.7869C24.3057 31.7695 24.5494 31.7699 24.5904 31.7699L24.5979 31.7699C24.5661 31.728 24.531 31.6657 24.5288 31.6C24.5276 31.5627 24.5435 31.5151 24.5673 31.4641C24.5714 31.4583 24.5852 31.4332 24.5941 31.417L24.5942 31.4169C24.5974 31.411 24.6 31.4062 24.6012 31.4041C24.6669 31.2807 24.7938 31.164 24.9138 31.0938C24.915 31.0927 24.9161 31.0915 24.9172 31.0915C25.1267 30.9658 25.4552 30.89 25.6635 30.8786C25.6692 30.8775 25.5899 30.8752 25.5503 30.8764C25.2921 30.8775 25.035 30.9024 24.7791 30.9387C24.7394 30.9442 24.7001 30.95 24.661 30.9557C24.4768 30.9826 24.2987 31.0087 24.1267 31.0077C24.0599 31.0066 23.9954 31.0021 23.9331 30.9908C23.8753 30.9794 23.8176 30.9624 23.7609 30.9387C23.7609 30.9387 23.5446 31.1119 23.5356 31.4086C23.5129 31.2863 23.4144 31.1867 23.2853 31.1674C23.1211 31.1425 22.967 31.2546 22.9421 31.42C22.9172 31.5842 23.0316 31.7382 23.1958 31.7631C23.3589 31.788 23.5129 31.6748 23.5378 31.5106C23.539 31.506 23.539 31.5026 23.539 31.4981C23.5435 31.5332 23.5503 31.5706 23.5605 31.608C23.5888 31.7133 23.6273 31.7869 23.6681 31.8435C23.7632 31.9794 23.8685 31.9998 23.8685 31.9998C23.8696 31.9998 23.8832 31.9806 23.8844 31.9783C23.8912 31.9704 23.9478 31.9115 23.9591 31.9115C23.8889 31.865 23.599 31.6419 23.7756 31.1584C23.7756 31.1584 23.7655 31.5978 24.129 31.8311C24.1686 32.0123 24.454 33.0995 25.5197 33.437C26.6828 33.8073 27.1301 33.2524 27.2355 33.0429C27.2819 32.9477 27.4008 32.651 27.4008 32.651C27.44 32.5388 27.5025 32.3007 27.5701 32.0437ZM25.9614 30.8866C26.103 30.8934 26.2434 30.9035 26.3838 30.916C26.6658 30.9409 26.9942 30.9783 27.2751 31.0236C27.1064 31.0791 26.8753 31.1889 26.719 31.4358C26.6771 31.5026 26.6386 31.5763 26.6103 31.6646C26.5662 31.8028 26.5322 31.9171 26.5073 32.01C25.8549 31.8311 24.8187 31.7756 24.8187 31.7756C24.7892 31.7314 24.7587 31.6737 24.7564 31.608C24.7553 31.5661 24.7757 31.5094 24.8051 31.4483C24.864 31.3294 24.975 31.1901 25.1483 31.078C25.2966 30.9794 25.5095 30.9137 25.6941 30.8775C25.7836 30.8798 25.8731 30.882 25.9614 30.8866ZM24.5129 24.7755C24.8583 25.5343 25.2853 26.2535 25.7621 26.9364C26.3476 27.7778 27.0169 28.5615 27.7417 29.2863C28.052 29.5978 28.3736 29.899 28.7032 30.1912C28.7124 30.1991 28.7361 30.2218 28.7677 30.252C28.877 30.3565 29.0809 30.5514 29.1064 30.54C29.3125 30.4415 29.5367 30.3509 29.7757 30.2671C26.4835 27.3962 25.2003 24.3021 25.1607 24.2059L25.1698 24.2217C25.2105 24.2965 25.2513 24.3712 25.2955 24.4471C25.3301 24.5039 25.3685 24.5687 25.4113 24.641C25.4692 24.7388 25.5353 24.8505 25.6114 24.9749C26.2457 25.9896 27.0871 27.0813 28.2162 28.2172C28.2196 28.2206 29.6217 29.6034 30.2196 30.13C30.4518 30.0666 30.6942 30.0145 30.9456 29.9738C30.1132 29.2852 29.2921 28.5309 28.5413 27.7189C24.9412 23.8178 24.1059 20.1771 23.8223 18.9408C23.8072 18.875 23.7936 18.816 23.7813 18.7642L23.7587 18.8287C23.6126 19.2602 23.5571 19.7313 23.5333 20.1843C23.4925 20.951 23.565 21.7223 23.727 22.4709C23.8991 23.2682 24.1743 24.0349 24.5129 24.7755Z" fill="black"/>
<path fill-rule="evenodd" clip-rule="evenodd" d="M28.7075 31.7263C29.3145 31.7316 30.0655 31.7928 30.8925 31.9403C30.9537 31.8517 31.0174 31.7657 31.0836 31.6827C30.0705 31.5621 29.2105 31.6146 28.7075 31.7263" fill="#0A0B09"/>
<path fill-rule="evenodd" clip-rule="evenodd" d="M35.0025 33.0051C35.0049 33.1103 35.0035 33.2162 34.9988 33.3227C35.7249 33.6926 36.3432 34.082 36.8187 34.4328C36.4943 34.0462 35.8578 33.5065 35.0025 33.0051" fill="#0A0B09"/>
<path fill-rule="evenodd" clip-rule="evenodd" d="M36.8435 35.0607C35.9413 35.6293 33.9278 36.1554 31.9887 35.505C30.0855 34.8659 28.821 33.2391 28.416 32.2486C28.3685 32.1457 28.3562 31.8682 28.6342 31.7395C28.6342 31.7395 28.4586 31.7645 28.3004 31.8943C28.3004 31.8943 28.2864 31.9148 28.2722 31.9573C28.0591 32.5927 29.3488 35.2977 31.784 36.1152C34.2205 36.933 36.8556 35.6261 37.0934 34.9177C37.1097 34.8661 37.113 34.8247 37.113 34.8247C37.0577 34.6513 36.952 34.5433 36.952 34.5433C37.0874 34.7989 36.9485 34.9863 36.8435 35.0607" fill="#C2242B"/>
<path fill-rule="evenodd" clip-rule="evenodd" d="M34.9988 33.3227C34.9974 33.3532 34.9958 33.384 34.9941 33.4147C34.9139 33.3741 34.8328 33.3335 34.7503 33.2934C34.7198 33.4779 34.6749 33.66 34.6134 33.8386C34.4915 33.7679 34.3669 33.6999 34.2416 33.6347C34.2967 33.4636 34.34 33.2904 34.3729 33.1161C34.2387 33.0552 34.1016 32.9954 33.9617 32.9369C33.9248 33.1024 33.8805 33.2677 33.8288 33.4324C33.7003 33.3731 33.5706 33.3161 33.4401 33.2626C33.491 33.1025 33.5373 32.9425 33.5793 32.7833C33.4424 32.7305 33.3032 32.6792 33.1617 32.6296C33.1135 32.7842 33.0635 32.9403 33.0118 33.0974C32.8787 33.0496 32.7455 33.0047 32.6107 32.9629C32.6641 32.8064 32.7183 32.6518 32.7732 32.4994C32.6305 32.454 32.4884 32.4113 32.3472 32.3711C32.2848 32.5232 32.2251 32.6783 32.1694 32.8365C32.0334 32.8001 31.8953 32.7673 31.7574 32.7369C31.8148 32.5753 31.8791 32.4178 31.9489 32.2641C31.8018 32.2268 31.6559 32.1922 31.5119 32.1604C31.4337 32.3182 31.3645 32.4813 31.3059 32.6498C31.1666 32.6257 31.0261 32.6053 30.8858 32.5879C30.9438 32.4104 31.0172 32.2398 31.1029 32.076C31.0123 32.0587 30.9225 32.0424 30.8338 32.027C30.8531 31.9979 30.8727 31.969 30.8925 31.9403C30.0655 31.7928 29.3146 31.7316 28.7076 31.7263C29.2105 31.6146 30.0705 31.5621 31.0837 31.6827C31.0914 31.6729 31.0988 31.663 31.1068 31.6535C31.1837 31.6625 31.2615 31.6727 31.3401 31.6839C31.4096 31.5831 31.4837 31.4853 31.5619 31.3906C31.693 31.4075 31.8209 31.4267 31.9462 31.4478C31.875 31.5454 31.8069 31.646 31.7422 31.7492C31.8811 31.7744 32.0217 31.8032 32.164 31.8352C32.222 31.7291 32.2823 31.625 32.3446 31.5237C32.4641 31.5494 32.5818 31.577 32.6974 31.6066C32.6443 31.7116 32.5923 31.819 32.5414 31.9282C32.6738 31.9635 32.807 32.002 32.941 32.0438C32.9831 31.9316 33.0255 31.8208 33.0677 31.7121C33.1801 31.747 33.2915 31.7843 33.4021 31.8241C33.3701 31.9364 33.3371 32.0501 33.3031 32.165C33.4351 32.212 33.5644 32.2614 33.6915 32.3125C33.7166 32.1953 33.7399 32.0788 33.7607 31.9637C33.8715 32.0096 33.9814 32.0583 34.0925 32.1103C34.0811 32.2276 34.0666 32.3459 34.0492 32.4643C34.1817 32.5236 34.311 32.5846 34.4369 32.6471C34.447 32.5279 34.4532 32.4086 34.4553 32.2899C34.5683 32.3486 34.6818 32.4107 34.7965 32.4761C34.8018 32.5958 34.8022 32.7154 34.7972 32.8347C34.8665 32.8725 34.9343 32.9105 35.0011 32.9489C35.0018 32.9676 35.002 32.9863 35.0025 33.0051C35.8578 33.5065 36.4942 34.0462 36.8187 34.4328C36.3432 34.082 35.7249 33.6925 34.9988 33.3227ZM33.5812 30.7597C31.3369 30.0068 28.9018 31.1193 28.3664 31.7954C28.3447 31.8229 28.3242 31.8518 28.307 31.8822C28.3052 31.8854 28.303 31.8917 28.3004 31.8941C28.4586 31.7643 28.6343 31.7393 28.6343 31.7393C28.3562 31.868 28.3686 32.1455 28.416 32.2484C28.821 33.2389 30.0856 34.8657 31.9888 35.5048C33.9279 36.1552 35.9414 35.6291 36.8435 35.0605C36.9485 34.9861 37.0875 34.7987 36.952 34.5431C36.952 34.5431 37.0578 34.6511 37.113 34.8245C37.1365 34.6561 37.0998 34.4176 37.0063 34.1384C36.6446 33.0624 35.4395 31.3832 33.5812 30.7597Z" fill="#DC4405"/>
</svg>
