<svg width="64" height="64" viewBox="0 0 64 64" fill="none" xmlns="http://www.w3.org/2000/svg">
<path fill-rule="evenodd" clip-rule="evenodd" d="M5.51776 43.5503C5.17101 43.3924 4.71539 43.2755 4.31277 42.6431C3.86061 41.93 4.02016 41.4093 4.16531 40.4237C4.31911 39.3794 4.30183 38.9567 4.00807 37.7954C3.7673 36.8416 3.63136 36.5138 3.48218 35.4073C3.39002 34.7248 3.32262 34.1505 3.31629 33.7646C3.30707 33.1909 3.35085 32.6535 3.41363 31.8551C3.44819 31.4116 3.55648 30.7821 3.93952 29.6295C4.06567 29.2516 4.40666 28.3582 4.61517 27.9337C4.9648 27.2253 5.33978 26.8745 5.16525 25.6246C5.09843 25.1442 4.91527 24.8861 4.83981 24.2416C4.75456 23.5106 4.80352 23.1673 4.94061 22.7152C5.0777 22.2653 5.24128 21.9842 5.52064 21.6386C5.68307 21.4382 5.99008 21.0488 6.69626 20.9238C6.69626 20.9238 7.15994 20.7913 7.53952 20.8956C8.49338 20.9785 8.35283 21.8206 9.77671 20.9382C10.4587 20.5575 11.6285 20.2533 12.8088 21.0805C13.3128 21.3765 13.7344 22.3822 13.1924 20.7239C12.9389 19.7384 12.6815 19.2471 12.3365 17.6959C11.9327 16.2288 12.2598 14.7318 13.4562 13.922C14.3196 13.1639 16.0718 13.5015 18.1039 13.8822C19.8872 14.2169 20.3089 13.6553 21.5231 13.7071C22.2056 13.7365 22.7851 13.7388 23.3473 13.8707C24.1226 14.0533 24.5597 14.2796 24.9883 14.5129C26.2048 15.1759 26.1345 14.521 27.8337 14.7445C28.3775 14.8159 28.5912 14.7358 29.1418 14.8948C29.7789 15.078 30.1734 15.2882 30.7362 15.616C32.3116 16.533 32.3133 16.7392 34.9375 16.6245C35.4231 16.6032 36.2888 16.9776 36.7571 17.2835C37.2778 17.6239 38.5433 18.3595 39.6613 18.4309C41.0852 18.5219 42.3052 18.3405 44.0608 19.5881C45.343 20.728 46.9362 20.6744 48.3589 21.4462C48.8163 21.6939 49.9089 22.5291 50.4458 23.3908C50.5604 23.5757 51.0287 23.8793 52.198 24.0728C53.2492 24.2462 54.351 25.4938 54.938 26.3647C55.6937 27.0611 55.2508 26.5882 56.2864 27.3099C56.787 27.659 57.0381 27.8335 57.5277 28.1993C58.1653 28.6756 57.7587 28.3283 58.5201 28.9291C58.6595 29.0385 58.845 29.2476 59.3536 29.7049C60.0143 30.213 60.3034 30.6651 60.5258 31.1081C60.9007 31.8534 60.6006 32.3787 60.2545 32.9968C59.9987 33.4512 59.5892 34.1828 58.9366 34.7985C58.212 35.4822 58.2696 35.5018 57.6083 35.8975C56.1055 36.7943 54.9829 36.4908 54.347 37.5616C53.4076 39.1433 52.6518 39.6542 51.9428 39.986C50.5137 40.6553 49.5547 40.6317 48.6481 41.343C47.9091 41.9225 46.7409 42.6684 45.9512 43.0203C44.4312 43.6971 44.244 43.2991 43.2037 43.9483C42.8506 44.1689 43.0747 44.0416 42.1865 44.7731C41.675 45.1942 40.8594 45.5513 40.4539 45.6077C39.9234 45.682 39.3376 45.7402 38.8428 45.8727C37.5946 46.2068 37.4587 46.6451 36.0832 46.9089C34.4779 47.2171 33.8143 47.0644 32.2822 47.7948C31.8824 47.9855 31.4458 48.1761 30.8606 48.4935C30.3791 48.7556 28.8988 49.1133 27.7554 49.1703C27.2572 49.1956 26.7894 48.8673 25.5839 49.4416C24.0275 50.1829 24.0056 50.1074 22.7718 50.3574C22.3231 50.4484 21.8186 50.3983 21.3491 50.3966C20.4523 50.3943 19.518 50.0844 18.5596 50.1138C17.5769 50.1449 17.805 50.0844 16.9871 50.1771L16.4076 50.2716L15.5534 50.4617C15.5534 50.4957 15.2429 50.5101 15.2429 50.544C14.4596 50.7157 13.9913 50.6454 13.5328 50.5556C12.7627 50.4029 11.9091 49.9433 11.5992 49.5216C11.09 48.914 11.0203 48.3293 11.0796 47.5321C11.367 46.1428 11.9563 44.1648 12.2299 43.4592C12.2299 43.4592 12.6815 42.4334 11.5888 43.0082C10.4817 43.416 9.61658 42.7024 8.94496 42.9311C8.28256 43.264 7.87303 43.5681 7.04474 43.6891C6.18477 43.8141 5.51776 43.5503 5.51776 43.5503" fill="white"/>
<path fill-rule="evenodd" clip-rule="evenodd" d="M17.8517 48.9841V48.9841C18.8448 48.8724 19.0821 48.9403 19.972 49.0567C20.7992 49.165 21.5906 49.3245 22.4102 49.2312C22.8209 49.1846 23.2264 49.1062 23.6285 48.9778C24.7776 48.6103 25.311 48.1115 26.6957 47.9231C27.8425 47.7676 27.8431 47.9588 28.8482 47.911C29.9017 47.8609 30.4875 47.4122 30.9311 47.1714C31.4691 46.8788 31.6096 46.8552 31.9696 46.6628C33.2714 45.9665 34.8001 46.0529 36.2626 45.6957C37.2907 45.4446 37.6933 44.9602 38.8419 44.6526C39.2981 44.5305 39.7986 44.5391 40.2871 44.4706C40.6609 44.4187 41.3216 44.0864 41.6914 43.7454C42.3256 43.1585 42.2553 43.1348 42.7484 42.8572C43.5703 42.3924 44.5011 42.4068 45.3277 42.0232C46.0967 41.6666 46.8875 41.3631 47.4964 40.749C48.3834 39.8534 49.7837 39.6028 50.9351 39.1852C51.613 38.9381 52.5036 38.5026 53.2506 37.2113C53.9839 35.9464 54.6325 35.7649 55.936 35.3727C56.8028 35.1112 57.1772 34.9263 57.8448 34.2967C58.4462 33.7299 58.6622 33.3653 58.9323 32.9684C59.2416 32.5128 59.8493 31.7646 59.2036 31.1921C58.9202 30.9403 58.6334 30.4732 58.0245 30.0049C57.5568 29.5839 57.1703 29.3489 57.0419 29.2475C56.3403 28.6945 56.9313 29.1311 56.2574 28.7049C55.7816 28.4042 55.6474 28.1623 55.1572 27.8858C54.2794 27.3905 54.1878 27.2442 53.4862 26.4015C52.8774 25.2788 51.9224 25.1227 50.965 24.9091C50.04 24.7028 49.3839 23.965 49.2278 23.711C48.7359 22.9155 47.941 22.521 47.5194 22.2923C46.2096 21.5821 44.6993 21.6955 43.519 20.6461C41.7403 19.3829 41.2721 19.6168 39.4023 19.5592C38.3713 19.5281 37.0183 18.8691 36.5776 18.5028C36.2073 18.1946 35.7799 17.9919 35.398 17.8744C34.0801 17.4683 33.1775 18.1658 31.3348 17.269C30.7963 17.0063 30.3101 16.6463 29.7808 16.3416C29.4513 16.1521 29.2002 16.0605 28.6841 15.9494C27.7089 15.7386 26.8599 15.8733 25.6785 15.9736C25.1244 16.0214 24.7955 15.727 24.2863 15.4523C23.8186 15.1994 23.3192 15.0134 22.7005 14.8987C21.8999 14.7501 20.991 14.855 20.0601 15.0416C18.2175 15.4114 16.5264 14.4788 14.7494 14.6447C14.4481 14.673 13.8514 15.0508 13.6515 15.4742C13.3831 16.0415 13.3831 16.3693 13.4229 16.9303C13.477 17.6918 13.5669 17.7459 13.716 18.2413C14.0386 19.3167 14.2022 19.9019 14.4597 20.6271C14.7586 21.4698 14.7488 22.4956 14.0386 22.8228C13.6965 22.9806 13.1274 22.9846 12.806 22.7393C12.306 22.3585 12.0324 21.8223 11.4685 21.7117C10.7162 21.5631 9.81362 22.3349 9.01413 22.5451C8.21233 22.7565 8.11038 22.3205 7.55338 22.0625C7.18301 21.8908 6.82704 22.1408 6.6191 22.256C6.24413 22.4651 6.15369 22.8965 6.06614 23.3562C5.99644 23.7242 5.96649 24.0669 6.0575 24.4678C6.18941 25.0507 6.38352 25.4004 6.39849 25.8065C6.43421 26.8271 6.27062 27.5759 5.84899 28.1145C5.58115 28.4572 5.23036 29.403 5.11977 29.7526C4.74997 30.9219 4.79432 30.718 4.61576 31.8043C4.52418 32.3585 4.53915 32.9805 4.49019 33.4995C4.48098 33.5951 4.55183 34.7748 4.60885 35.1267C4.74997 35.9988 4.91356 36.5604 5.0973 37.2954C5.36169 38.3575 5.47516 39.0176 5.44866 39.839C5.42217 40.6799 4.89167 41.4708 5.39567 42.0646C5.70902 42.4333 6.52521 42.7662 7.18935 42.4736C7.86212 42.1758 8.35287 41.825 8.88165 41.7524C9.85567 41.6182 10.4818 42.0353 10.9046 41.9857C11.2772 41.9419 11.9327 41.5675 12.2415 41.5416C12.4874 41.5209 13.0208 41.4973 13.208 41.6372C13.5047 41.8596 13.6878 42.1055 13.6383 42.8739C13.6371 42.8854 13.458 43.6924 13.4563 43.6993C13.1493 44.7096 12.8181 45.6474 12.6597 46.3414C12.4943 47.0655 11.6995 48.6333 13.3123 49.2756C13.9914 49.5457 14.7097 49.4933 15.5996 49.2646C16.0506 49.1483 16.2378 49.1293 16.6588 49.059C16.6588 49.0273 17.2907 49.0388 17.2907 49.0077L17.8517 48.9841" fill="black"/>
<path fill-rule="evenodd" clip-rule="evenodd" d="M48.3825 24.6602C48.8192 24.9453 49.3209 25.6809 49.7425 26.2891C50.2569 26.7574 50.3035 27.0287 51.5793 27.2562C51.3328 27.2119 52.7273 27.6928 52.9376 27.8103C53.4859 28.1145 53.6259 28.3017 54.112 28.8558C54.6149 29.4289 54.8147 29.5821 55.8291 30.2601C56.2231 30.5239 56.2933 30.6183 57.0439 31.1517C57.3532 31.3718 57.7449 31.7277 57.8842 32.0203C58.2391 32.7634 57.7437 33.0278 56.9724 33.4361C55.7047 34.1083 54.6552 33.9165 53.5136 35.0824C52.5609 36.0541 51.52 37.2395 50.8156 37.4526C50.5086 37.5459 49.6953 37.8005 49.14 38.1455C48.5899 38.4877 48.4344 38.4767 47.9413 38.9162C47.3555 39.4381 47.0284 39.8125 45.9513 40.1846C45.2871 40.4132 44.5032 40.5198 43.8074 40.7283C43.2924 40.8832 42.8806 41.0975 42.4227 41.3573C41.7234 41.7536 40.8819 42.6809 39.7253 42.8958C37.4351 43.322 38.0433 43.2754 36.4104 44.0144C36.0049 44.1981 35.168 44.398 34.5804 44.398C33.5984 44.398 32.8323 44.5604 31.9677 45.0201C31.3381 45.3553 30.697 45.9711 29.4615 46.1352C27.9351 46.338 27.8504 46.1467 25.9554 46.5517C25.3806 46.6755 24.6548 47.0943 24.1064 47.2924C23.4907 47.5153 22.0403 47.543 21.0156 47.4491C20.0145 47.3575 19.2796 47.3558 17.8332 47.6178C16.7135 47.8206 16.1098 47.8436 15.0223 47.816C14.7775 47.8091 14.5932 47.6374 14.4348 47.3794C14.2459 47.0729 14.2234 46.804 14.2649 46.4658C14.3519 45.7556 14.3369 45.7211 14.5045 45.0633C14.5558 44.8634 14.8069 43.5599 14.8513 43.3606C15.1318 42.1067 15.2182 40.8424 14.2303 40.2715C13.9216 40.0936 13.1544 39.9789 12.5991 40.0774C10.9264 40.3741 11.2772 40.6552 10.2081 40.2773C10.0284 40.2139 9.57396 40.1316 9.30958 40.1425C8.77447 40.1638 8.01185 40.5388 7.33735 40.6448C6.86388 40.7197 6.74004 40.192 6.75271 39.8148C6.7723 39.2301 6.83335 38.6685 6.80743 38.0148C6.73831 36.3035 6.43937 36.2113 6.23316 35.1797C6.04596 34.2437 6.1001 32.6551 6.05518 32.7C6.10183 31.3896 6.69569 29.9778 7.0338 29.49C7.38746 28.9785 7.4635 28.77 7.73249 28.1444C8.01703 27.4826 7.97902 26.898 7.83444 26.1549C7.83098 26.1371 7.65876 25.5876 7.72097 25.5876C7.67143 25.2374 7.7561 24.8537 7.86785 24.6159C8.04871 24.2305 8.18926 24.0439 8.47726 23.9195C8.65524 23.8417 8.84359 23.7484 9.0331 23.7351C9.6546 23.6914 9.78017 24.09 10.942 23.6027C11.5433 23.3498 12.1412 23.6885 12.4367 23.7968C13.2425 24.09 13.1025 24.09 13.6158 24.1067C14.1036 24.1222 14.5731 23.999 15.0258 23.7242C15.2862 23.5652 15.4831 23.4783 15.6375 23.2536C15.77 23.0601 15.9457 22.5261 15.9929 22.2502C16.0505 21.9144 16.1444 21.7036 16.0505 20.9081C15.793 19.9255 15.6997 19.7147 15.5235 19.0926C15.3806 18.5857 15.2078 18.1007 15.1352 17.6353C15.1341 17.6267 15.1145 17.0708 15.1145 17.0708C15.0517 16.606 15.3679 16.2725 15.77 16.269C17.21 16.2575 18.5607 16.6676 20.0825 16.6578C21.3382 16.6498 21.8721 16.3929 23.3502 16.9309C23.8651 17.1181 24.1692 17.5391 24.9751 17.7661C26.5078 18.1981 27.7255 17.1647 29.0364 17.7816C30.1262 18.2948 29.897 17.9849 30.9217 18.6381C31.3992 18.9428 32.288 19.4578 33.5626 19.645C34.4451 19.7751 35.8447 19.4111 37.2871 20.4566C38.0981 21.0447 38.8394 21.2825 39.8768 21.3897C41.0984 21.5158 41.2171 21.3436 42.1802 22.0411C42.8887 22.5549 42.6934 22.4403 43.4082 22.9725C43.7319 23.2133 43.9859 23.4587 44.4542 23.6689C44.7221 23.7893 45.7491 23.9327 45.7174 23.931C46.6304 23.9776 46.8872 23.9028 47.6124 24.1608C47.5969 24.1441 48.5484 24.7685 48.3825 24.6602" fill="white"/>
<path fill-rule="evenodd" clip-rule="evenodd" d="M16.8368 33.3366V35.2743H24.1226L24.8478 34.5952V32.2698H23.7718L23.7759 31.68L27.7912 29.3777L28.1281 29.7239C27.2296 30.3558 26.5326 30.9456 25.994 31.8816C25.2061 33.1943 24.9181 35.0162 25.3858 36.4672C25.6905 37.4498 26.0643 38.035 26.7198 38.7182C27.3511 39.3685 27.8891 39.7429 28.919 40.2342C29.7611 40.6552 31.75 41.2589 33.2943 41.4225C34.7913 41.5394 36.6633 41.5164 37.9034 41.3522C39.2599 41.2122 40.6642 40.7209 41.5069 40.3742C42.1848 40.047 42.9336 39.7429 43.5091 39.2936C44.96 38.2504 46.4899 36.6774 46.5135 34.7121H43.8086C42.9567 37.7303 34.7677 39.111 31.4925 36.7759C29.1056 34.8993 29.7841 33.2381 30.7904 32.4663L31.0951 32.794L30.5848 33.332L30.6222 35.2743H37.5198L38.4086 34.4321V32.3257H37.8798L35.4934 29.7521C40.079 28.7701 42.349 30.7815 43.687 32.9806H45.4836L46.3914 32.0919V26.9914L44.4779 26.9868L43.3316 27.6976C39.2599 25.8964 36.2422 26.1026 33.0835 27.1504L32.5685 26.6268L35.4842 24.8855L37.2433 24.8763L38.1044 24.0572L38.1091 22.3212H31.0709L30.3227 23.0798V24.2629L23.7252 28.0351V25.1292L24.7914 24.0526V22.3027H17.8753L16.9307 23.4069V24.7916H18.0631V32.2698H17.7163C17.7163 32.2698 16.7901 33.3182 16.8368 33.3366" fill="black"/>
<path fill-rule="evenodd" clip-rule="evenodd" d="M18.063 22.7331H24.3794V23.8655L23.3034 23.8753V28.7788L31.9135 23.8655H31.1555V22.7331L37.6694 22.7239V23.8563L36.2185 23.8753L31.8086 26.4765L37.7437 32.8874L37.95 32.892V34.1978H31.3991V32.8782L32.3115 32.8874L28.2449 28.5547L23.3501 31.3621V32.8874H24.3794V34.1886H18.063V32.8874H19.139V23.8655H18.063V22.7331ZM46.0174 35.1338H44.286C43.5884 36.28 42.6294 37.193 40.4302 37.8473C36.1718 39.1111 32.0776 38.4792 30.2805 36.2334C28.7783 34.5019 29.4805 32.9807 30.4395 32.1484L28.5491 30.1082C27.0469 31.1323 26.5325 32.0919 26.2093 33.0279C25.9519 33.7998 25.5965 35.3677 26.3217 36.8416C27.2104 38.3623 28.6378 39.2516 29.5974 39.6024C31.1653 40.2573 33.7146 40.8661 36.5929 40.7492C38.6521 40.7014 40.4538 40.3276 42.1847 39.4619C43.191 38.9245 43.3966 38.8069 44.4029 37.8709C44.4942 37.766 44.5835 37.6658 44.6702 37.5685C45.2986 36.8631 45.7952 36.3056 46.0174 35.1338ZM33.523 27.4716C33.4839 27.4838 33.4466 27.4954 33.4111 27.5064L35.0959 29.3548C38.7224 28.4885 42.6058 29.3922 44.3142 31.9612L45.9892 31.9422L46.0076 27.4125H44.5014L43.4248 28.1147C38.4652 25.9303 34.8988 27.0425 33.523 27.4716Z" fill="#E31837"/>
</svg>
