<svg width="64" height="64" viewBox="0 0 64 64" fill="none" xmlns="http://www.w3.org/2000/svg">
<path fill-rule="evenodd" clip-rule="evenodd" d="M31.9562 56.107C27.2925 56.1279 23.7164 54.7962 22.0047 53.8929C18.6512 52.1327 15.8882 49.8022 13.5093 46.5678C10.0905 41.931 9.42871 38.1975 9.15631 36.1643C8.99624 35.1056 8.8059 32.5612 9.16304 30.2785C9.56726 26.9848 10.3158 25.3444 10.8512 23.739C11.2676 22.5976 12.6107 19.8507 13.4077 18.591C14.085 17.6036 15.3219 15.7843 15.8263 15.142C15.9642 14.9402 15.7853 15.0357 15.7093 15.0377C15.5243 15.0828 15.4288 15.0942 15.2862 15.0828C15.1793 15.0828 14.9654 15.0472 14.8464 15.0115C14.1805 14.8696 13.2288 14.1318 13.3479 12.8471C13.3243 12.562 13.633 10.1131 13.8711 9.35172C14.1805 8.28232 14.8222 7.78259 15.9642 7.68708C16.5346 7.68708 18.9363 7.63933 20.0273 7.80949C22.2118 8.02673 23.8112 8.66233 24.7623 10.5886C25.5236 12.2768 25.2627 14.9167 24.2161 16.9378C23.859 17.6272 23.146 18.9118 22.5273 19.7438C21.9569 20.5758 21.7188 21.0049 21.2191 21.9317C20.72 22.9063 19.0554 26.545 18.485 28.9226C17.3995 33.3603 18.0089 35.9141 20.1013 39.3866C21.6475 41.6929 23.4548 43.3582 24.8578 44.1189C27.1647 45.569 30.3151 45.9739 31.9562 45.9739C33.5973 45.9739 36.7477 45.569 39.0553 44.1189C40.4577 43.3582 42.2649 41.6929 43.8105 39.3866C45.9036 35.9141 46.5129 33.3603 45.4281 28.9226C44.8577 26.545 43.1924 22.9063 42.6933 21.9317C42.1943 21.0049 41.9562 20.5758 41.3852 19.7438C40.7677 18.9118 40.0534 17.6272 39.6963 16.9378C38.6504 14.9167 38.3895 12.2768 39.1502 10.5886C40.1005 8.66233 41.7013 8.02673 43.8852 7.80949C44.9754 7.63933 47.3779 7.68708 47.9482 7.68708C49.0903 7.78259 49.7326 8.28232 50.0413 9.35172C50.2787 10.1131 50.5888 12.562 50.5646 12.8471C50.6836 14.1318 49.7326 14.8696 49.0661 15.0115C48.9484 15.0472 48.7331 15.0828 48.6262 15.0828C48.4836 15.0942 48.3888 15.0828 48.2031 15.0377C48.1271 15.0357 47.9482 14.9402 48.0861 15.142C48.5905 15.7843 49.8268 17.6036 50.5054 18.591C51.3017 19.8507 52.6456 22.5976 53.0612 23.739C53.5966 25.3444 54.3452 26.9848 54.7494 30.2785C55.1065 32.5612 54.9162 35.1056 54.7568 36.1643C54.4837 38.1975 53.8232 41.931 50.4032 46.5678C48.0242 49.8022 45.2613 52.1327 41.9084 53.8929C40.1967 54.7962 36.6206 56.0855 31.9562 56.107" fill="white"/>
<path fill-rule="evenodd" clip-rule="evenodd" d="M31.9306 51.5235C32.2394 51.5235 32.4902 51.2733 32.4902 50.9646C32.4902 50.6552 32.2394 50.4043 31.9306 50.4043C31.6213 50.4043 31.3711 50.6552 31.3711 50.9646C31.3711 51.2733 31.6213 51.5235 31.9306 51.5235ZM17.0343 44.4371C17.3437 44.4371 17.5939 44.1869 17.5939 43.8775C17.5939 43.5682 17.3437 43.3173 17.0343 43.3173C16.7256 43.3173 16.4747 43.5682 16.4747 43.8775C16.4747 44.1869 16.7256 44.4371 17.0343 44.4371ZM13.7057 31.5013C14.0144 31.5013 14.2652 31.2505 14.2652 30.9417C14.2652 30.6317 14.0144 30.3815 13.7057 30.3815C13.3963 30.3815 13.1461 30.6317 13.1461 30.9417C13.1461 31.2505 13.3963 31.5013 13.7057 31.5013ZM20.2687 16.2814C20.5781 16.2814 20.8283 16.0312 20.8283 15.7219C20.8283 15.4125 20.5781 15.1623 20.2687 15.1623C19.9593 15.1623 19.7085 15.4125 19.7085 15.7219C19.7085 16.0312 19.9593 16.2814 20.2687 16.2814ZM47.4424 43.8775C47.4424 43.5682 47.1916 43.3173 46.8829 43.3173C46.5741 43.3173 46.3226 43.5682 46.3226 43.8775C46.3226 44.1869 46.5741 44.4371 46.8829 44.4371C47.1916 44.4371 47.4424 44.1869 47.4424 43.8775ZM50.7717 30.9417C50.7717 30.6317 50.5209 30.3815 50.2115 30.3815C49.9028 30.3815 49.6519 30.6317 49.6519 30.9417C49.6519 31.2505 49.9028 31.5013 50.2115 31.5013C50.5209 31.5013 50.7717 31.2505 50.7717 30.9417ZM44.2087 15.7219C44.2087 15.4125 43.9578 15.1623 43.6484 15.1623C43.339 15.1623 43.0888 15.4125 43.0888 15.7219C43.0888 16.0312 43.339 16.2814 43.6484 16.2814C43.9578 16.2814 44.2087 16.0312 44.2087 15.7219ZM21.5285 52.3225C18.485 50.5159 15.7261 48.2332 13.0627 43.8392C11.8735 41.6694 9.11528 37.0562 10.4752 29.0188C12.0444 21.6702 15.2035 17.9602 17.0107 15.4158C17.8663 14.1796 16.9865 13.466 16.2965 13.7276C15.7187 13.9469 15.3219 13.961 15.3219 13.961C14.2996 13.8225 14.4421 13.1573 14.6325 11.4207L14.8706 9.99414C15.0838 8.73371 15.6548 8.75726 17.1526 8.78618C19.5309 8.83326 19.9587 8.85276 21.2433 9.09018C22.9557 9.47087 25.1907 11.1833 23.4312 15.8913C22.3369 18.4122 21.1955 19.2677 19.9587 21.8841C18.627 24.7856 15.3932 31.3009 17.5811 36.8659C20.5774 44.3329 26.3798 46.9963 31.897 47.0918C37.4142 47.0199 43.787 43.7619 46.336 36.8659C48.524 31.3009 45.2902 24.7856 43.9578 21.8841C42.7216 19.2677 41.5802 18.4122 40.4859 15.8913C38.7264 11.1833 40.9621 9.47087 42.6738 9.09018C43.9578 8.85276 44.3862 8.83326 46.7645 8.78618C48.2623 8.75726 48.834 8.73371 49.0479 9.99414L49.2853 11.4207C49.475 13.1573 49.6183 13.8225 48.5959 13.961C48.5959 13.961 48.1991 13.9469 47.6207 13.7276C46.9306 13.466 46.0502 14.1796 46.9064 15.4158C48.7143 17.9602 51.8721 21.6702 53.4419 29.0188C54.8019 37.0562 52.0436 41.6694 50.8545 43.8392C48.1917 48.2332 45.4328 50.5159 42.3887 52.3225C38.222 55.2247 30.4227 55.0572 31.9206 54.9631C33.4904 55.0821 26.1895 55.2718 21.5285 52.3225Z" fill="#002C5F"/>
</svg>
