<svg width="64" height="64" viewBox="0 0 64 64" fill="none" xmlns="http://www.w3.org/2000/svg">
<path fill-rule="evenodd" clip-rule="evenodd" d="M56.8442 31.1072C54.9664 31.362 51.685 32.7209 52.3085 33.4506C52.9318 34.1794 54.7496 35.1816 55.0078 35.3081C54.1414 35.3081 51.2936 35.6025 50.9757 36.4098C50.6567 37.2171 55.0963 39.9232 56.7219 40.5592C54.6999 39.9898 49.8773 39.04 49.5567 39.6904C49.2362 40.3407 50.0696 42.3509 50.8314 42.949C50.2737 42.782 47.3609 41.9536 46.8936 43.0308C46.3799 44.216 49.2269 48.5637 49.55 49.376C48.2375 48.0736 44.6423 45.1541 44.1328 45.4881C43.6232 45.8221 43.7489 47.4494 43.8813 48.2769C43.3879 47.6754 42.5401 46.7113 41.8078 46.9998C41.0756 47.2882 41.166 50.0821 41.1187 51.2723C40.5147 49.8721 39.5286 47.0529 38.6158 47.1558C37.7031 47.2587 36.679 49.177 36.4843 49.91C36.345 49.1761 35.7478 47.5624 34.8443 47.5624C33.9409 47.5624 31.8404 51.8333 31.2053 53.221C31.2027 52.1471 31.46 46.9078 30.8906 46.648C30.3212 46.3882 28.3996 47.5826 27.9871 48.1259C28.1398 47.4376 28.2697 45.111 27.7576 44.8301C27.2447 44.5484 25.7837 44.4598 23.1418 46.9027C23.5803 45.9656 24.3025 44.9457 24.478 43.9571C25.572 43.9005 26.6551 43.7765 27.7475 43.5631C30.1314 45.2882 33.0619 46.3064 36.2294 46.3064C44.2297 46.3064 50.7149 39.8211 50.7149 31.8208C50.7149 31.1941 50.6744 30.5766 50.5977 29.9718C51.1342 29.4665 51.6487 28.9772 52.1279 28.5209C52.0182 28.7832 51.9575 29.0995 51.9676 29.4893C51.9989 30.7107 55.163 30.9714 56.8442 31.1072ZM20.8177 36.3136C20.3614 36.0664 18.239 35.9686 18.239 35.9686C18.239 35.9686 20.6288 34.3625 20.5732 33.2009C20.5174 32.0402 16.7062 31.4455 15.1996 31.1114C16.5291 30.8314 20.8346 29.8587 21.0194 28.9924C21.205 28.1269 19.6738 27.512 19.0303 27.21C19.7514 27.2193 21.5794 27.5255 21.8257 26.633C22.1075 25.6098 17.6063 22.945 16.5805 22.5755C16.81 22.6295 21.097 23.6299 22.6643 23.2908C23.831 23.0378 22.4711 21.4679 22.2467 21.2823C22.5908 21.4502 24.5563 21.8551 25.119 20.9221C25.6816 19.9892 23.7727 16.2733 22.7039 14.6984C23.6529 15.6449 27.987 18.7281 28.6332 18.2034C29.2802 17.6787 28.7859 15.984 28.4393 15.4247C29.1377 16.0785 29.8251 16.9524 30.7127 16.9338C31.1571 16.9245 31.7164 15.4551 31.8083 12.134C32.4098 13.9949 33.8455 16.5238 34.9 16.3703C35.9552 16.2176 36.3155 14.6512 36.4614 13.9839C36.5829 14.7001 37.1371 16.5407 37.8407 16.6082C38.7044 16.7432 40.357 12.8991 40.9584 11.1622C41.0495 12.0201 40.4203 16.426 41.3514 16.7921C42.2819 17.159 43.8205 15.3041 44.6936 14.2648C44.1639 15.2703 43.1288 17.7023 43.7455 18.2843C44.3621 18.8664 46.4938 18.2565 47.3246 17.5715C47.0919 18.081 47.0421 18.4885 47.1054 18.8715C46.158 19.057 45.1804 19.3295 44.1707 19.7057C41.8897 18.2084 39.1616 17.3362 36.2294 17.3362C28.23 17.3362 21.7448 23.8214 21.7448 31.8208C21.7448 33.7467 22.121 35.5839 22.8034 37.2643C21.9793 37.875 21.1897 38.3592 20.3807 38.7329C20.9721 38.0285 21.4858 36.6746 20.8177 36.3136ZM61.4149 20.1432C61.4052 19.9234 61.3633 19.7928 61.3633 19.7928L61.3626 19.7916C61.0952 18.8574 60.1412 18.2803 58.842 18.2803C58.7039 18.2803 58.5634 18.2873 58.4245 18.3012C57.4291 18.4 55.6589 18.9995 55.1335 19.1832C53.4834 18.7662 51.9369 18.5632 50.4102 18.5632C49.6211 18.5631 48.8364 18.6191 48.0536 18.7284L48.0548 18.7279L47.7318 18.7714C47.7318 18.7714 47.6061 18.3628 47.9348 17.4086C48.1051 16.9137 48.3388 16.4586 48.3388 16.4586C48.3388 16.4586 44.7457 18.3263 44.297 17.7301C43.8483 17.134 45.8576 12.3947 45.8576 12.3947C45.8576 12.3947 42.3937 16.2434 41.7133 16.0726C41.4465 16.0057 41.4211 14.6118 41.4078 13.1117C41.3898 11.0804 41.4605 8.75684 41.4605 8.75684C41.4605 8.75684 38.6082 15.848 37.9123 15.8111C37.3088 15.7791 36.4309 11.994 36.4309 11.994C36.4309 11.994 35.8801 15.2557 34.8901 15.6547C33.9002 16.0536 31.3537 9.95367 31.3537 9.95367C31.3537 9.95367 31.2361 16.0591 30.5278 16.196C29.8195 16.333 27.5646 14.0512 27.5646 14.0512C27.5646 14.0512 28.6217 17.0924 28.2637 17.4929C28.05 17.732 25.8811 16.391 23.6246 14.7725C22.3211 13.8374 21.231 13.0537 21.231 13.0537C21.231 13.0537 22.5029 15.1661 23.514 17.374C24.2101 18.894 24.6325 20.3527 24.4504 20.6368C24.0039 21.3332 20.6547 20.3406 20.6547 20.3406C20.6547 20.3406 22.5585 22.1746 22.4356 22.6469C22.3761 22.8761 20.4829 22.7106 18.5591 22.4475C16.5184 22.1685 14.4418 21.7837 14.4418 21.7837C14.4418 21.7837 21.2381 25.735 21.0248 26.4462C20.856 27.0089 16.6263 26.5481 16.6263 26.5481C16.6263 26.5481 20.3038 28.2282 20.2888 28.7835C20.274 29.3387 13.0905 31.1563 13.0905 31.1563C13.0905 31.1563 19.5964 32.5172 19.7208 33.2427C19.8453 33.9684 17.155 36.2964 17.155 36.2964C17.155 36.2964 20.287 36.5794 20.4426 36.9896C20.598 37.3996 19.6813 39.0196 18.8858 39.2765C17.9025 39.5939 17.0074 39.7959 15.9172 39.7959C15.7603 39.7959 15.6071 39.7914 15.4572 39.7833C15.5111 39.7136 15.5644 39.6416 15.6108 39.5731C15.879 39.1804 16.0786 38.7608 16.1874 38.3604L16.1886 38.3563L16.1896 38.3521C16.2454 38.1321 16.2742 37.9132 16.2752 37.7011L16.2753 37.692L16.2749 37.6828C16.2674 37.4418 16.189 37.2364 16.0469 37.0965C15.7805 36.8643 15.5321 36.892 15.3539 36.9712L14.7359 37.2742C14.69 37.2944 14.6381 37.314 14.5752 37.3329C14.4569 37.3684 14.2075 37.4107 13.6907 37.4107C13.2007 37.4107 12.6174 37.3742 12.0534 37.339C12.0534 37.339 11.7071 37.3196 11.6402 37.3196C10.9674 37.3196 10.5183 37.5338 10.2476 37.7298L10.1004 37.6522C8.72444 36.9214 7.12296 36.6257 6.12284 36.4412C6.04515 36.4267 5.97092 36.4137 5.90099 36.3999C4.79644 36.1833 4.19186 35.5278 4.14268 35.4746C4.04913 35.3733 3.92724 35.2422 3.76823 35.1504C3.76823 35.1504 3.48075 34.9711 3.05475 35.1023C2.7768 35.2 2.65938 35.4167 2.65938 35.4167C2.42116 35.8125 2.6485 36.3934 2.94821 37.0488C3.28918 37.7933 4.35804 39.6525 6.91637 40.8394C7.75393 41.2284 8.85587 41.5053 10.1914 41.6622C11.1967 41.7803 12.0456 41.7953 12.3839 41.7959C12.7096 41.9545 13.712 42.4178 15.2025 42.8837C16.8388 43.3951 19.3959 44.0031 22.3256 44.0169C22.3256 44.0169 23.3653 44.03 23.9266 43.9943C23.9831 44.2283 23.577 45.0651 23.089 46.0459C22.5109 47.2082 21.7688 48.5831 21.7688 48.5831C21.7688 48.5831 23.1093 47.3985 24.3585 46.5203C25.6159 45.6363 27.0244 44.926 27.3573 45.3354C27.9865 46.1087 27.3152 49.3001 27.3152 49.3001C27.3152 49.3001 29.8554 47.0524 30.4444 47.3568C30.714 47.4962 30.7411 49.1758 30.7421 50.945C30.7434 53.0416 30.6894 55.2683 30.6894 55.2683C30.6894 55.2683 34.1883 48.1885 34.9162 48.3908C35.6441 48.593 36.4409 51.821 36.4409 51.821C36.4409 51.821 37.7702 47.8883 38.5824 47.9838C38.9072 47.9439 39.6049 49.2194 40.225 50.5233C40.9046 51.9523 41.4869 53.3492 41.4869 53.3492C41.4869 53.3492 41.501 51.8888 41.6028 50.3967C41.6949 49.0487 41.8662 47.7326 42.1625 47.6597C42.7868 47.506 44.5975 49.9328 44.5975 49.9328C44.5975 49.9328 43.9572 46.5502 44.4589 46.2637C44.9605 45.977 50.9874 51.1876 50.9874 51.1876C50.9874 51.1876 47.0323 43.8593 47.5134 43.2997C47.9944 42.7401 52.2186 43.8816 52.2186 43.8816C52.2186 43.8816 51.5892 43.1384 51.0506 42.2986C50.4877 41.4207 50.0189 40.4395 50.2391 40.2036C50.4391 39.9892 52.6416 40.2124 54.917 40.6537C57.5404 41.1625 59.2471 41.5254 59.2471 41.5254C59.2471 41.5254 57.7019 40.6891 55.4231 39.3181C53.45 38.1311 51.7144 36.7948 51.7884 36.5781C51.948 36.1109 56.6603 35.6626 56.6603 35.6626C56.6603 35.6626 55.8694 35.1974 55.0196 34.6778C54.0971 34.1137 53.1121 33.4114 53.1121 33.1542C53.1121 32.9294 54.2937 32.3724 55.8521 31.8931C57.7204 31.3186 59.4486 30.9335 59.4486 30.9335C59.4486 30.9335 53.0246 30.4177 52.6234 29.5018C52.3495 28.8763 52.8527 28.0606 53.2215 27.5337C53.5904 27.0068 54.1183 26.5286 54.1183 26.5286C55.8734 24.908 58.1072 23.4159 58.8209 22.9771C58.8713 22.9461 58.9195 22.9155 58.9686 22.8848C58.9686 22.8848 60.6164 21.6683 60.7858 21.5261C60.9334 21.4022 61.3103 21.0068 61.395 20.5037C61.395 20.5037 61.4246 20.365 61.4149 20.1432Z" fill="white"/>
<path fill-rule="evenodd" clip-rule="evenodd" d="M44.1707 19.7056C45.1804 19.3294 46.158 19.0569 47.1054 18.8713C47.0422 18.4884 47.0919 18.0809 47.3247 17.5714C46.4939 18.2564 44.3621 18.8663 43.7456 18.2842C43.1288 17.7022 44.164 15.2702 44.6936 14.2647L44.6532 14.3128C43.7738 15.36 42.2677 17.1533 41.3515 16.792C40.6796 16.5278 40.8201 14.1609 40.9162 12.5407C40.9533 11.9152 40.9838 11.401 40.9585 11.1621C40.357 12.899 38.7044 16.7431 37.8407 16.6081C37.1371 16.5406 36.583 14.7 36.4614 13.9838C36.3155 14.651 35.9553 16.2175 34.9 16.3702C33.8455 16.5237 32.4098 13.9948 31.8084 12.1339C31.7164 15.455 31.1571 16.9244 30.7127 16.9337C29.9803 16.949 29.3842 16.3566 28.8057 15.7816C28.6831 15.6598 28.5614 15.5388 28.4393 15.4246C28.7859 15.9839 29.2802 17.6786 28.6332 18.2032C27.9871 18.7279 23.6529 15.6448 22.7039 14.6983C23.7727 16.2732 25.6816 19.989 25.119 20.922C24.5563 21.855 22.5909 21.4501 22.2467 21.2822C22.4712 21.4678 23.831 23.0376 22.6643 23.2907C21.097 23.6298 16.81 22.6294 16.5805 22.5754C17.6063 22.9449 22.1075 25.6096 21.8258 26.6329C21.6213 27.3736 20.3272 27.2886 19.4808 27.233C19.3074 27.2216 19.1529 27.2114 19.0303 27.2099C19.0833 27.2347 19.1424 27.2617 19.206 27.2908C19.9145 27.6149 21.1897 28.1981 21.0194 28.9923C20.8346 29.8586 16.5291 30.8312 15.1996 31.1113C15.4031 31.1564 15.6486 31.2063 15.9212 31.2616C17.6671 31.6163 20.5249 32.1968 20.5732 33.2008C20.6288 34.3623 18.2391 35.9685 18.2391 35.9685C18.2391 35.9685 20.3614 36.0663 20.8177 36.3135C21.4858 36.6745 20.9721 38.0284 20.3807 38.7328C21.1897 38.3591 21.9793 37.8749 22.8034 37.2642C22.121 35.5838 21.7448 33.7466 21.7448 31.8207C21.7448 23.8213 28.23 17.3361 36.2294 17.3361C39.1616 17.3361 41.8897 18.2083 44.1707 19.7056ZM50.8314 42.9489C50.0696 42.3508 49.2363 40.3406 49.5567 39.6902C49.8773 39.0398 54.6999 39.9897 56.7219 40.5591C55.0963 39.923 50.6567 37.2169 50.9757 36.4096C51.2936 35.6024 54.1414 35.308 55.0078 35.308C54.7496 35.1814 52.9318 34.1793 52.3085 33.4505C51.685 32.7208 54.9664 31.3618 56.8442 31.1071C55.163 30.9713 51.9989 30.7106 51.9676 29.4891C51.9575 29.0994 52.0182 28.7831 52.1279 28.5207C51.6487 28.9771 51.1342 29.4664 50.5977 29.9717C50.6744 30.5765 50.7149 31.194 50.7149 31.8207C50.7149 39.821 44.2297 46.3062 36.2294 46.3062C33.0619 46.3062 30.1314 45.288 27.7475 43.563C26.6551 43.7764 25.572 43.9004 24.478 43.9569C24.357 44.6387 23.976 45.3353 23.6073 46.0094C23.4414 46.3128 23.2779 46.6117 23.1418 46.9026C25.7837 44.4597 27.2447 44.5482 27.7576 44.83C28.2697 45.1109 28.1398 47.4374 27.9871 48.1258C28.3997 47.5825 30.3212 46.388 30.8906 46.6479C31.3557 46.8601 31.2692 50.3957 31.2233 52.2685C31.2131 52.6881 31.2048 53.0242 31.2053 53.2208C31.8404 51.8332 33.9409 47.5623 34.8443 47.5623C35.7478 47.5623 36.345 49.176 36.4843 49.9099C36.679 49.1768 37.7031 47.2586 38.6158 47.1557C39.3911 47.0683 40.2192 49.0887 40.8212 50.5574C40.928 50.818 41.0277 51.0612 41.1187 51.2722C41.1263 51.0812 41.1303 50.8488 41.1348 50.5921C41.1582 49.2496 41.1932 47.2418 41.8078 46.9996C42.5401 46.7111 43.3879 47.6753 43.8813 48.2767C43.7489 47.4492 43.6233 45.822 44.1328 45.488C44.6423 45.1539 48.2375 48.0735 49.55 49.3759C49.4685 49.171 49.2264 48.7411 48.9182 48.1939C48.0045 46.5714 46.5095 43.9169 46.8936 43.0307C47.361 41.9535 50.2737 42.7818 50.8314 42.9489Z" fill="#FC4C02"/>
<path fill-rule="evenodd" clip-rule="evenodd" d="M55.1572 19.7116C55.1572 19.7116 57.3705 18.9145 58.4748 18.8048C59.5638 18.696 60.6798 19.0663 60.8958 19.9976H60.895C60.3795 19.1895 55.4844 20.815 54.0925 21.3751C53.7146 21.5278 51.3856 22.578 49.0067 23.9361L49.0059 23.937C49.0054 23.9364 49.0052 23.9366 49.0049 23.9367L49.0043 23.937C49 23.9387 48.989 23.9437 48.973 23.9522C47.5652 24.4431 44.8151 25.9548 43.7692 26.9333C42.5061 28.1135 41.7428 29.466 40.8288 31.0853C39.955 32.6336 38.9434 34.4258 37.2257 36.5447C35.6617 38.4739 34.3104 39.827 33.2442 40.7161C32.5634 41.2905 31.9645 41.6955 31.5241 41.9291C31.5072 41.8751 31.503 41.833 31.503 41.833C31.5006 41.8178 31.4996 41.8009 31.4996 41.7823C31.4996 41.4645 31.8315 40.7822 32.1429 40.1421L32.1431 40.1417C32.2093 40.0054 32.2747 39.8711 32.3357 39.7426C32.571 39.2475 32.7329 38.8434 32.7329 38.8426C33.2736 37.5005 33.5613 36.2183 33.6414 35.8353C33.7637 35.3511 34.0775 33.9828 34.0775 33.9828C34.0775 33.9828 28.4274 39.0585 22.5706 40.7583C20.5756 41.3369 18.4263 41.8076 16.8252 41.8414C16.8252 41.8414 15.4527 41.7823 15.3616 41.7537C13.9707 41.5217 12.3147 40.8797 10.8579 39.3242C10.6715 39.1766 10.485 39.0222 10.2986 38.8603C10.309 38.8709 10.3394 38.9123 10.3871 38.9772C10.6045 39.2726 11.1804 40.0556 11.8533 40.6469C11.8336 40.6484 11.8128 40.6501 11.7907 40.6519L11.7904 40.6519C11.5198 40.6743 11.0429 40.7137 9.75369 40.5305C4.87205 39.8363 3.3351 36.015 3.29545 35.5569C3.22974 35.5755 3.17229 35.5957 3.13104 35.6337C3.17229 35.5949 3.22974 35.5746 3.29545 35.5561C3.48047 35.5037 3.62206 35.6569 3.77117 35.8182C3.82872 35.8804 3.8874 35.9439 3.95013 35.9972L3.96807 36.0125C4.20505 36.2146 4.77921 36.7041 5.80764 36.8973C5.87803 36.9105 5.95249 36.9243 6.03059 36.9387L6.03068 36.9387L6.03071 36.9387L6.03073 36.9387C7.12332 37.1404 8.92907 37.4737 10.313 38.3617L10.3139 38.36C10.4197 38.4236 10.5392 38.5004 10.6728 38.5862C12.0822 39.4915 15.0571 41.4022 20.0055 39.4651C22.5023 38.4883 24.7335 36.5329 28.0487 33.2532C28.5877 32.7209 29.1217 32.1616 29.6658 31.5846C29.5881 31.1957 29.3756 30.4922 28.9074 30.2012C28.1812 29.7474 27.0803 29.7296 26.354 29.7828C26.196 29.7945 26.0542 29.8084 25.9266 29.8209L25.9265 29.8209C25.4667 29.8659 25.1899 29.8931 24.9958 29.7372C24.8879 29.6512 24.882 29.5103 24.941 29.3501C25.3982 28.7933 26.2047 28.0847 28.2815 27.8114C29.4416 27.6589 30.2546 27.6902 30.9656 27.7176C31.8629 27.7521 32.5979 27.7804 33.6633 27.4251C34.0413 27.0429 34.4824 26.6448 34.8266 26.3343C35.6221 25.614 36.4749 24.8961 37.4028 24.1909C38.3316 23.4857 39.3354 22.794 40.4338 22.125C46.3183 18.5441 51.1148 18.6622 55.1572 19.7116ZM12.0211 37.844C11.9516 37.8397 11.8824 37.8354 11.8137 37.8311C11.0064 37.7814 10.5805 38.085 10.4074 38.2538C10.4242 38.2633 10.4423 38.2736 10.4615 38.2846C10.4622 38.2849 10.4629 38.2853 10.4636 38.2857C11.0238 38.605 12.5863 39.4954 13.9276 39.7536C14.0027 39.7679 14.184 39.7983 14.3544 39.8152C14.5241 39.832 14.7256 39.8236 14.7687 39.8211C14.7721 39.8177 15.0335 39.5225 15.1922 39.2888C15.4536 38.9058 15.6156 38.5347 15.6991 38.2276C15.7446 38.0479 15.7683 37.8716 15.7691 37.6987C15.7593 37.3876 15.5674 37.4191 15.523 37.4264L15.5185 37.4271H15.5177C15.4367 37.4378 15.373 37.4761 15.2974 37.5276C15.2866 37.5349 15.2756 37.5425 15.2642 37.5504C15.1551 37.6257 15.0157 37.7219 14.7709 37.8019C14.7546 37.8072 14.7378 37.8125 14.7205 37.8176C14.2161 37.969 13.2082 37.9174 12.2186 37.8563C12.1527 37.8523 12.0868 37.8481 12.0211 37.844ZM47.9717 31.5897C47.5559 32.8719 46.9173 34.6248 46.1354 36.1077C45.2057 37.8699 43.9809 39.0872 43.3355 39.5545C43.2284 39.4895 43.1879 39.3529 43.1845 39.212C43.1832 39.1437 43.223 38.9982 43.2859 38.7678L43.286 38.7677C43.4547 38.1504 43.7902 36.9236 43.948 34.9377C44.6447 34.4139 45.2707 33.9153 45.824 33.4556C46.5275 32.8702 47.2522 32.2367 47.9717 31.5897Z" fill="#008E97"/>
<path fill-rule="evenodd" clip-rule="evenodd" d="M60.6066 20.9714C60.6067 20.9712 60.6069 20.971 60.6073 20.971C60.6528 20.8875 60.776 20.6589 60.7515 20.5054C60.6967 20.1528 59.9392 20.2515 58.0657 20.885C58.0624 20.8864 58.0587 20.8875 58.055 20.8887L58.051 20.89L58.0462 20.8917C57.8868 20.9457 57.7207 21.0031 57.5453 21.0646C53.9007 22.3448 50.3353 25.4302 46.3421 28.8857C44.3046 30.6489 42.1557 32.5085 39.828 34.2738L39.8796 34.1937C40.6208 33.0778 41.1861 32.0704 41.704 31.1475C42.6147 29.5246 43.3786 28.1631 44.6946 26.9332C45.76 25.9168 47.393 24.8564 49.0043 23.9369C49.0001 23.9386 48.989 23.9437 48.973 23.9521C47.5651 24.4431 44.8151 25.9547 43.7691 26.9332C42.506 28.1135 41.7427 29.466 40.8288 31.0853C39.955 32.6336 38.9434 34.4258 37.2258 36.5447C35.6618 38.4739 34.3104 39.8269 33.2442 40.716C32.5634 41.2905 31.9645 41.6954 31.5241 41.9291L31.5249 41.9314C31.5325 41.9546 31.5886 42.1248 31.7384 42.1619C31.994 42.226 32.9497 41.7452 34.1695 40.7152H34.1703L34.1844 40.7085C34.38 40.6155 36.5687 39.575 37.6382 38.991C38.9558 38.2723 41.1279 36.9184 41.6021 36.6037C41.6021 36.6029 41.6029 36.6029 41.6029 36.6029C42.4498 36.0394 43.9479 34.9402 43.9479 34.9377C44.6447 34.4139 45.2707 33.9153 45.824 33.4556C46.5275 32.8702 47.2521 32.2367 47.9717 31.5896C47.5559 32.8718 46.9173 34.6248 46.1354 36.1077C45.2057 37.8699 43.9809 39.0871 43.3355 39.5545C43.5274 39.6766 43.8071 39.5169 43.8733 39.4791L43.8847 39.4726C44.4161 39.1816 45.9144 37.9095 46.9181 35.8741C48.2881 33.0954 48.8964 30.931 48.9578 30.7123L48.9629 30.6946C49.0239 30.638 50.3429 29.3936 51.5833 28.2234C52.6909 27.1784 53.7359 26.1926 53.7661 26.1648C55.4954 24.5662 57.7476 23.0428 58.5557 22.5459C59.4002 22.0263 59.913 21.6332 60.2142 21.3692C60.5162 21.1051 60.6065 20.9718 60.6065 20.9718L60.6066 20.9714ZM51.4276 20.6605C51.8943 20.6603 52.9878 20.6267 53.4321 20.5194C53.6473 20.4675 53.8026 20.4088 53.9084 20.3688L53.9084 20.3688C54.021 20.3262 54.0775 20.3049 54.0905 20.3355C54.1158 20.3947 53.8715 20.5335 53.1068 20.8469C52.5474 21.0762 52.0331 21.2161 51.2038 21.4223C50.821 21.5376 50.2807 21.7114 50.2807 21.7114C50.2791 21.7093 50.2777 21.7071 50.2763 21.705L50.2734 21.7008L50.2735 21.7007C50.2632 21.6868 50.2552 21.6727 50.2483 21.6585L50.2459 21.6539C50.1977 21.548 50.2404 21.4401 50.2904 21.3633C48.7822 21.2525 48.0441 22.104 48.0441 22.104C47.9896 22.1452 47.9244 22.2233 47.8551 22.3208C48.0737 21.9862 48.5625 21.3507 49.2889 21.0336C50.1869 20.6413 50.807 20.6513 51.2612 20.6587C51.3193 20.6596 51.3747 20.6605 51.4276 20.6605ZM33.6414 35.8353C33.7638 35.3511 34.0775 33.9828 34.0775 33.9828C34.0775 33.9828 28.4274 39.0585 22.5706 40.7582C20.5757 41.3369 18.4262 41.8076 16.8252 41.8414L16.8592 41.8422C17.3302 41.8544 20.9521 41.9482 24.9175 40.4605C28.257 39.2407 31.541 37.2491 33.6414 35.8353ZM15.7691 37.6987C15.7683 37.8716 15.7446 38.0479 15.699 38.2276C15.6156 38.5346 15.4536 38.9058 15.1922 39.2888C15.0335 39.5224 14.7721 39.8177 14.7687 39.8211C14.7256 39.8236 14.5241 39.832 14.3544 39.8151C14.184 39.7983 14.0027 39.7679 13.9276 39.7536V39.7527C13.9173 39.7387 14.0202 39.6525 14.1799 39.5189C14.7385 39.0515 15.9916 38.003 15.5185 37.427L15.523 37.4263C15.5674 37.419 15.7593 37.3876 15.7691 37.6987ZM28.2816 27.811C29.4413 27.6587 30.2541 27.6899 30.965 27.7173C31.8626 27.7518 32.5978 27.7801 33.6636 27.4246C34.0362 27.0477 34.4707 26.6553 34.8128 26.3465L34.8262 26.3344C34.2857 26.508 33.8681 26.6112 33.4743 26.681C33.015 26.7717 32.6204 26.8037 32.094 26.8463C31.5953 26.8866 30.9783 26.9366 30.0759 27.0551C27.1612 27.4386 25.7981 28.3521 25.416 28.7051C25.3007 28.8117 25.2124 28.9039 25.0912 29.0726C25.0077 29.1886 24.9492 29.326 24.9401 29.3509C25.3978 28.7938 26.2037 28.0844 28.2816 27.811ZM32.1428 40.1422C32.2091 40.0058 32.2745 39.8713 32.3356 39.7426C32.571 39.2474 32.7329 38.8434 32.7329 38.8425C30.819 39.8582 27.7593 41.1598 24.9916 41.8085C19.5414 43.0864 16.0508 41.978 15.4527 41.7823L15.3743 41.757L15.3684 41.7553H15.3676C15.3665 41.7549 15.3655 41.7547 15.3647 41.7546C15.3635 41.7543 15.3626 41.7541 15.3616 41.7536C13.9707 41.5216 12.3147 40.8797 10.8579 39.3242C10.6715 39.1766 10.485 39.0222 10.2986 38.8602C10.309 38.8709 10.3394 38.9122 10.3872 38.9772C10.6045 39.2726 11.1804 40.0556 11.8533 40.6469C11.8335 40.6484 11.8126 40.6501 11.7904 40.6519C11.5198 40.6743 11.0429 40.7136 9.75368 40.5305C4.87204 39.8362 3.33509 36.0149 3.29544 35.5569C3.24651 35.5704 3.2018 35.5855 3.16553 35.6075C3.16553 35.6083 3.16469 35.6083 3.16469 35.6083C3.15288 35.6159 3.14107 35.6244 3.13103 35.6336C3.01032 35.7433 3.02896 36.0082 3.40856 36.8382C3.91882 37.9526 5.09136 39.4347 7.12939 40.3803C8.9928 41.2458 11.8305 41.2897 12.4041 41.2897C12.4557 41.2897 12.4893 41.2888 12.502 41.2888C12.5028 41.2888 12.5028 41.2897 12.5028 41.2897C12.5028 41.2897 17.3111 43.7773 23.4218 43.488C23.4221 43.488 23.4243 43.488 23.4284 43.488C23.6027 43.4899 27.1616 43.5289 31.503 41.8329C31.5006 41.8177 31.4997 41.8009 31.4997 41.7823C31.4997 41.4645 31.8315 40.7823 32.1428 40.1422Z" fill="#005778"/>
<path fill-rule="evenodd" clip-rule="evenodd" d="M47.8551 22.3209C47.9244 22.2234 47.9896 22.1454 48.0442 22.1041C48.0442 22.1041 48.7823 21.2526 50.2905 21.3635C50.2404 21.4402 50.1977 21.5481 50.2459 21.654L50.2484 21.6586C50.255 21.6728 50.2633 21.6869 50.2734 21.7009C49.3363 22.0199 47.7516 22.6486 47.2488 23.3936C47.2488 23.3936 47.5832 22.704 47.8551 22.3209ZM32.7329 38.8427C33.2736 37.5006 33.5613 36.2184 33.6414 35.8354C31.541 37.2492 28.257 39.2408 24.9175 40.4606C20.9521 41.9483 17.3302 41.8545 16.8592 41.8423C16.845 41.8419 16.8336 41.8416 16.8252 41.8415C16.8252 41.8415 15.5008 41.7841 15.3676 41.7554L15.4527 41.7824C16.0508 41.9781 19.5414 43.0866 24.9916 41.8086C27.7593 41.1599 30.819 39.8583 32.7329 38.8427Z" fill="white"/>
</svg>
