<svg width="64" height="64" viewBox="0 0 64 64" fill="none" xmlns="http://www.w3.org/2000/svg">
<path fill-rule="evenodd" clip-rule="evenodd" d="M31.3012 32.6713C31.3012 33.2433 31.766 33.7057 32.3372 33.7057H34.1065L34.2677 33.7065V40.264H26.6275C25.1152 40.264 23.8303 39.3082 23.3311 37.9677C23.1887 37.5864 23.1085 37.1755 23.1085 36.7434V21.9622C23.0832 20.8959 22.1756 20.0382 21.0577 20.0382C19.9227 20.0382 19.0028 20.9188 19.0028 22.0039H19.002L19.0004 22.1946V40.3164H10.8561V20.9221C10.8561 20.3509 10.3945 19.886 9.82165 19.886H7.04004L7.04249 13.0494H18.9963V14.3506C20.9407 12.8645 23.8009 12.335 26.4589 13.0069C28.139 13.4447 29.3862 14.2254 30.369 15.6576C30.8396 16.345 31.0737 17.0398 31.1923 17.5783C31.2619 17.8941 31.2905 18.156 31.3012 18.3287V24.2381L31.2995 25.802C31.2995 25.802 31.3012 26.1743 31.3012 26.7758V31.7482C31.3012 31.997 31.3012 32.2441 31.2995 32.4847C31.2995 32.4926 31.2999 32.4998 31.3004 32.507C31.3008 32.5139 31.3012 32.5208 31.3012 32.5281V32.6713ZM56.843 13.0494L56.8643 43.1209C56.8651 43.1848 56.8667 44.7708 56.8667 44.8338C56.8667 49.1457 53.9558 50.5099 52.6833 50.8986C51.7536 51.1613 50.6472 51.2939 49.472 51.3545H10.8528V43.4278L46.4834 43.4295C47.4507 43.4057 48.0595 43.0915 48.3362 42.4933C48.4474 42.179 48.4777 41.927 48.4777 41.5235V39.832C47.909 40.2109 46.8999 40.5284 46.8999 40.5284C44.7157 41.2993 40.6689 40.6953 39.0019 39.3761C37.3448 38.435 36.0403 36.4276 35.9044 34.2327V20.9024C35.9044 20.3304 35.4412 19.8664 34.8708 19.8664H32.7456V13.0494H44.2656L44.2542 31.2457C44.2509 32.3333 45.2231 33.2098 46.3713 33.2098C46.7706 33.2098 47.1413 33.1026 47.4597 32.9193C48.0088 32.6042 48.3934 32.0608 48.4745 31.4241C48.4818 31.3439 48.4867 31.2637 48.4892 31.1819C48.5006 30.9756 48.5047 30.7653 48.5047 30.5542V13.0494H56.843Z" fill="#A71930"/>
<path fill-rule="evenodd" clip-rule="evenodd" d="M30.1522 32.5567V32.6713C30.1522 33.8759 31.1326 34.8571 32.3372 34.8571H33.1163V39.1134H26.6275C25.6447 39.1134 24.7543 38.4923 24.4098 37.5667C24.3091 37.2983 24.2584 37.02 24.2584 36.7434V21.9622C24.2199 20.2559 22.7845 18.8884 21.0578 18.8884C19.2909 18.8884 17.8539 20.2862 17.8522 22.0039C17.8514 21.9966 17.8506 22.1881 17.8506 22.1881V39.1658H12.0059V20.9221C12.0059 19.7166 11.0271 18.7362 9.82167 18.7362H8.19067C8.19067 18.1017 8.19088 17.2853 8.19108 16.4688C8.19129 15.6521 8.19149 14.8352 8.19149 14.2H17.8473V16.6797L19.6952 15.2647C21.381 13.9766 23.8647 13.5372 26.1774 14.1223C27.6619 14.5094 28.635 15.1641 29.4198 16.309C29.7299 16.7599 29.9476 17.2697 30.0695 17.8254C30.0695 17.8254 30.144 18.3377 30.1522 18.3892V24.2381L30.1506 25.7995L30.1522 26.7783V31.7482L30.1506 32.5076L30.1522 32.5567ZM39.6468 38.4203L39.5691 38.3761C38.1746 37.5839 37.1664 35.8997 37.0551 34.1812V29.6654V20.9024C37.0551 19.6978 36.0755 18.7166 34.8709 18.7166H33.8954V14.2H43.115C43.1134 16.2189 43.1027 31.2522 43.1027 31.2555C43.1027 32.0477 43.4227 32.8038 43.9997 33.3841C44.6183 34.006 45.4825 34.3604 46.3713 34.3604C46.9539 34.3604 47.5284 34.2073 48.0325 33.9176C48.9008 33.4168 49.4933 32.5387 49.6144 31.5673L49.6193 31.5346L49.639 31.24L49.6545 30.5542V14.2H55.6949C55.6965 16.327 55.7153 44.8338 55.7153 44.8338C55.7153 48.2553 53.6039 49.4141 52.3461 49.8004C51.5286 50.0295 50.513 50.1482 49.4328 50.2047L49.242 50.2047C46.4558 50.205 14.0706 50.2086 12.0018 50.2047V44.5801H46.4834C48.2887 44.5359 49.0522 43.684 49.3796 42.9777L49.4041 42.9262L49.4213 42.8738C49.5932 42.386 49.6267 41.994 49.6267 41.5235V37.6772L47.837 38.8745C47.5268 39.084 46.8852 39.327 46.5521 39.4326L46.5169 39.4432C44.7174 40.0807 41.092 39.5627 39.7147 38.4735L39.6468 38.4203Z" fill="white"/>
</svg>
