<svg width="64" height="64" viewBox="0 0 64 64" fill="none" xmlns="http://www.w3.org/2000/svg">
<path fill-rule="evenodd" clip-rule="evenodd" d="M31.8322 13.0889C16.3124 13.0902 3.20001 21.7884 3.20001 32.0843C3.20001 42.8019 15.5099 50.8836 31.8322 50.8836C41.3586 50.8836 50.3903 47.5354 55.993 41.928C59.0771 38.8419 60.7731 35.3448 60.7697 32.0843C60.7656 27.0078 57.7793 22.2399 52.3612 18.6572C46.929 15.0658 39.639 13.0889 31.8322 13.0889" fill="#FFB612"/>
<path fill-rule="evenodd" clip-rule="evenodd" d="M11.8093 44.673C6.82981 41.3518 4.08673 36.8798 4.08673 32.0842C4.08673 22.4386 17.0522 13.9769 31.8322 13.9756C47.2914 13.9749 59.8742 22.0984 59.8836 32.0842C59.8863 35.1097 58.282 38.3824 55.3657 41.3013C49.926 46.7457 41.1288 49.9968 31.8322 49.9968C24.0652 49.9968 16.9538 48.1054 11.8093 44.673" fill="#203731"/>
<path fill-rule="evenodd" clip-rule="evenodd" d="M44.2532 27.1096C42.0243 23.7897 37.1439 21.4873 31.3969 21.4873C23.5093 21.4873 17.1135 25.826 17.1135 31.1774C17.1135 36.5281 21.628 41.2266 31.3969 41.2212C37.2631 41.2185 41.9798 38.685 44.1832 35.357L27.5205 35.386L27.4693 31.0574L56.3933 31.0473C56.4324 31.3943 56.4728 31.7326 56.4728 32.0843C56.4728 40.416 45.4405 47.1696 31.8322 47.1696C18.2246 47.1696 7.19299 40.416 7.19299 32.0843C7.19299 23.7527 18.8796 16.7437 31.8322 16.6932C42.6132 16.6521 51.7777 21.1066 55.1198 27.1029L44.2532 27.1096" fill="white"/>
</svg>
