<svg width="64" height="64" viewBox="0 0 64 64" fill="none" xmlns="http://www.w3.org/2000/svg">
<path fill-rule="evenodd" clip-rule="evenodd" d="M23.9633 14.5923C33.6362 8.55826 46.193 9.99482 54.2531 18.0576C60.471 24.2752 62.8811 33.3475 60.5688 41.8312L60.3008 42.8163H47.7116L48.5375 40.9415C48.666 40.6501 48.9002 40.0549 48.9002 40.0549L41.2081 40.0541L39.2263 42.8155H27.6867C30.1568 45.5709 33.6852 47.1414 37.3856 47.1326C38.6716 47.1339 39.9509 46.9466 41.1826 46.5767C41.363 46.5221 41.5505 46.4942 41.739 46.494C42.5725 46.5043 43.3013 47.0581 43.5345 47.8583C43.7678 48.6585 43.4507 49.5172 42.7534 49.9738C36.727 53.9077 29.0224 54.1976 22.7174 50.7278C19.4121 48.8933 16.7044 46.1467 14.9173 42.8155H2.56L12.085 21.2643H17.136L17.1444 21.2546L17.1557 21.2414C18.9871 18.6171 21.2966 16.3614 23.9633 14.5923ZM49.7597 41.4802H59.2796C61.7864 32.2839 58.4051 22.4908 50.7583 16.8003C43.1115 11.1098 32.7599 10.6832 24.6709 15.7253C30.6366 13.2867 37.424 13.9713 42.7825 17.5521C48.1411 21.1329 51.3705 27.142 51.4 33.5868H44.176L48.9205 26.9397C46.3001 20.1473 39.8279 15.53 32.1113 15.53C31.9803 15.53 31.8478 15.5314 31.7167 15.5342C26.241 15.6628 21.117 18.2603 17.7764 22.6008H12.955L4.61077 41.4802H15.7379C17.9909 46.2001 22.1715 49.7178 27.2072 51.1307C32.2428 52.5435 37.6432 51.714 42.0226 48.8549C42.2258 48.7218 42.3198 48.4726 42.2552 48.2384C42.1905 48.0042 41.982 47.8385 41.7393 47.8285C41.6815 47.8289 41.624 47.8377 41.5688 47.8547C40.2122 48.2623 38.8031 48.4686 37.3865 48.4672C32.1061 48.4672 27.4943 45.646 25.078 41.4793H25.7377C27.2744 41.4793 28.2825 40.656 29.0429 39.6334L31.4529 36.2425H23.3597C23.3094 35.7722 23.2842 35.2995 23.2843 34.8265C23.2843 27.5459 29.2116 21.579 36.6441 21.2045C36.8897 21.1919 37.137 21.1855 37.386 21.1855C39.3366 21.1747 41.2703 21.549 43.076 22.2868L43.0776 22.2875L29.3772 41.4802H38.5408L40.5121 38.7183H50.7345C50.4801 39.6623 50.1542 40.5856 49.7597 41.4802ZM32.4277 34.9066H24.6216C24.6216 34.8974 24.6213 34.888 24.621 34.8787C24.6209 34.8748 24.6207 34.871 24.6206 34.8671C24.6201 34.8537 24.6196 34.8402 24.6196 34.8268C24.6196 28.2777 29.9306 22.8801 36.7118 22.5385C36.9376 22.527 37.1643 22.5212 37.3855 22.5212C38.5854 22.5199 39.7803 22.6748 40.9403 22.9818L32.4277 34.9066ZM50.0078 32.2494C49.9127 31.0311 49.6935 29.8258 49.3535 28.6521L46.7869 32.2494H50.0078Z" fill="#003594"/>
<path d="M24.6709 15.7253C31.9861 12.7349 40.3842 14.4829 45.8987 20.1438C51.4132 25.8047 52.9407 34.2457 49.7597 41.4801H59.2796C61.7888 32.2834 58.4082 22.4885 50.7605 16.7973C43.1128 11.1061 32.7597 10.6807 24.6709 15.7253" fill="url(#paint0_linear_14_2254)"/>
<path fill-rule="evenodd" clip-rule="evenodd" d="M47.0859 29.5103L48.9184 26.9424C47.4522 24.8683 45.4265 23.2539 43.0774 22.2876L39.9277 26.7006C40.0825 26.6928 40.2386 26.6888 40.3959 26.6888C42.9156 26.6862 45.329 27.704 47.0859 29.5103ZM51.4 33.668C51.4012 35.3735 51.1775 37.0716 50.7345 38.7185L49.3534 38.7184C49.8528 37.047 49.8755 35.2694 49.4189 33.5858H51.4V33.668Z" fill="#D7D2CB"/>
<path fill-rule="evenodd" clip-rule="evenodd" d="M23.2833 34.8278C23.2833 35.3008 23.3085 35.7734 23.3589 36.2437L19.7656 36.2445C20.97 27.9789 28.0268 21.5564 36.6438 21.2058C29.2112 21.5796 23.2833 27.5465 23.2833 34.8278ZM23.3625 49.5584C29.2345 52.7892 36.4094 52.5192 42.0219 48.8562C42.2251 48.7231 42.3191 48.474 42.2545 48.2398C42.19 48.0056 41.9816 47.8399 41.7388 47.8298C41.681 47.8302 41.6236 47.839 41.5684 47.856C40.2117 48.2635 38.8026 48.4699 37.3861 48.4685C33.6375 48.4811 30.0339 47.021 27.3512 44.4026C25.1805 43.4697 22.2438 43.2944 20.216 43.3888C20.8436 45.6343 21.9134 47.7319 23.3625 49.5584Z" fill="#FFD100"/>
<path d="M25.077 41.4802H19.7992C19.9017 42.1238 20.0407 42.7611 20.2155 43.389V43.389C22.2433 43.2946 25.1799 43.4699 27.3507 44.4028C26.4647 43.5354 25.6999 42.5523 25.077 41.4802Z" fill="#FFA300"/>
<path d="M15.7379 41.4802C16.396 42.8559 17.2248 44.1431 18.2047 45.3116C18.7165 44.5232 19.405 43.865 20.2155 43.389C20.0407 42.7611 19.9017 42.1238 19.7992 41.4802L15.7379 41.4802Z" fill="#FF8200"/>
<path fill-rule="evenodd" clip-rule="evenodd" d="M37.386 21.1856C39.3366 21.1748 41.2702 21.549 43.076 22.2869C45.4257 23.2531 47.4521 24.8679 48.9185 26.9427L48.9206 26.9397C46.3002 20.1473 39.8278 15.53 32.1113 15.53C31.9803 15.53 31.8478 15.5315 31.7167 15.5342C26.2409 15.6629 21.117 18.2603 17.7763 22.6009H20.9031L14.8596 36.2433H19.766C20.9704 27.9777 28.0272 21.5552 36.644 21.2046C36.8896 21.1919 37.1369 21.1856 37.386 21.1856ZM18.2047 45.3112C18.7165 44.5228 19.405 43.8646 20.2155 43.3886H20.2157C20.8434 45.6341 21.9132 47.7317 23.3623 49.5582C21.396 48.4725 19.6475 47.0326 18.2047 45.3112Z" fill="url(#paint1_linear_14_2254)"/>
<path fill-rule="evenodd" clip-rule="evenodd" d="M4.61078 41.4802L12.9551 22.6008H20.9031L14.8596 36.2434H31.452L29.042 39.6342C28.2821 40.6575 27.2735 41.4802 25.7368 41.4802H4.61078ZM49.3536 38.7184C49.6135 37.8485 49.7455 36.9454 49.7453 36.0374C49.7453 35.2095 49.6355 34.3853 49.4187 33.5862H44.176L47.0859 29.5099C45.3291 27.7036 42.9157 26.6858 40.396 26.6885C40.239 26.6887 40.0829 26.6927 39.9278 26.7003L29.3772 41.4802H38.5408L40.5121 38.7184H49.3536Z" fill="white"/>
<defs>
<linearGradient id="paint0_linear_14_2254" x1="24.6695" y1="12.2155" x2="24.6695" y2="41.4802" gradientUnits="userSpaceOnUse">
<stop offset="0.217" stop-color="#FFD100"/>
<stop offset="0.296" stop-color="#FFD724"/>
<stop offset="0.474" stop-color="#FFE87F"/>
<stop offset="0.707" stop-color="white"/>
</linearGradient>
<linearGradient id="paint1_linear_14_2254" x1="14.8596" y1="49.5581" x2="48.9206" y2="49.5581" gradientUnits="userSpaceOnUse">
<stop stop-color="#FFA300"/>
<stop offset="0.134" stop-color="#FFA800"/>
<stop offset="0.289" stop-color="#FFB600"/>
<stop offset="0.453" stop-color="#FFCD00"/>
<stop offset="0.478" stop-color="#FFD100"/>
</linearGradient>
</defs>
</svg>
