<svg width="64" height="64" viewBox="0 0 64 64" fill="none" xmlns="http://www.w3.org/2000/svg">
<path fill-rule="evenodd" clip-rule="evenodd" d="M50.934 25.8633C46.623 23.3584 42.3799 23.938 39.1619 25.3717C39.0199 24.3136 38.7439 23.1523 38.2829 21.7934C37.6006 19.7722 36.8525 17.8406 36.1934 16.1357C35.3267 13.8967 34.6671 11.9783 34.3052 10.6951L31.9598 2.65649L29.5248 10.7004C29.1529 11.9783 28.5108 13.9068 27.6488 16.1478C26.9934 17.8538 26.2507 19.7876 25.5725 21.8088C25.1169 23.1698 24.8414 24.3322 24.7026 25.3918C21.4809 23.9645 17.2356 23.3934 12.9304 25.9078C9.41096 27.9661 7.52646 31.5422 8.01123 35.2424C8.45361 38.6087 10.7556 41.2535 14.017 42.1499L16.4462 42.8169L17.0406 40.3698C17.1259 40.0376 18.0022 36.9737 20.7614 37.0294C22.6756 37.0691 24.2644 38.7608 25.0591 39.8548C24.8022 40.6283 24.6655 41.5554 24.7964 42.5541L23.7156 41.1131L21.7611 42.57C20.0011 43.8807 17.4454 47.1205 19.0247 50.944C19.7135 52.6113 21.1942 53.7472 23.1937 54.1456C24.4165 54.3888 25.8056 54.3321 27.093 54.0492C27.5995 55.6751 28.523 57.6423 30.2024 59.3991L31.9741 61.2502L33.7399 59.3949C35.4162 57.6338 36.3338 55.6635 36.8387 54.037C38.1266 54.3151 39.5147 54.3692 40.7375 54.1228C42.7359 53.7212 44.2135 52.5811 44.8991 50.9122C46.4699 47.0844 43.9046 43.8505 42.1431 42.5441L40.1849 41.0929L39.1078 42.5356C39.2371 41.5369 39.0972 40.6108 38.8387 39.8357C39.6313 38.7411 41.2159 37.0453 43.1295 37.0018C45.8893 36.9398 46.7714 40.0015 46.8636 40.3512L47.4628 42.7973C47.4591 42.7788 49.8861 42.1064 49.8861 42.1064C53.147 41.2037 55.441 38.552 55.8755 35.1835C56.3518 31.4845 54.4583 27.912 50.934 25.8633" fill="black"/>
<path fill-rule="evenodd" clip-rule="evenodd" d="M31.1513 11.0443C30.854 12.444 30.0879 14.4361 29.2005 16.7444C28.5505 18.4345 27.8146 20.3497 27.1486 22.3365C26.5097 24.2453 26.249 25.6679 26.249 26.9945C26.249 27.4188 26.2978 27.8337 26.3476 28.2506C23.8909 26.5637 19.0501 24.2575 13.7706 27.3431C10.8382 29.058 9.26309 32.0006 9.65938 35.0252C10.0122 37.7155 11.8506 39.8326 14.4578 40.5489L15.2313 40.7608L15.4236 39.9799C15.4718 39.7886 16.6331 35.2853 20.7947 35.369C24.1441 35.4363 26.3333 38.6925 26.9245 39.6933C26.6432 40.2135 26.4095 40.9309 26.4095 41.7542C26.4095 42.6368 26.7099 43.6408 27.4766 44.6474C27.1709 45.0617 26.6702 45.5698 26.0858 45.618C25.2525 45.6864 24.409 44.809 23.8485 44.0599L23.3807 43.4358L22.755 43.9025C21.475 44.8567 19.3674 47.423 20.56 50.3099C21.0374 51.4638 22.0599 52.2262 23.5174 52.516C25.0241 52.8148 26.9261 52.543 28.2771 51.9274C28.5388 53.4516 29.28 56.0312 31.404 58.2506L31.9709 58.8434L32.5362 58.2495C34.6548 56.0238 35.3902 53.4421 35.6482 51.9168C37.0013 52.5292 38.9059 52.7973 40.4127 52.4932C41.8675 52.2002 42.8879 51.4347 43.3616 50.2808C44.5457 47.3918 42.4349 44.8297 41.1528 43.8787L40.5266 43.414L40.0598 44.0403C39.5004 44.7894 38.6585 45.6699 37.8246 45.6026C37.2408 45.555 36.7391 45.049 36.4323 44.6363C37.1936 43.6313 37.4919 42.631 37.4919 41.7505C37.4919 40.9224 37.2561 40.2024 36.9722 39.6805C37.5613 38.6792 39.7441 35.4156 43.0919 35.3409C47.2529 35.2477 48.4259 39.7489 48.4736 39.9407L48.668 40.7184L49.4415 40.5065C52.046 39.7844 53.8797 37.6641 54.2262 34.9727C54.6161 31.947 53.0346 29.0072 50.0985 27.2996C44.8084 24.2236 39.9698 26.5463 37.5189 28.2395C37.5645 27.8337 37.6116 27.431 37.6116 27.0173C37.6116 25.6763 37.3526 24.2305 36.7083 22.3238C36.0381 20.3407 35.298 18.4287 34.6448 16.7413C33.7515 14.4345 32.9812 12.4425 32.6808 11.0427L31.9115 7.45386L31.1513 11.0443" fill="white"/>
<path fill-rule="evenodd" clip-rule="evenodd" d="M31.9741 57.7097C34.9702 54.5627 35.0062 50.5934 35.0062 50.5934C36.3317 51.9147 41.483 52.7984 42.638 49.9841C43.9047 46.8943 40.6872 44.5071 40.6872 44.5071C37.5688 48.6872 35.4766 44.5961 35.4766 44.5961C37.8512 42.0297 36.0695 39.7161 36.0695 39.7161C36.2247 39.2515 38.8584 34.6539 43.075 34.5595C47.9349 34.4499 49.2334 39.7532 49.2334 39.7532C54.3296 38.3407 55.314 31.2361 49.706 27.9763C42.5897 23.8385 36.3895 30.1421 36.3895 30.1421C36.9664 27.7829 37.1307 26.0197 35.9672 22.5744C34.39 17.9032 32.4568 13.7294 31.9164 11.207C31.3808 13.7299 29.456 17.9106 27.8904 22.585C26.736 26.0335 26.9055 27.7967 27.4857 30.1537C27.4857 30.1537 21.2711 23.8655 14.1649 28.0192C8.56387 31.2928 9.56519 38.3937 14.6645 39.7945C14.6645 39.7945 15.9503 34.4886 20.8107 34.5876C25.0285 34.6713 27.6716 39.2626 27.8279 39.7262C27.8279 39.7262 26.0515 42.0451 28.4324 44.6051C28.4324 44.6051 26.3487 48.7031 23.2224 44.5299C23.2224 44.5299 20.0081 46.924 21.2833 50.0106C22.4457 52.8223 27.5938 51.9264 28.9161 50.6019C28.9161 50.6019 28.9617 54.5711 31.9635 57.7107" fill="black"/>
<path fill-rule="evenodd" clip-rule="evenodd" d="M44.7216 27.7541C38.9304 27.7599 34.1818 34.3369 34.1818 34.3369C34.3879 33.2608 36.8636 28.419 34.6231 22.632C32.3826 16.8455 31.9254 14.5144 31.9254 14.5144L31.9148 14.5806V14.516C31.9148 14.516 31.4618 16.8476 29.2351 22.6405C27.0078 28.4328 29.4957 33.2693 29.7034 34.3432C29.7034 34.3432 24.9394 27.7785 19.1482 27.7859C13.358 27.7923 8.53683 34.3824 13.8878 38.2743C13.8878 38.2743 15.4539 33.4118 20.851 33.4018C24.8202 33.3933 28.7969 37.6513 28.9654 39.7615C28.9654 39.7615 27.1482 42.3273 29.6748 44.4746C29.6748 44.4746 26.9453 50.2166 23.1609 46.0804C23.1609 46.0804 20.2507 49.7212 24.0563 50.6028C27.0756 51.3011 30.0494 48.2383 30.0494 48.2383C30.0494 48.2383 29.7251 53.0764 31.9614 55.7207V55.6968L31.9725 55.7196C34.203 53.0706 33.8671 48.2319 33.8671 48.2319C33.8671 48.2319 36.8483 51.2884 39.8676 50.5821C43.6705 49.6921 40.7513 46.0576 40.7513 46.0576C36.9775 50.2023 34.2358 44.4677 34.2358 44.4677C36.7556 42.3141 34.932 39.753 34.932 39.753C35.0952 37.6444 39.0607 33.3758 43.0316 33.3748C48.4297 33.3748 50.0069 38.232 50.0069 38.232C55.3489 34.3279 50.5118 27.7467 44.7216 27.7541" fill="#D3BC8D"/>
</svg>
