<svg width="64" height="64" viewBox="0 0 64 64" fill="none" xmlns="http://www.w3.org/2000/svg">
<path fill-rule="evenodd" clip-rule="evenodd" d="M52.7714 40.6391C49.9714 40.0793 46.2954 39.9307 44.7428 39.9307L7.79508 39.939C5.49639 39.939 3.11925 39.939 1.89941 38.0597C0.661883 36.1532 1.33433 34.2775 3.42126 30.5242C3.57698 30.2452 9.90501 18.3477 9.90501 18.3477C9.90501 18.3477 10.5515 19.1505 11.2033 19.6619C11.8468 20.1662 12.5081 20.4352 14.2712 20.4352C17.4027 20.4352 37.6043 20.3909 37.8102 20.3898C41.9109 20.3898 46.0529 20.8145 48.7368 23.7579C50.13 23.9065 54.6277 24.5011 58.3344 26.2736C60.5033 27.3094 61.9344 28.8578 62.4753 30.7489C62.6386 31.3205 62.7201 31.9216 62.7201 32.5444C62.7201 34.3394 62.0482 36.3272 60.7304 38.3929C57.9469 42.7591 55.3798 44.2851 55.2648 44.367C53.6828 45.4801 52.1509 45.532 52.1509 45.532C52.1509 45.532 53.5306 43.963 53.996 42.394C54.462 40.8249 52.7714 40.6391 52.7714 40.6391" fill="white"/>
<path fill-rule="evenodd" clip-rule="evenodd" d="M48.2248 24.7735C48.2248 24.7735 53.6521 25.21 57.8773 27.2303C62.1013 29.2506 62.8422 33.1106 59.8374 37.8236C57.1423 42.0476 54.4213 43.8396 54.4213 43.8396C54.4213 43.8396 57.0432 40.4114 52.9785 39.5979C49.9171 38.9868 45.9963 38.8701 44.7429 38.8701C44.0414 38.8701 40.6322 38.877 37.1304 38.8842H37.1292L37.1237 38.8842C33.4282 38.8918 29.6313 38.8995 28.806 38.8995C27.198 38.8995 26.7538 38.6801 26.4011 38.1947C26.049 37.711 25.9876 37.0491 26.6471 36.0576C27.3089 35.0666 28.314 33.5141 28.314 33.5141L23.9697 30.0186C27.615 26.3809 30.5266 25.1611 33.0683 25.1611C35.6454 25.1611 36.7815 25.5398 41.0238 27.32C45.2667 29.1014 46.6688 27.2073 46.6688 27.2073C44.8874 27.9647 43.2965 27.32 40.303 25.9951C37.3106 24.6685 35.5304 24.0633 32.8418 24.0633C30.1514 24.0633 27.8793 24.8201 25.0326 26.9141C24.8234 27.068 24.6293 27.2123 24.4473 27.3477C22.2972 28.9462 21.834 29.2907 18.1082 29.2907H5.26813L10.2129 20.0322C10.2129 20.0322 10.5828 21.4951 14.2712 21.4951C17.4399 21.4951 37.8102 21.4503 37.8102 21.4503C41.8549 21.4503 45.8565 21.8791 48.2248 24.7735ZM50.1336 26.4169C50.1336 26.4169 48.4908 27.5294 50.4126 27.9895C54.255 28.5215 61.7728 29.9295 56.707 38.4359C53.1454 36.582 46.4057 34.1565 37.9512 34.1517C34.2516 34.3606 32.8394 35.1115 30.969 37.8968H28.9222C30.6593 34.8378 32.3469 33.0416 35.971 33.0416H40.4451C40.5742 33.0416 40.7002 33.042 40.8234 33.0424C43.1941 33.05 44.5111 33.0542 45.9656 30.1283C46.0122 30.0357 46.0577 29.9478 46.1019 29.8623C46.3396 29.2311 47.3683 26.9755 50.1336 26.4169ZM34.6769 37.8637C35.6224 36.4345 37.5448 35.949 40.6445 36.1278C48.2938 36.5708 52.6918 38.0602 56.1089 39.3331C51.8955 36.8669 44.3866 35.089 39.1675 35.1055C36.6169 35.1132 34.3896 35.5591 33.0813 37.8637H34.6769ZM36.8529 31.0367C40.5767 31.2909 41.8897 30.8161 42.8866 29.4252C43.4593 29.4972 44.0639 29.5042 44.7358 29.4205C44.3789 30.1991 43.4387 31.9504 39.5468 31.9504H35.3611C33.122 31.9504 31.4716 31.6944 28.9965 29.2465C28.9965 29.2465 31.4214 26.6912 34.7412 26.8959C34.5017 27.3306 34.2657 27.7624 34.1277 28.0166C34.1312 28.0184 34.1425 28.0184 34.1425 28.0184C34.1326 28.036 34.1225 28.0539 34.1122 28.0722C33.5964 28.9876 32.6046 30.7481 36.8529 31.0367Z" fill="#002244"/>
<path fill-rule="evenodd" clip-rule="evenodd" d="M40.9973 29.0111C40.9182 28.9792 40.8362 28.9456 40.7543 28.912C40.3726 29.3143 39.7143 29.5473 39.0767 29.4653C38.2373 29.3579 37.7536 28.748 37.9919 28.1045C38.0261 28.0101 38.0763 27.9216 38.1359 27.8367C37.7058 27.668 37.2735 27.5058 36.8523 27.3589C35.9899 28.7539 35.4844 29.6782 38.4768 29.9307C40.3408 30.0894 40.8463 29.7702 41.2379 29.1013C41.1577 29.0707 41.0799 29.0441 40.9973 29.0111" fill="#69BE28"/>
<path fill-rule="evenodd" clip-rule="evenodd" d="M25.9687 34.311C24.4251 36.9902 23.8128 37.6054 24.8969 38.8771C24.8969 38.8771 10.9149 38.8771 7.79509 38.8771C5.27284 38.8771 3.63302 38.7822 2.78952 37.4815C1.96902 36.2186 2.13772 35.0141 4.34852 31.0391C4.34852 31.0391 16.3864 31.0391 18.8892 31.0391C21.3926 31.0391 22.0361 31.1818 23.3946 32.2359C24.753 33.2912 25.9687 34.311 25.9687 34.311" fill="#A5ACAF"/>
</svg>
