<svg width="64" height="64" viewBox="0 0 64 64" fill="none" xmlns="http://www.w3.org/2000/svg">
<path fill-rule="evenodd" clip-rule="evenodd" d="M7.67999 32.0235C7.67999 45.4208 18.5792 56.32 31.9765 56.32C45.3733 56.32 56.273 45.4208 56.273 32.0235C56.273 18.6267 45.3733 7.72754 31.9765 7.72754C18.5792 7.72754 7.67999 18.6267 7.67999 32.0235" fill="black"/>
<path fill-rule="evenodd" clip-rule="evenodd" d="M31.9765 55.7873C45.1 55.7873 55.7396 45.1477 55.7396 32.0236C55.7396 18.9001 45.1 8.2605 31.9765 8.2605C18.8524 8.2605 8.21283 18.9001 8.21283 32.0236C8.21283 45.1477 18.8524 55.7873 31.9765 55.7873" fill="#A5ACAF"/>
<path fill-rule="evenodd" clip-rule="evenodd" d="M31.9765 51.9051C42.9243 51.9051 51.7998 43.0297 51.7998 32.0819C51.7998 21.134 42.9243 12.2581 31.9765 12.2581C21.0281 12.2581 12.1527 21.134 12.1527 32.0819C12.1527 43.0297 21.0281 51.9051 31.9765 51.9051" fill="#FFFFFE"/>
<path fill-rule="evenodd" clip-rule="evenodd" d="M32.0793 32.1089C32.3083 23.9893 39.9781 22.083 41.9051 22.2579C37.1548 21.9999 32.4667 19.9926 32.1044 12.4807C31.5322 19.4663 28.7291 21.4523 22.2693 22.2814C26.8835 22.5153 31.5541 24.3412 32.0793 32.1089" fill="#FFB612"/>
<path fill-rule="evenodd" clip-rule="evenodd" d="M41.9324 42.1587C42.1614 34.0391 49.6962 32.0355 51.6237 32.2104C46.8576 32.0345 42.2668 29.7691 41.905 22.2578C41.3328 29.2439 38.539 31.2797 32.0792 32.1088C36.6935 32.3427 41.4066 34.391 41.9324 42.1587" fill="#C60C30"/>
<path fill-rule="evenodd" clip-rule="evenodd" d="M32.1984 51.8226C32.4268 43.7019 40.0048 41.9837 41.9324 42.1585C37.1821 41.9 32.4416 39.6211 32.0793 32.1086C31.5071 39.0948 28.787 41.1934 22.3278 42.0219C26.9415 42.2569 31.6727 44.0555 32.1984 51.8226" fill="#00539B"/>
<path fill-rule="evenodd" clip-rule="evenodd" d="M17.0823 29.6591C17.1631 29.8013 17.244 30.0133 17.2326 30.3904H16.6849L16.3871 30.3926C16.38 30.262 16.3603 30.0925 16.274 30.0133C16.1461 29.8969 15.8564 29.9614 15.7799 30.1232C15.6411 30.4139 15.8187 30.6871 16.2658 30.8298C16.2617 30.8298 16.281 30.8391 16.3055 30.8504L16.3284 30.861L16.3307 30.8621L16.3494 30.8707L16.3668 30.8789C16.3819 30.886 16.3915 30.891 16.3887 30.891C16.8112 31.097 16.9281 31.1982 17.0861 31.4211C17.1336 31.4883 17.2265 31.6638 17.2643 31.878C17.3446 32.336 17.2293 32.6202 17.126 32.871C17.126 32.871 17.0866 32.9896 16.9779 33.0907C16.5341 33.505 15.9193 33.523 15.4635 33.3066C15.2536 33.2061 15.0919 33.1088 14.9765 32.8497C14.8629 32.5956 14.8372 32.365 14.87 31.9901L15.7209 31.9851C15.705 32.1043 15.74 32.4054 15.8198 32.489C15.8991 32.5721 16.2215 32.653 16.3456 32.4333C16.3893 32.3562 16.4002 32.0212 16.2647 31.8922C16.1067 31.7404 15.9622 31.6731 15.8037 31.5993L15.8037 31.5992C15.7061 31.5538 15.6032 31.5059 15.4886 31.4342C15.0596 31.1664 14.8317 30.6861 14.859 30.2303C14.8722 30.0144 14.9312 29.8641 15.0361 29.675C15.141 29.4881 15.2897 29.3176 15.5045 29.2236C16.0761 28.9727 16.7746 29.1159 17.0823 29.6591ZM30.0429 31.3424C30.0374 31.0735 29.9883 30.7948 29.838 30.6434C29.5702 30.3718 29.0679 30.2325 28.664 30.4287C28.6536 30.4337 28.6434 30.4382 28.6334 30.4424L28.6119 30.451L28.5914 30.4589L28.5905 30.4592C28.5004 30.4935 28.4115 30.5273 28.2514 30.7254C28.1552 30.844 28.1279 31.02 28.1186 31.1725C28.0995 31.4949 28.2061 31.9201 28.6449 32.0311C28.6835 32.0408 28.7229 32.0497 28.7624 32.0587L28.7625 32.0588L28.7628 32.0588C28.9747 32.1071 29.1902 32.1561 29.3002 32.3223C29.3698 32.4271 29.3521 32.4723 29.3214 32.5506L29.3214 32.5506L29.3188 32.5573C29.2729 32.6743 29.0122 32.6727 28.9078 32.6317C28.8045 32.5923 28.74 32.4715 28.7537 32.3672L28.0858 32.3715L28.0878 32.4135C28.0989 32.6469 28.106 32.7964 28.199 32.9765C28.2941 33.1612 28.4859 33.2957 28.6619 33.3492C29.0204 33.458 29.415 33.4389 29.7073 33.2585C29.7609 33.2252 29.9112 33.0886 29.9724 32.9787C30.073 32.7951 30.1325 32.5601 30.0424 32.2518L30.0375 32.235L30.0375 32.2349L30.0375 32.2348C29.9994 32.1018 29.9943 32.0842 29.9686 32.0343C29.8152 31.7419 29.6197 31.6765 29.4164 31.6086L29.3936 31.6009C29.3972 31.6009 29.348 31.5892 29.2988 31.5774L29.2342 31.5619L29.2113 31.5562L29.2059 31.5547C29.2042 31.5542 29.2035 31.5539 29.204 31.5539C28.8313 31.5119 28.8083 31.3009 28.8575 31.1577C28.8985 31.0391 28.993 30.9998 29.1155 30.9998C29.2193 31.0009 29.3215 31.0735 29.3406 31.1501C29.3524 31.1992 29.3523 31.2549 29.3521 31.3177L29.3521 31.3392L30.0429 31.3424ZM26.5561 30.3729V33.346H27.3448V31.6228C27.3454 31.6101 27.3457 31.5972 27.3461 31.5842C27.3508 31.412 27.3562 31.2135 27.9754 31.2572V30.3516H27.7831C27.5196 30.4106 27.4497 30.533 27.3333 30.738L27.33 30.3647L26.5561 30.3729ZM17.667 30.3751L17.3517 30.3849L17.355 31.0714L17.6523 31.0615L17.6583 32.6393C17.6612 33.3751 18.2155 33.3652 18.6073 33.3582H18.6073C18.6616 33.3572 18.7128 33.3563 18.759 33.3574L18.7595 32.4666C18.4639 32.4711 18.4647 32.4174 18.4668 32.2841L18.4668 32.2837L18.467 32.2651L18.4671 32.2475V31.0768L18.7737 31.0817L18.7705 30.3784L18.4671 30.3849L18.4639 29.6635L17.667 30.1007V30.3751ZM23.2973 33.3717V29.1821L24.1001 29.1842V33.3717H23.2973ZM24.9942 32.5049C24.9953 32.7716 25.5779 32.8262 25.5921 32.4901V32.4054L26.2479 32.4021L26.249 32.7524C26.2556 32.9852 26.1588 33.2383 25.7653 33.3738C25.3834 33.4928 25.1327 33.4376 24.9058 33.3876L24.9058 33.3875L24.8808 33.3821L24.8428 33.3738C24.522 33.2563 24.3662 33.0011 24.3515 32.6415V31.191C24.3367 30.9189 24.4881 30.6817 24.751 30.509C25.1991 30.3133 25.444 30.3658 25.7806 30.4822C26.1014 30.6571 26.2463 30.8735 26.2495 31.1758V32.0961H24.9915L24.9942 32.5049ZM25.0226 31.4747L25.6161 31.4769C25.7385 30.9571 24.9231 30.8899 25.0226 31.4747ZM21.7998 32.5049C21.8014 32.7716 22.384 32.8262 22.3988 32.4901V32.4054L23.054 32.4021L23.0557 32.7524C23.0611 32.9852 22.965 33.2383 22.5715 33.3738C22.1896 33.4928 21.9389 33.4376 21.7119 33.3876L21.7119 33.3875L21.6797 33.3805L21.6489 33.3738C21.3281 33.2563 21.1724 33.0011 21.1576 32.6415V31.191C21.1429 30.9189 21.2948 30.6817 21.5571 30.509C22.0053 30.3133 22.2507 30.3658 22.5862 30.4822C22.9076 30.6571 23.0519 30.8735 23.0557 31.1758V32.0961H21.8009L21.7998 32.5049ZM21.8287 31.4747L22.4223 31.4769C22.5447 30.9571 21.7293 30.8899 21.8287 31.4747ZM19.6247 32.5049C19.6263 32.7716 20.2089 32.8262 20.2236 32.4901V32.4054L20.8789 32.4021L20.8805 32.7524C20.8866 32.9852 20.7898 33.2383 20.3963 33.3738C20.0141 33.4929 19.7628 33.4374 19.5361 33.3874L19.536 33.3874C19.5151 33.3828 19.4944 33.3782 19.4738 33.3738C19.153 33.2563 18.9972 33.0011 18.9825 32.6415V31.191C18.9677 30.9189 19.1197 30.6817 19.382 30.509C19.8296 30.3133 20.0755 30.3658 20.4111 30.4822C20.7324 30.6571 20.8767 30.8735 20.8805 31.1758V32.0961H19.6257L19.6247 32.5049ZM19.6536 31.4747L20.2471 31.4769C20.3695 30.9571 19.5541 30.8899 19.6536 31.4747Z" fill="black"/>
</svg>
