<svg width="64" height="64" viewBox="0 0 64 64" fill="none" xmlns="http://www.w3.org/2000/svg">
<path fill-rule="evenodd" clip-rule="evenodd" d="M21.114 35.6836C21.1742 36.4047 21.4305 37.8396 22.2602 39.4407C23.2855 41.418 25.4334 44.0543 29.8633 45.5475C30.5664 46.6509 31.3937 47.6824 32.3302 48.6158C35.6976 51.9732 40.1709 53.8189 44.926 53.8115C49.6817 53.8047 54.1495 51.9466 57.5069 48.5785C60.8644 45.2117 62.7107 40.7384 62.7033 35.9833C62.6958 31.227 60.8377 26.7593 57.4709 23.4018C54.803 20.7412 51.456 19.0296 47.774 18.4357C42.7893 13.922 36.9698 15.5393 36.7204 15.6119C36.6366 15.6355 36.5118 15.6715 36.3567 15.7187C34.5656 16.3145 33.6397 15.6318 33.0395 15.1614C32.3749 14.6401 31.6494 14.1107 30.9493 13.7172C28.5718 12.3798 25.1926 12.332 22.3465 13.4795C20.4717 14.1181 19.5265 13.2921 18.9673 12.9061C15.2542 10.3442 10.689 9.73292 5.84583 10.7991C2.58454 11.5178 1.28003 12.1812 1.28003 12.1812C1.28003 12.1812 3.51421 12.5052 5.84831 13.4808C7.76474 14.2813 9.28833 15.3091 10.442 17.1548C10.442 17.1548 11.1681 18.221 10.6965 18.5356C10.1683 18.8875 9.61849 18.0261 9.61849 18.0261C9.6005 18.6461 9.6005 19.263 9.64146 19.7315C9.90956 24.6548 10.9137 27.612 13.2881 29.8716C14.3686 30.8993 16.1913 31.8991 19.0076 33.0057C20.2923 33.5195 20.9874 34.178 21.114 35.6836" fill="white"/>
<path fill-rule="evenodd" clip-rule="evenodd" d="M56.6679 24.206C54.085 21.6305 50.8063 20.0058 47.2577 19.5068C42.6311 15.08 37.0363 16.7023 37.0363 16.7023C38.2216 16.8785 39.0092 17.5854 38.7057 18.3686C38.504 18.8862 37.6432 18.9135 37.2498 18.9172C35.9999 18.9309 34.9206 18.1644 34.0592 17.4644C33.1637 16.7358 31.7022 15.4431 30.3927 14.707C27.955 13.3361 24.0842 13.5068 21.2828 15.2954C22.9578 15.4089 24.9736 15.8911 26.1757 16.8866C26.8466 17.4427 27.7024 18.5604 27.0023 19.0823C26.3873 19.5415 24.8761 19.3045 24.1078 18.8595C22.8865 18.1526 21.7861 17.0808 21.1271 16.3038C16.6928 11.0802 10.411 10.7885 5.23022 12.0682C8.63053 13.0227 10.8995 14.9596 12.3008 18.2985C13.7027 21.6373 14.7913 23.0585 17.1006 23.9634C18.5466 24.5294 18.9376 24.6342 18.8246 25.2753C18.6583 26.2137 16.9454 25.7631 15.639 25.253C14.0472 24.6318 11.9501 22.9158 10.7015 19.6973C10.9286 23.8616 11.723 26.8144 14.0701 29.0486C15.0675 29.9969 16.8989 30.9781 19.7648 32.0809C21.5944 32.7853 23.0429 33.2116 24.4057 34.4324C25.9951 35.856 25.318 36.7963 24.2636 36.6181C23.0708 36.4171 22.2193 35.1988 22.2193 35.1988C22.2193 35.1988 22.2212 41.9833 30.6074 44.5948C31.3056 45.7529 32.1496 46.8327 33.1321 47.8114C36.2847 50.9554 40.4726 52.6825 44.9242 52.6757C49.3764 52.6689 53.5593 50.9299 56.7033 47.7766C59.8467 44.624 61.5751 40.4361 61.5676 35.9839C61.5614 31.5323 59.8212 27.3494 56.6679 24.206" fill="#002244"/>
<path fill-rule="evenodd" clip-rule="evenodd" d="M55.7822 25.0501C53.2806 22.549 50.0695 21.0155 46.6041 20.6363C43.6221 17.6642 40.6469 17.8039 40.6469 17.8039C41.9526 18.6225 41.2793 20.4446 38.3748 20.8461C35.4983 21.2433 31.8448 20.2683 30.0656 18.1955C28.2317 16.0593 26.8471 15.9619 26.8471 15.9619C28.4377 16.9555 28.5507 18.1483 29.5163 19.9654C30.482 21.7832 32.4698 22.4355 34.2013 22.549C36.0252 22.6688 36.0699 23.4942 34.5991 24.3668C32.9948 25.3175 31.5749 24.4189 30.5428 23.4024C28.9131 21.795 27.2902 21.4872 25.0473 21.5157C22.8045 21.5443 19.8398 21.8391 17.3369 20.9026C14.834 19.9654 13.1838 16.6719 13.1838 16.6719C14.4213 21.0447 17.1712 23.1175 19.7238 23.6183C23.0955 24.2793 25.4265 25.0817 26.8527 26.2367C28.2453 27.3662 28.9869 28.4926 29.5101 30.0472C29.9141 31.2456 29.9861 32.8368 29.5877 32.9324C29.1229 33.0428 29.0273 32.4024 28.4793 31.2853C27.8742 30.0515 27.1518 29.0834 25.6946 28.3064C23.7199 27.2532 21.7873 27.314 19.8169 27.3413C18.256 27.3631 17.3407 27.1843 17.3407 27.1843C17.3407 27.1843 17.4058 27.3953 19.9491 27.9663C22.7827 28.6018 25.524 30.1992 27.3485 34.0935C28.9007 37.4057 28.0908 39.7367 24.652 38.6817C24.652 38.6817 26.2581 42.252 31.5041 43.5236C32.1812 44.714 33.0227 45.8205 34.017 46.8153C36.9239 49.7216 40.7884 51.3222 44.8993 51.3222C49.0102 51.3222 52.8741 49.7216 55.7822 46.8153C58.6885 43.9078 60.2891 40.0433 60.2891 35.9318C60.2891 31.8215 58.6885 27.957 55.7822 25.0501" fill="#4B92DB"/>
<path fill-rule="evenodd" clip-rule="evenodd" d="M44.8993 21.2949C48.8092 21.2949 52.485 22.8173 55.2498 25.5821C58.0152 28.3469 59.5376 32.0227 59.5376 35.9319C59.5376 44.0035 52.9709 50.5708 44.8993 50.5708C40.9895 50.5708 37.3137 49.0478 34.5483 46.283C31.7835 43.5182 30.2611 39.8424 30.2611 35.9319C30.2611 32.0227 31.7835 28.3469 34.5483 25.5821C37.3137 22.8173 40.9895 21.2949 44.8993 21.2949" fill="white"/>
<path fill-rule="evenodd" clip-rule="evenodd" d="M44.918 49.3077C37.5322 49.3189 31.5346 43.3394 31.5235 35.9529C31.5129 28.5658 37.4931 22.5689 44.8795 22.5584C52.266 22.5472 58.2635 28.5274 58.2741 35.9138C58.2852 43.3009 52.3057 49.2978 44.918 49.3077" fill="#002244"/>
<path fill-rule="evenodd" clip-rule="evenodd" d="M41.6287 33.2266H37.6649L36.3585 35.5557L34.6016 30.5747H55.1591L53.4053 35.5557L52.1095 33.2266H48.2127L44.9123 47.665L41.6287 33.2266" fill="white"/>
<path fill-rule="evenodd" clip-rule="evenodd" d="M55.1591 30.5747H34.6016L34.9348 31.5186H44.7373L41.6287 33.2266L44.9123 47.6631V31.5186H54.8271L55.1591 30.5747" fill="#A5ACAF"/>
<path fill-rule="evenodd" clip-rule="evenodd" d="M14.5889 16.7631C12.1512 12.3885 9.36157 12.4561 9.36157 12.4561C12.6849 11.8417 15.4714 12.8806 17.5784 16.6148C19.6401 20.2683 23.4078 20.3657 23.4078 20.3657C20.5474 21.1762 16.6382 20.4402 14.5889 16.7631ZM29.1787 16.6071C30.8097 17.9312 32.0569 18.9437 34.807 19.0221C33.5599 18.5571 32.6797 17.7809 31.1391 16.4224L31.1391 16.4224L31.1385 16.4219C30.9605 16.2649 30.7736 16.1001 30.5764 15.9271C28.4446 14.0579 25.4849 14.0933 23.9799 14.9547C23.9799 14.9547 26.4934 14.4476 28.7592 16.2679C28.9025 16.3829 29.042 16.4961 29.1787 16.6071ZM25.1523 33.6368C25.1523 33.6368 24.7576 29.5718 18.9636 28.3927C13.1311 27.2061 12.3796 24.1707 12.3796 24.1707C12.3796 24.1707 12.4187 28.5478 17.4375 29.8933C17.6898 29.9609 17.9373 30.0265 18.18 30.0907L18.18 30.0908L18.18 30.0908C21.3081 30.9195 23.6324 31.5352 25.1523 33.6368ZM46.1201 26.9435L46.9082 29.2882L44.8993 27.8459L42.9122 29.3192L43.6637 26.9628L41.6486 25.5292L44.1217 25.4994L44.8633 23.1553L45.6403 25.4994H48.1141L46.1201 26.9435ZM38.0832 37.5782L36.4461 39.4326L34.1815 38.439L35.4388 40.5689L33.7942 42.4165L36.2078 41.8784L37.457 44.0133L37.691 41.5507L40.1076 41.0238L37.8381 40.0402L38.0832 37.5782ZM52.0996 41.5675L49.6743 41.0772L51.9289 40.0582L51.6466 37.6006L53.3117 39.4295L55.5601 38.4018L54.3363 40.5503L56.0088 42.3718L53.5872 41.8716L52.3714 44.0257L52.0996 41.5675Z" fill="#C60C30"/>
</svg>
