<svg width="64" height="64" viewBox="0 0 64 64" fill="none" xmlns="http://www.w3.org/2000/svg">
<path fill-rule="evenodd" clip-rule="evenodd" d="M30.297 18.9747C30.5655 18.9435 30.8379 18.909 31.1159 18.8733L31.1772 18.8655L31.1773 18.8655C31.5404 18.8191 31.9101 18.7719 32.2899 18.7318C33.226 18.6327 33.9975 18.6246 34.7156 18.7067C36.136 18.8344 37.4969 19.2866 38.1434 19.5877C39.9426 20.3484 41.3601 22.1802 41.6108 24.0963L41.6079 24.097L41.6101 24.1085L41.6102 24.1086L41.6102 24.1086C41.6196 24.1578 41.6291 24.2071 41.6368 24.2568L41.641 24.2852L41.6455 24.3164C41.6557 24.3845 41.6651 24.4529 41.6721 24.5223L41.6722 24.5231L41.6724 24.5244C42.1183 24.4716 44.4652 24.2063 46.4223 24.2198C48.1677 24.2314 49.7161 24.4141 50.461 24.5352C49.6959 22.8295 48.5126 20.8285 46.724 19.1341C42.6811 15.3042 37.6846 13.4738 33.5139 13.2825C33.5139 13.2825 33.4504 14.0305 32.9988 14.9869C32.8384 15.3262 32.6302 15.6917 32.3572 16.0597C31.9649 16.5873 31.1791 17.6723 30.4564 18.765C30.4323 18.802 30.297 18.9747 30.297 18.9747ZM29.7745 26.5393L29.6058 26.4968L29.605 26.4966L29.6029 26.496L29.6028 26.496L29.6026 26.496L29.6025 26.4959L29.6023 26.4959L29.6022 26.4959C29.5087 26.4723 29.4149 26.4486 29.3203 26.425C29.0148 26.3481 28.705 26.2758 28.396 26.2041L28.2272 26.1649C27.9411 26.0986 27.6558 26.0325 27.3744 25.9639C27.3561 26.0485 27.339 26.1326 27.3237 26.2162C27.2746 26.5168 27.2335 26.8235 27.1992 27.1289C27.9692 26.9291 28.8793 26.7152 29.7562 26.5604C29.777 26.5571 29.7969 26.5536 29.8175 26.5503L29.8024 26.5463L29.7799 26.5406L29.7797 26.5406L29.7745 26.5393ZM34.0024 40.4013C33.7519 40.5997 32.6907 41.8489 32.299 43.3892C31.9679 44.6898 31.9972 45.1237 32.0224 45.4983C32.0243 45.5263 32.0262 45.554 32.0279 45.5818C31.9268 45.5112 31.8091 45.4342 31.6791 45.3492C30.5588 44.6162 28.5302 43.289 28.4253 40.3897C28.3709 38.8926 28.4912 37.5497 28.7715 36.5916C28.7317 36.6399 28.686 36.694 28.6402 36.7482L28.6186 36.7738C25.8225 40.1395 22.6841 40.3846 19.7054 40.6174L19.7053 40.6174L19.7052 40.6174L19.7052 40.6174L19.7051 40.6174L19.705 40.6174C19.2543 40.6526 18.8073 40.6875 18.3657 40.7329C17.8681 40.784 16.0009 41.161 15.5091 41.2676C16.7066 39.9866 18.7786 38.1039 20.1312 37.18C22.746 35.3948 27.2906 33.5328 27.2906 33.5328C25.2354 34.6642 23.5738 36.4985 23.5738 36.4985C24.8525 35.6327 29.3178 33.0533 29.3178 33.0533C28.1261 34.1884 24.7303 37.1815 22.7165 38.5138C25.2789 37.3055 27.4467 35.7389 28.615 34.6339C30.0764 33.2529 32.271 31.9206 33.2638 31.4078C33.7506 31.8876 34.455 32.3271 35.085 32.5864C34.9515 32.6804 34.8215 32.7712 34.6951 32.8595C33.2256 33.8862 32.2373 34.5767 31.795 36.0543C31.795 36.0543 33.0281 34.4714 34.8055 33.5019C35.1394 33.3196 35.5014 33.095 35.8727 32.8397C36.2723 32.934 37.1396 33.0136 37.5641 33.0136L37.6692 32.9693C37.6325 32.9972 37.5669 33.0381 37.5028 33.0779C37.4468 33.1127 37.3919 33.1468 37.3588 33.1709C36.6425 33.6964 35.939 34.1403 35.2721 34.561C32.777 36.1353 30.7939 37.3864 30.5672 41.3864C30.5672 41.3864 30.9967 38.0833 33.6093 36.4085C33.9886 36.1655 34.445 35.902 34.944 35.6138L34.9442 35.6137L34.9443 35.6136C36.3925 34.7772 38.1995 33.7337 39.5218 32.3848C40.8838 31.7617 41.7407 30.6958 42.1841 29.2136C42.1872 29.2012 42.191 29.1841 42.1941 29.1675C42.3792 29.1492 42.564 29.1287 42.7503 29.108C43.0065 29.0794 43.2655 29.0506 43.5318 29.027C43.479 29.5625 43.3625 30.2895 43.1019 31.0334C42.7834 32.0283 42.2479 33.1358 41.3037 34.29C40.5546 35.2054 39.737 35.97 38.8738 36.7771L38.8738 36.7771C37.7799 37.8001 36.613 38.8914 35.4197 40.4445C33.285 43.2238 32.831 46.0557 32.831 46.0557C32.3551 42.5992 34.0024 40.4013 34.0024 40.4013ZM24.733 40.4905L24.7983 40.484C26.4587 40.0682 27.9589 38.2728 27.9589 38.2728C27.7833 38.8797 27.9142 40.7336 27.9142 40.7336C27.9142 40.7336 27.2661 40.9893 26.4761 40.9893C25.6861 40.9893 24.733 40.4905 24.733 40.4905ZM35.5957 48.7415C35.1448 48.3993 33.8429 47.429 33.0452 46.986C32.068 46.4441 31.001 45.8469 30.585 45.4791C30.585 45.4791 30.5765 47.195 31.417 48.5053C31.951 49.338 33.2719 50.1083 34.34 50.7312C34.5248 50.839 34.7021 50.9423 34.8664 51.0409C34.9628 50.6781 35.2213 49.7466 35.5957 48.7415ZM35.8363 48.1275C35.2969 47.6997 34.3193 47.0895 33.5104 46.5864C33.5468 45.9281 33.7835 44.6893 34.4596 43.1509C35.218 41.4267 37.1529 39.3111 37.1529 39.3111C37.7968 39.9785 38.641 41.3417 38.305 43.1189C38.0881 44.2656 37.6576 44.9252 37.1472 45.7073C36.867 46.1367 36.5626 46.6031 36.2563 47.2073C36.1075 47.5011 35.967 47.8132 35.8363 48.1275ZM46.6346 29.9294C46.6346 29.9294 46.5297 29.0289 46.9793 28.7293C47.4298 28.4297 49.0046 28.5496 49.5295 28.6094C49.5983 28.6173 49.6883 28.6287 49.7946 28.6423L49.7949 28.6423L49.795 28.6423C50.5003 28.7323 51.9242 28.9138 52.6803 28.7445C53.5495 28.5496 53.9401 28.3696 53.9401 28.3696C53.9401 28.3696 53.73 29.9594 52.0499 30.0795C50.9793 30.156 50.4996 30.0192 49.9665 29.8673C49.6629 29.7807 49.3421 29.6893 48.8849 29.6294C48.8849 29.6294 49.2598 29.4042 49.9351 29.2697C49.9351 29.2697 48.7644 29.1045 47.8795 29.3294C46.9947 29.5546 46.6346 29.9294 46.6346 29.9294ZM36.4759 52.9545C36.0051 53.7892 35.581 54.5345 35.581 54.5345C35.581 54.5345 34.6339 54.0425 33.9721 53.0875C33.4533 52.3387 33.4071 51.4188 33.4115 51.055C33.7144 51.2295 34.0373 51.4031 34.3415 51.5667L34.3416 51.5668L34.3423 51.5671L34.3424 51.5672L34.3424 51.5672L34.3427 51.5673C34.7083 51.7639 35.0468 51.9459 35.2905 52.0972C35.7815 52.4016 36.18 52.7027 36.4759 52.9545ZM32.8488 30.8337C32.7815 30.7421 32.7154 30.6494 32.6533 30.5532L32.5164 30.4346C32.4891 30.4401 32.4417 30.4481 32.3752 30.4594L32.3751 30.4594C31.3161 30.6389 25.4071 31.6408 18.347 36.3857C15.8617 38.0563 12.8131 41.0207 11.3083 42.6753C11.9531 42.3933 13.3421 41.8109 14.4417 41.4714C15.5646 40.3184 17.408 38.45 19.0973 37.2667C23.0115 34.5254 29.7063 31.6906 32.8488 30.8337ZM54.6734 37.2503C54.6734 37.2503 52.9997 37.6756 51.0644 38.9502C49.1291 40.2255 47.8996 43.266 47.8996 43.266C48.3964 39.8918 50.5648 37.535 50.5648 37.535C48.9448 38.4802 47.765 40.2881 47.1385 44.3168C46.4229 48.925 45.102 50.693 45.102 50.693L45.2398 50.2259C45.5674 48.7554 45.6702 47.7451 45.7921 46.5462C45.8767 45.7152 45.9704 44.7936 46.1546 43.5652C46.6047 40.5651 47.9248 38.7347 47.9248 38.7347C46.2747 39.89 45.3865 42.3601 45.0748 45.9506C44.7307 49.9101 43.7828 51.3116 43.7828 51.3116C44.1939 49.902 44.1878 48.3814 44.1825 47.0918C44.1804 46.5713 44.1785 46.0885 44.2042 45.6657C44.2103 45.5653 44.2164 45.4625 44.2226 45.3574V45.3573V45.3573L44.2226 45.357C44.3068 43.9224 44.4158 42.0667 45.1839 40.3057C46.0092 38.4155 47.9248 36.59 49.9351 35.6751C51.9445 34.7598 53.5486 35.2105 53.5486 35.2105C54.6079 36.2041 54.6734 37.2503 54.6734 37.2503ZM34.1712 55.4604C34.2929 55.8706 34.5982 56.0819 34.899 56.2394C35.0931 55.6239 35.3443 54.9424 35.3443 54.9424C34.8851 54.7086 34.4411 54.317 34.4411 54.317C34.4228 54.3407 34.403 54.3648 34.3825 54.3898C34.2129 54.5967 33.9939 54.8636 34.1712 55.4604ZM33.6881 60.5282C33.5183 60.3292 33.6401 59.6609 33.9075 59.3295C33.9075 59.3295 34.061 59.6078 34.226 59.8317C34.4305 60.1083 34.3868 60.3709 34.2399 60.537C34.093 60.7038 33.8572 60.7277 33.6881 60.5282ZM37.8836 46.0148C37.74 46.245 37.5119 46.6005 37.3781 46.7811C36.9552 47.3529 35.9115 49.625 35.4665 51.4055C35.5997 51.4884 35.7204 51.5661 35.8222 51.6368C36.3117 51.9794 36.6018 52.2539 36.7664 52.4372C36.878 52.2388 37.0457 52.0387 37.2041 51.8497L37.2041 51.8497C37.3483 51.6776 37.4848 51.5148 37.5643 51.3708C38.1766 50.2586 38.6462 48.9452 38.4939 47.7492C38.3952 46.9724 38.0602 46.3454 37.908 46.0605L37.8836 46.0148ZM34.0228 57.782C34.0228 57.782 34.252 58.05 34.6077 58.2904C34.9632 58.5306 35.3393 59.0679 35.3663 59.3291C35.4073 59.7233 34.7937 60.0343 34.7937 60.0343C34.7937 60.0343 34.8793 59.6019 34.4319 59.2711C33.7785 58.7866 33.5489 58.5973 34.0228 57.782ZM36.2016 54.3916C35.823 55.0733 35.4833 55.9693 35.3131 56.448C35.3491 56.4686 35.3838 56.4896 35.4151 56.511C35.7709 56.7507 36.2259 57.389 36.2259 57.389C36.2259 57.389 37.2006 56.3034 37.5965 55.0733C37.9927 53.8434 37.5186 52.3711 37.5186 52.3711C37.5186 52.3711 36.7443 53.4146 36.2016 54.3916ZM34.193 56.2456C34.193 56.2456 34.4489 56.57 34.9352 56.8025C35.4218 57.0348 35.7692 57.3591 35.9502 57.7414C36.1308 58.1234 35.9691 58.4743 35.6425 58.7039C35.6425 58.7039 35.469 58.237 35.0091 58.0033C34.9893 57.9932 34.9696 57.9832 34.9499 57.9732C34.5128 57.7517 34.1119 57.5485 34.0091 57.1031C33.9021 56.6381 34.193 56.2456 34.193 56.2456Z" fill="#FFC62F"/>
<path fill-rule="evenodd" clip-rule="evenodd" d="M27.9711 9.49479C28.4035 11.8955 29.1143 13.5713 31.972 15.3362C31.4644 16.1164 30.7147 17.1774 30.1292 18.0025C29.4227 17.4718 28.2435 16.42 27.7008 14.9853C27.1004 13.3974 27.0744 11.8619 27.0544 10.6832C27.0465 10.2157 27.0396 9.80438 26.9981 9.46819C26.9557 9.12784 26.9021 8.71165 26.8352 8.26866C27.0205 8.88058 27.2642 9.75659 27.3293 10.3176C27.3293 10.3176 27.275 8.72412 27.055 7.73486C27.055 7.73486 27.604 9.27371 27.7143 10.1526C27.7143 10.1526 27.7862 9.30134 27.7058 8.39187C27.8099 8.74095 27.9021 9.1081 27.9711 9.49479ZM32.6323 26.5945C32.6323 26.5945 32.6307 26.6016 32.6307 26.5997C31.8874 26.375 30.9789 26.1624 30.0201 25.938C29.0931 25.721 28.1192 25.493 27.2019 25.2325C23.4344 24.177 20.8473 21.9051 19.5131 18.4798C18.6354 16.2278 18.6159 14.1867 18.6259 13.6962C18.6263 13.6564 18.6252 13.5969 18.6242 13.5446C18.6235 13.5046 18.6228 13.4687 18.623 13.4491C18.6435 11.8706 18.8557 10.4086 19.0346 9.35703C19.0418 9.31422 19.0489 9.27142 19.0556 9.22882L19.0585 9.45365C19.0526 10.5464 19.1279 11.5082 19.1543 11.8072C19.1544 11.8092 19.1546 11.8112 19.1547 11.8132C19.1554 11.8217 19.156 11.8295 19.1563 11.8367C19.1591 11.8658 19.1733 11.7566 19.1884 11.6406C19.1959 11.5825 19.2037 11.5228 19.2104 11.4779C19.2274 11.3646 19.2449 11.2516 19.2625 11.1386C19.3204 10.7659 19.3782 10.3941 19.4152 10.0178C19.4341 9.82817 19.4623 9.62423 19.491 9.41699C19.5361 9.09075 19.5823 8.75632 19.5952 8.4567C19.6037 8.26845 19.612 8.07916 19.6066 7.8907C19.6515 7.91737 19.6743 8.04731 19.6872 8.12071C19.6899 8.13596 19.6921 8.14877 19.6941 8.1577C19.7375 8.36133 19.8304 9.96271 19.858 10.5111C19.8692 10.7301 19.8732 10.9491 19.8759 11.1679C19.8771 11.2772 19.8805 11.3846 19.8979 11.4928C19.9004 11.5117 19.9053 11.5316 19.9102 11.5518C19.9128 11.5623 19.9154 11.5729 19.9176 11.5834C19.92 11.5949 19.9377 11.4509 19.962 11.2536C19.9916 11.0135 20.0308 10.6943 20.0639 10.4805C20.0773 10.3946 20.0928 10.3084 20.1083 10.222C20.152 9.97868 20.196 9.73319 20.1942 9.48668C20.1942 9.47552 20.1929 9.46331 20.1916 9.45088C20.1894 9.43094 20.1872 9.41043 20.1903 9.39277C20.1988 9.34352 20.27 9.55629 20.3064 9.94713C20.3107 10.0224 20.3147 10.0982 20.3188 10.1743C20.3387 10.5443 20.359 10.9207 20.4014 11.279L20.4406 11.6206C20.7976 14.7565 22.6764 17.6137 25.2153 18.8932C27.2641 20.0422 29.1762 19.7971 31.2009 19.5376L31.2013 19.5376C31.5791 19.489 31.9643 19.4395 32.3601 19.3977C33.2465 19.304 33.9715 19.2959 34.6478 19.3726C36.1397 19.5072 37.519 20.0155 37.9726 20.2509C39.4865 20.931 40.6735 22.4729 40.9212 24.0945L40.9222 24.1379C40.9865 24.4325 41.0197 24.7378 41.0197 25.0517C41.0197 25.0557 41.0193 25.0592 41.0193 25.0632C41.0154 25.0405 41.0122 25.0181 41.0091 24.9957C41.0039 24.959 40.9987 24.9222 40.9904 24.8843C40.9829 25.4095 40.8763 25.9105 40.6914 26.3716C40.8423 25.9045 40.8921 25.3576 40.7548 24.7199C40.7469 25.3173 40.6089 25.881 40.3722 26.3911C40.514 25.934 40.5719 25.4436 40.5256 24.9383C40.4329 23.9152 39.9359 23.0254 39.206 22.4037C39.7907 23.029 40.0737 24.0203 40.1582 24.9474C40.3538 27.12 38.6167 28.5439 36.7535 28.8654C36.7453 28.8665 36.7374 28.8688 36.7295 28.871C36.7245 28.8724 36.7196 28.8738 36.7146 28.8749C36.8746 28.9034 37.4957 28.9888 38.1149 28.7916C38.3896 28.7723 38.7544 28.7106 39.1247 28.5315C39.2619 28.4652 39.4349 28.3661 39.6209 28.2362C38.8475 28.951 37.8161 29.3911 36.6801 29.3911C35.18 29.3911 33.8605 28.6283 33.0828 27.4701C34.1645 27.6056 35.2244 27.8207 35.2244 27.8207C34.2489 27.0683 32.6323 26.5945 32.6323 26.5945Z" fill="white"/>
<path fill-rule="evenodd" clip-rule="evenodd" d="M49.6983 30.4608C50.7346 30.6438 51.8175 30.835 52.3938 30.6071C52.3938 30.6071 52.7761 31.4812 52.7578 32.1187C52.74 32.756 52.9394 33.193 53.1763 33.375C53.3103 33.4777 53.4441 33.5341 53.5614 33.5835C53.6518 33.6215 53.7323 33.6555 53.7957 33.7033C53.9422 33.8121 53.9422 34.14 53.869 34.4128C53.7957 34.6859 53.5956 34.7224 53.3772 34.6678C53.1736 34.6173 52.1083 34.4729 50.9516 34.6855C50.8903 34.4714 50.7843 33.9819 51.0147 33.7394C51.315 33.4255 51.8999 33.455 52.1245 33.5001C52.1245 33.5001 51.6453 33.275 51.225 33.275C50.8049 33.275 50.4595 33.5603 50.3396 33.8751C50.2507 34.1093 50.3274 34.5911 50.3725 34.8241C49.1152 35.1943 47.3145 36.1765 45.8374 38.0736C44.2348 40.1308 43.872 42.699 43.872 42.699C43.872 42.699 42.1817 43.0319 41.3067 41.7324C40.1333 39.9897 40.5744 37.946 40.5744 37.946C40.5744 37.946 39.8796 38.2739 39.3298 38.1305C39.137 38.0802 39.0003 37.9533 38.9032 37.803C39.1074 37.6216 39.3144 37.4426 39.5237 37.2617L39.5239 37.2615L39.524 37.2614C40.2522 36.6319 41.0067 35.9796 41.7565 35.1214C42.2565 35.2326 42.7059 35.3531 42.9511 35.4281C43.4915 35.5928 44.0544 36.0498 44.2042 36.5445C44.3544 37.0399 44.4288 38.72 44.4288 38.72C44.7269 37.5735 44.7793 36.9842 44.809 36.65L44.8107 36.6309C44.8415 36.3012 44.8068 35.4671 44.1737 34.8895C43.9572 34.692 43.4894 34.5035 43.0781 34.3377L43.0781 34.3377L43.0781 34.3377C42.8403 34.2418 42.6214 34.1536 42.4809 34.0756C43.9455 32.0585 44.348 28.9675 44.348 28.9675C44.3474 28.9479 44.3473 28.9284 44.3471 28.9088L44.3468 28.8796C44.4959 28.8634 44.5936 28.8478 44.5975 28.8324C44.7125 28.8258 44.952 28.8008 45.2098 28.7739C45.558 28.7376 45.9395 28.6978 46.0923 28.6951C46.0923 28.6951 45.6915 29.8782 46.0377 30.7523C46.0377 30.7523 46.9301 30.1516 48.2051 30.2426C48.6394 30.2738 49.1627 30.3662 49.6983 30.4608ZM39.2901 39.1952C39.2901 39.1952 39.7069 40.9734 40.3118 41.8617C40.9177 42.751 41.7303 43.5073 43.0354 43.5073C43.2243 43.5073 43.4485 43.504 43.6924 43.4978C43.5852 44.1741 43.5324 44.903 43.5063 45.432C43.2231 45.5264 42.9712 45.6176 42.7709 45.7017C41.5032 46.2312 39.1438 47.4816 39.1438 47.4816C39.1183 47.4966 39.0896 47.514 39.0634 47.53C38.8692 46.185 38.4305 45.08 38.4305 45.08C38.4305 45.08 39.277 42.8784 38.9604 41.5247C38.5442 39.7467 37.8633 38.801 37.8633 38.801C37.9266 38.7336 37.99 38.6695 38.0536 38.6052L38.0881 38.5702C38.5344 39.1777 39.2901 39.1952 39.2901 39.1952ZM53.2625 43.4791L52.999 43.4713C52.0964 43.4445 49.9286 43.38 48.5246 43.38L48.5055 43.3802C48.3486 43.6266 48.2223 43.8894 48.0864 44.2568C48.5242 44.1708 48.9466 44.0951 49.3337 44.0374C50.947 43.7945 52.3443 43.7026 53.0547 43.6559H53.0547L53.0548 43.6559C53.2858 43.6407 53.4441 43.6303 53.5137 43.621C53.5909 43.6107 53.6848 43.6046 53.7844 43.5981L53.7845 43.5981H53.7845C54.0514 43.5808 54.3596 43.5608 54.4971 43.4506C54.4971 43.4506 53.9056 43.4982 53.2625 43.4791ZM52.8002 40.7451C52.8002 40.7451 53.5653 40.6998 54.0155 40.8799C54.4652 41.0601 54.7203 41.2246 54.8853 42.1549C55.0502 43.0843 54.5262 43.0548 54.271 43.0405L54.2703 43.0404C54.2198 43.0374 54.1503 43.0348 54.0623 43.0316C53.7061 43.0183 53.0483 42.9937 52.1339 42.8852C50.9937 42.7506 48.9573 42.6976 48.9573 42.6976C49.9307 40.0037 53.3253 38.5401 53.3253 38.5401C53.3855 39.3197 52.8002 40.7451 52.8002 40.7451Z" fill="#E9BF9B"/>
<path fill-rule="evenodd" clip-rule="evenodd" d="M49.4181 31.1025C49.569 31.2828 49.8382 31.6724 49.8532 31.8077C49.8551 31.8245 49.8534 31.8611 49.8503 31.9107V31.911C49.8503 31.911 49.8488 31.9253 49.8472 31.9465C49.8472 31.949 49.8465 31.9504 49.8465 31.9523C49.8276 32.1597 49.7279 33.125 49.5054 33.3941C49.4725 33.4477 49.4356 33.4995 49.389 33.5462C49.1336 33.7852 48.6869 34.0123 47.8433 34.5974C46.9133 35.243 46.1783 36.5628 46.1783 36.5628C46.1783 36.5628 46.4426 35.3157 47.0176 34.603C47.7301 33.7201 48.6584 33.1367 49.2313 32.8318L49.4887 31.6816C49.2916 31.5498 49.0435 31.415 48.8035 31.372C48.3054 31.2843 47.4662 31.2957 46.9523 31.128C46.9548 31.1241 46.9586 31.1176 46.9586 31.1176C47.5736 31.0426 47.9337 30.8627 48.8484 30.7122C49.7632 30.5624 50.4684 30.8326 50.4684 30.8326C49.8532 30.8627 49.4181 31.1025 49.4181 31.1025Z" fill="black"/>
<path fill-rule="evenodd" clip-rule="evenodd" d="M50.7996 25.2045C50.2619 25.1044 48.5489 24.8457 46.4223 24.8313C44.4897 24.8182 42.1592 25.0599 41.6996 25.111C41.6996 25.1135 41.6991 25.1162 41.6991 25.1191C41.6964 27.994 39.222 30.0461 36.9174 30.0803C33.4371 30.1323 32.1559 27.3272 32.1293 27.1616C31.8812 27.0893 31.6162 27.017 31.3416 26.9434C30.8792 27 30.3849 27.0708 29.8661 27.1624C28.9072 27.3314 27.9165 27.5678 27.1103 27.7777C27.0718 28.2034 27.0103 28.8883 27.0078 28.9467C26.8931 31.3674 27.0456 31.1984 27.0456 31.1984C27.7475 30.9239 30.3365 30.2599 30.3365 30.2599C31.0947 30.0835 31.995 29.894 33.0491 29.6993C33.7903 31.193 35.3293 32.2201 37.1096 32.2201C39.3327 32.2201 41.1801 30.6193 41.567 28.5087C46.4258 27.9811 48.7224 27.9661 51.723 28.3653C51.4082 26.6931 50.7996 25.2045 50.7996 25.2045" fill="#4F2683"/>
<path fill-rule="evenodd" clip-rule="evenodd" d="M54.0721 43.0321C54.1554 43.0351 54.2216 43.0375 54.2703 43.0403L54.2714 43.0404C54.5274 43.0549 55.0492 43.0846 54.8855 42.1551C54.7212 41.2243 54.4656 41.0601 54.0147 40.8793C53.5659 40.7006 52.8011 40.7441 52.8011 40.7441C52.8011 40.7441 53.3851 39.3189 53.3249 38.5397C53.3249 38.5397 49.9297 40.0048 48.9571 42.6974C48.9571 42.6974 50.9935 42.7513 52.1343 42.8844C53.0579 42.9955 53.7184 43.0193 54.0721 43.0321ZM53.0311 43.6574C53.2749 43.6412 53.4418 43.6301 53.514 43.62C53.591 43.6098 53.6845 43.6038 53.7836 43.5974C54.0506 43.5801 54.3587 43.5601 54.4966 43.4496C54.4966 43.4496 53.9046 43.4972 53.2625 43.4785C53.1919 43.4765 53.0985 43.4737 52.9863 43.4703C52.0758 43.4432 49.9217 43.379 48.5249 43.379C48.5188 43.379 48.5105 43.3813 48.5062 43.3813C48.3485 43.6262 48.2217 43.8901 48.0867 44.2558C48.5249 44.1706 48.9469 44.0958 49.3334 44.0377C50.9293 43.7972 52.3134 43.7051 53.0311 43.6574ZM45.1029 50.693C45.1029 50.693 46.4223 48.9247 47.139 44.3163C47.7646 40.2872 48.9448 38.4795 50.5655 37.534C50.5655 37.534 48.3963 39.8924 47.8994 43.2668C47.8994 43.2668 49.1295 40.2246 51.0642 38.9511C53.0007 37.6753 54.6734 37.2494 54.6734 37.2494C54.6734 37.2494 54.6069 36.2042 53.5493 35.211C53.5493 35.211 51.9452 34.7601 49.9359 35.6744C47.9248 36.5907 46.0088 38.415 45.1839 40.3059C44.4148 42.0688 44.3068 43.9258 44.2233 45.3612C44.2172 45.4654 44.2113 45.5674 44.2053 45.6669C44.1788 46.0928 44.1805 46.5799 44.1825 47.105C44.1872 48.3908 44.1928 49.9048 43.7858 51.308C43.8416 51.2228 44.7414 49.785 45.0738 45.9514C45.3855 42.3611 46.2748 39.8903 47.9248 38.7348C47.9248 38.7348 46.6052 40.5656 46.1543 43.5658C45.971 44.7914 45.8775 45.7116 45.7932 46.541C45.6711 47.7422 45.5684 48.753 45.2402 50.2255L45.1029 50.693ZM42.7716 45.7022C42.971 45.6168 43.2225 45.5254 43.5071 45.4319C43.5321 44.902 43.5861 44.1748 43.6918 43.4972C43.4489 43.5039 43.2243 43.5078 43.0352 43.5078C41.7306 43.5078 40.9181 42.7513 40.3114 41.8622C39.7068 40.9728 39.2891 39.1963 39.2891 39.1963C39.2891 39.1963 38.5349 39.1776 38.0881 38.5709C38.0131 38.6457 37.9385 38.7205 37.8639 38.8015C37.8639 38.8015 38.5453 39.7469 38.9608 41.5255C39.2764 42.8782 38.431 45.0807 38.431 45.0807C38.431 45.0807 38.8694 46.184 39.0626 47.5303C39.0896 47.5137 39.1187 47.497 39.1437 47.4827C39.1437 47.4827 41.5041 46.2316 42.7716 45.7022ZM37.2023 51.8519C37.3474 51.6792 37.4849 51.5155 37.5643 51.3703C38.1775 50.2587 38.6471 48.9455 38.4933 47.7487C38.3946 46.9686 38.0574 46.3388 37.9065 46.057C37.8986 46.0423 37.8913 46.0285 37.8845 46.0157C37.7411 46.2443 37.5124 46.5996 37.3775 46.7804C36.9557 47.3539 35.9126 49.6249 35.4659 51.4056C35.5989 51.4888 35.7215 51.5654 35.8233 51.6363C36.3116 51.9791 36.6025 52.2534 36.7664 52.4363C36.8771 52.239 37.0442 52.0401 37.2023 51.8519ZM36.2264 57.39C36.2264 57.39 37.2007 56.3031 37.5957 55.073C37.9925 53.8429 37.5188 52.3718 37.5188 52.3718C37.5188 52.3718 36.7437 53.4149 36.2016 54.3915C35.8233 55.073 35.4825 55.9686 35.3142 56.4483C35.3495 56.4693 35.3849 56.4903 35.4158 56.5109C35.7713 56.7519 36.2264 57.39 36.2264 57.39ZM35.0088 58.0028C35.4701 58.2378 35.6423 58.703 35.6423 58.703C35.9687 58.4742 36.1308 58.1233 35.95 57.741C35.7695 57.3586 35.4225 57.0345 34.9361 56.802C34.4498 56.5711 34.1922 56.2449 34.1922 56.2449C34.1922 56.2449 33.9013 56.6376 34.0093 57.1031C34.1131 57.5507 34.5168 57.7544 34.9562 57.9762C34.9736 57.985 34.9912 57.9939 35.0088 58.0028ZM34.4311 59.2723C34.8797 59.6027 34.7948 60.0349 34.7948 60.0349C34.7948 60.0349 35.4077 59.7232 35.3662 59.3286C35.3392 59.0689 34.9631 58.5305 34.6078 58.2897C34.2524 58.0506 34.0239 57.7823 34.0239 57.7823C33.5481 58.597 33.7787 58.7859 34.4311 59.2723ZM33.6873 60.5294C33.8574 60.7289 34.0924 60.704 34.2398 60.5377C34.3875 60.3715 34.4311 60.1078 34.2254 59.8315C34.0613 59.6089 33.9075 59.3305 33.9075 59.3305C33.6397 59.6609 33.519 60.3299 33.6873 60.5294ZM34.8986 56.2387C35.0942 55.6239 35.3433 54.9419 35.3433 54.9419C34.8841 54.7094 34.4415 54.3167 34.4415 54.3167C34.4234 54.3401 34.4039 54.3639 34.3836 54.3886C34.2132 54.596 33.9931 54.8638 34.1714 55.4614C34.294 55.8709 34.5974 56.0828 34.8986 56.2387ZM34.3376 51.5641C34.0341 51.4011 33.7124 51.2282 33.4109 51.0545C33.4066 51.4181 33.4525 52.3386 33.9719 53.0866C34.6348 54.0422 35.5802 54.5349 35.5802 54.5349C35.5802 54.5349 36.0059 53.7891 36.4757 52.9536C36.1807 52.7022 35.7817 52.4009 35.2914 52.0976C35.0464 51.945 34.7055 51.7618 34.3376 51.5641ZM30.5851 45.4797C30.5851 45.4797 30.5767 47.196 31.4162 48.505C31.9509 49.3371 33.2713 50.1073 34.3381 50.7296C34.5233 50.8377 34.7009 50.9413 34.8654 51.0399C34.9631 50.6784 35.2207 49.7473 35.5947 48.7419C35.1438 48.399 33.8431 47.4287 33.045 46.9861C32.0686 46.4438 31.0006 45.8474 30.5851 45.4797ZM37.1464 45.7079C37.6574 44.9259 38.0882 44.2665 38.3042 43.1192C38.6408 41.3427 37.7972 39.9776 37.1531 39.3106C37.1531 39.3106 35.2186 41.4279 34.4602 43.1502C33.7829 44.6901 33.5458 45.9285 33.5105 46.5872C34.3189 47.09 35.2976 47.6988 35.8357 48.127C35.9667 47.8131 36.1077 47.5014 36.2555 47.2063C36.5617 46.6028 36.8661 46.1369 37.1464 45.7079ZM28.7711 36.5907C28.4906 37.5507 28.3701 38.8929 28.4262 40.389C28.5304 43.288 30.5559 44.614 31.6763 45.3476C31.8071 45.4332 31.9255 45.5107 32.0271 45.5817C32.0254 45.5533 32.0236 45.5249 32.0217 45.4961C31.9975 45.1227 31.9694 44.6877 32.2991 43.3894C32.6878 41.8582 33.7413 40.6115 33.9989 40.4056C33.9138 40.522 32.3676 42.6933 32.8312 46.0552C32.8312 46.0552 33.2842 43.2232 35.4202 40.4451C36.6141 38.8897 37.7819 37.798 38.8768 36.7745C39.7389 35.9687 40.5557 35.2051 41.3044 34.2908C42.2479 33.1353 42.784 32.0278 43.1019 31.0325C43.3617 30.2907 43.4801 29.5635 43.532 29.0274C43.2701 29.0511 43.0149 29.0795 42.7623 29.1077C42.572 29.1289 42.3832 29.1499 42.1939 29.1687C42.1918 29.1832 42.1875 29.2019 42.1835 29.2144C41.741 30.6959 40.8828 31.7618 39.5218 32.3852C38.1988 33.7345 36.3914 34.7781 34.9435 35.6142C34.4451 35.902 33.9892 36.1652 33.6104 36.4079C31.1191 38.0036 30.6121 41.0809 30.5684 41.3656C30.8011 37.3825 32.7807 36.1334 35.27 34.5626C35.9376 34.1414 36.6418 33.697 37.3588 33.1706C37.3926 33.1457 37.4494 33.1103 37.5068 33.0744C37.5693 33.0354 37.6326 32.9959 37.6682 32.9688L37.5643 33.0148C37.1406 33.0148 36.2721 32.9335 35.8734 32.8402C35.5012 33.096 35.1395 33.3202 34.8051 33.501C33.0286 34.4713 31.7944 36.0546 31.7944 36.0546C32.2386 34.5764 33.228 33.8852 34.6993 32.8574C34.8246 32.7698 34.9534 32.6798 35.0857 32.5867C34.4561 32.327 33.7496 31.8886 33.2634 31.4086C32.2702 31.9218 30.076 33.2537 28.6153 34.6334C27.4475 35.7386 25.2783 37.3055 22.7163 38.5148C24.7235 37.185 28.1041 34.2074 29.3051 33.0628L29.2938 33.0693C28.9408 33.2735 24.7978 35.6703 23.5745 36.4993C23.5745 36.4993 25.2284 34.6731 27.2772 33.5384C27.007 33.6485 22.6644 35.4523 20.1315 37.1808C18.7788 38.1034 16.7072 39.9859 15.5083 41.2679C16.0007 41.1619 17.8687 40.784 18.3653 40.7339C18.808 40.6882 19.256 40.6531 19.7077 40.6177C22.6863 40.3843 25.8229 40.1385 28.6194 36.7736C28.6714 36.7112 28.7254 36.647 28.7711 36.5907ZM26.4772 40.9895C27.2668 40.9895 27.915 40.7339 27.915 40.7339C27.915 40.7339 27.7841 38.8807 27.9587 38.2739C27.9587 38.2739 26.4585 40.0688 24.7983 40.4843L24.7339 40.491C24.7339 40.491 25.6855 40.9895 26.4772 40.9895ZM11.309 42.6746C11.9531 42.3943 13.3432 41.8102 14.4424 41.4713C15.5644 40.3183 17.4074 38.4504 19.0967 37.266C23.0114 34.5253 29.7061 31.6912 32.8478 30.833L32.8434 30.827C32.7784 30.7376 32.7133 30.648 32.6527 30.5525L32.5174 30.4341C32.49 30.4396 32.4424 30.4477 32.3756 30.459C31.3146 30.6389 25.4053 31.6408 18.3466 36.385C15.8615 38.0556 12.8134 41.0204 11.309 42.6746ZM18.625 13.6971C18.6167 14.1875 18.6354 16.2279 19.5123 18.4803C20.8483 21.9046 23.4352 24.1777 27.2023 25.2333C28.1183 25.4934 29.0908 25.7209 30.0167 25.9375C30.9769 26.1622 31.887 26.3752 32.6317 26.6005V26.5942C32.6317 26.5942 34.2483 27.068 35.2246 27.8202C35.2246 27.8202 34.1652 27.6061 33.0826 27.4711C33.8597 28.6284 35.1791 29.391 36.6791 29.391C37.8159 29.391 38.8486 28.9505 39.6216 28.2357C39.4343 28.3666 39.2621 28.4664 39.125 28.5308C38.7551 28.7116 38.3894 28.7718 38.1151 28.7926C37.4959 28.99 36.8747 28.9027 36.7145 28.8757L36.7154 28.8754C36.7277 28.8713 36.7399 28.8673 36.7541 28.8653C38.6159 28.5433 40.3529 27.1199 40.1576 24.9486C40.0743 24.0198 39.7899 23.0287 39.206 22.4033C39.9351 23.0266 40.4319 23.9159 40.5252 24.9382C40.5711 25.4431 40.5131 25.9335 40.3717 26.3906C40.6085 25.8815 40.7477 25.3185 40.754 24.72C40.8911 25.3579 40.8412 25.9044 40.6916 26.3719C40.8768 25.9106 40.9825 25.4099 40.9906 24.8842C40.9981 24.921 41.0033 24.9557 41.0085 24.9904C41.012 25.0143 41.0156 25.0383 41.0199 25.0629V25.0525C41.0199 24.7387 40.9867 24.4333 40.9221 24.1382V24.0946C40.6729 22.4739 39.4863 20.9301 37.9718 20.2506C37.5188 20.0158 36.1391 19.5068 34.6472 19.3717C33.9719 19.2969 33.2468 19.3052 32.3595 19.3987C31.9943 19.4372 31.6361 19.4827 31.2867 19.5272C31.2585 19.5308 31.2303 19.5343 31.2022 19.5379L31.2017 19.538C29.176 19.7977 27.2645 20.0428 25.2159 18.8938C22.6768 17.6139 20.7985 14.7568 20.4411 11.6214L20.4016 11.2785C20.3584 10.9192 20.3382 10.5427 20.3183 10.1716C20.3142 10.0963 20.3102 10.0213 20.306 9.94665C20.2707 9.55602 20.198 9.34408 20.1897 9.39394C20.1871 9.41027 20.1892 9.4304 20.1912 9.45019C20.1925 9.46314 20.1938 9.47594 20.1938 9.48745C20.1954 9.73536 20.1507 9.98328 20.1063 10.2295C20.0912 10.3134 20.0761 10.3972 20.0629 10.4807C20.029 10.6959 19.9898 11.0186 19.9605 11.2595C19.9378 11.4464 19.9211 11.584 19.9175 11.584C19.9153 11.5731 19.9126 11.5623 19.91 11.5516C19.905 11.5314 19.9001 11.5115 19.8988 11.4926C19.8801 11.3845 19.878 11.2765 19.8759 11.1684C19.8738 10.9482 19.8697 10.73 19.8572 10.5118C19.8302 9.96327 19.7367 8.36126 19.6951 8.15763C19.6927 8.14739 19.6899 8.13206 19.6866 8.1138C19.6731 8.03948 19.6508 7.91669 19.6058 7.89167C19.612 8.07868 19.6037 8.26776 19.5954 8.45684C19.5825 8.76017 19.5355 9.09847 19.4897 9.42799C19.4614 9.63119 19.4336 9.83104 19.4146 10.0173C19.3777 10.3959 19.3198 10.7708 19.2618 11.1458C19.2447 11.2565 19.2276 11.3672 19.211 11.478C19.2034 11.5274 19.1947 11.5947 19.1865 11.6579C19.1723 11.7675 19.1596 11.8651 19.157 11.8375C19.157 11.8323 19.1565 11.8276 19.1559 11.8229C19.1554 11.8183 19.1549 11.8136 19.1549 11.8084C19.1279 11.5092 19.0531 10.5471 19.0593 9.4542L19.0552 9.2298C19.0544 9.23457 19.0537 9.23937 19.053 9.24419C19.0475 9.28135 19.0417 9.31976 19.0344 9.35654C18.8557 10.4079 18.6437 11.8707 18.623 13.4499C18.623 13.4642 18.6234 13.4882 18.6239 13.5165C18.625 13.5742 18.6264 13.6497 18.625 13.6971ZM27.0546 10.6821C27.0741 11.861 27.0997 13.3971 27.701 14.9854C28.2434 16.4212 29.4236 17.4726 30.13 18.0024C30.7139 17.1775 31.464 16.1157 31.9731 15.3365C29.114 13.5725 28.4033 11.8957 27.9712 9.49576C27.9026 9.10928 27.8091 8.74151 27.7052 8.39243C27.7862 9.30044 27.7135 10.1524 27.7135 10.1524C27.6129 9.3434 27.1394 7.97799 27.0652 7.76407C27.0613 7.75271 27.0585 7.7446 27.0569 7.73999C27.2751 8.72904 27.3291 10.3186 27.3291 10.3186C27.2647 9.75757 27.0216 8.88072 26.8346 8.26776C26.9011 8.71242 26.9551 9.12798 26.9987 9.46875C27.04 9.80463 27.0468 10.2154 27.0546 10.6821ZM33.5148 13.2816C33.5148 13.2816 33.4504 14.0317 32.9995 14.9875C32.8395 15.3262 32.6294 15.6919 32.3577 16.0596C31.9648 16.5874 31.1793 17.672 30.4562 18.765C30.4334 18.8024 30.2962 18.9748 30.2962 18.9748C30.5207 18.9489 30.7465 18.9202 30.9762 18.8909C31.023 18.885 31.0699 18.879 31.117 18.873C31.1994 18.8627 31.2822 18.8522 31.3653 18.8417C31.6676 18.8033 31.9748 18.7643 32.291 18.7317C33.226 18.632 33.9967 18.6237 34.7158 18.7068C36.137 18.8335 37.498 19.2865 38.1442 19.5878C39.9418 20.3483 41.3607 22.1809 41.6101 24.0967H41.608C41.6094 24.1043 41.6109 24.1119 41.6124 24.1194C41.6212 24.1654 41.6299 24.2103 41.6371 24.2567C41.6381 24.2666 41.6396 24.276 41.6411 24.2853C41.6427 24.2957 41.6443 24.306 41.6454 24.317C41.6552 24.3802 41.6628 24.4435 41.6705 24.5067L41.6724 24.5227V24.5247C42.1191 24.4707 44.465 24.2068 46.4223 24.2193C48.1677 24.2318 49.7157 24.4146 50.4616 24.5351C49.697 22.8292 48.5128 20.8283 46.7234 19.1348C42.6822 15.3033 37.6848 13.4748 33.5148 13.2816ZM27.3229 26.2161C27.2751 26.5174 27.2335 26.8228 27.2003 27.1283C27.9691 26.9288 28.8792 26.7148 29.756 26.561C29.7664 26.5589 29.7768 26.5574 29.7872 26.5558C29.7976 26.5543 29.8079 26.5527 29.8183 26.5506C29.8038 26.5465 29.7892 26.5423 29.7747 26.5402C29.6251 26.5008 29.4734 26.4634 29.3197 26.4259C29.0409 26.3558 28.7588 26.2891 28.4779 26.2227C28.4509 26.2164 28.424 26.21 28.3971 26.2036C28.0543 26.1247 27.7114 26.0457 27.3748 25.9647C27.3588 26.036 27.3443 26.1088 27.33 26.1805C27.3276 26.1924 27.3252 26.2043 27.3229 26.2161ZM41.5664 28.5079C46.4264 27.9802 48.7225 27.9656 51.7228 28.3646C51.4091 26.694 50.8003 25.2042 50.8003 25.2042C50.2623 25.1044 48.55 24.8468 46.4223 24.8323C44.4897 24.8177 42.1588 25.0608 41.6994 25.1107V25.119C41.6973 27.9947 39.2226 30.0455 36.9183 30.0809C33.4379 30.1328 32.1559 27.3277 32.1289 27.1615C31.8816 27.0888 31.6157 27.0161 31.3414 26.9433C30.8801 26.9994 30.3856 27.0701 29.8661 27.1615C28.9082 27.3319 27.9171 27.5688 27.1109 27.7786C27.0714 28.2025 27.0112 28.8882 27.007 28.9464C26.8927 31.367 27.0465 31.1987 27.0465 31.1987C27.7467 30.9245 30.3357 30.2596 30.3357 30.2596C31.0941 30.0829 31.9959 29.8939 33.0494 29.6985C33.7911 31.1925 35.3285 32.221 37.1094 32.221C39.3327 32.221 41.1799 30.619 41.5664 28.5079ZM53.9399 28.3708C53.9399 28.3708 53.5493 28.5495 52.6805 28.7448C51.9237 28.9146 50.4978 28.7326 49.7926 28.6426C49.6868 28.6291 49.5971 28.6176 49.5285 28.6097C49.0051 28.5495 47.4301 28.429 46.9792 28.7303C46.5304 29.0295 46.6343 29.9292 46.6343 29.9292C46.6343 29.9292 46.9958 29.5552 47.8789 29.3287C48.764 29.1043 49.9359 29.2705 49.9359 29.2705C49.2606 29.4035 48.8846 29.63 48.8846 29.63C49.3427 29.6896 49.6641 29.781 49.968 29.8675C50.5008 30.0191 50.9801 30.1555 52.0491 30.0788C53.7301 29.9603 53.9399 28.3708 53.9399 28.3708ZM53.5656 33.5852C53.4475 33.5354 53.3124 33.4784 53.1774 33.3744C52.9403 33.1932 52.741 32.755 52.7576 32.1192C52.7763 31.4813 52.394 30.6065 52.394 30.6065C51.8169 30.8354 50.7327 30.6439 49.696 30.4608C49.161 30.3663 48.6387 30.274 48.2051 30.2429C46.9293 30.1515 46.0379 30.752 46.0379 30.752C45.6911 29.8772 46.0919 28.6949 46.0919 28.6949C45.941 28.6973 45.5671 28.7365 45.2225 28.7726C44.9601 28.8001 44.7148 28.8258 44.598 28.8321C44.5936 28.8487 44.4964 28.8632 44.3466 28.8799C44.3466 28.909 44.3466 28.938 44.3486 28.9671C44.3486 28.9671 43.9455 32.059 42.4805 34.0763C42.6209 34.1538 42.8387 34.2414 43.0755 34.3367C43.4873 34.5024 43.9563 34.6911 44.1741 34.889C44.8058 35.4666 44.8411 36.3019 44.8099 36.6302L44.8085 36.6468C44.7792 36.9821 44.7278 37.5699 44.4297 38.7205C44.4297 38.7205 44.3549 37.0395 44.2053 36.545C44.0536 36.0503 43.4905 35.5933 42.9503 35.4292C42.7049 35.3523 42.2561 35.2318 41.7576 35.1219C41.0045 35.9834 40.2476 36.6366 39.5165 37.2676C39.3097 37.4462 39.1049 37.6229 38.9028 37.8021C39.0001 37.9538 39.1374 38.0805 39.3305 38.1304C39.8792 38.274 40.5751 37.9457 40.5751 37.9457C40.5751 37.9457 40.1329 39.99 41.3067 41.7333C42.1815 43.032 43.873 42.6993 43.873 42.6993C43.873 42.6993 44.2344 40.1313 45.8364 38.0743C47.3137 36.1772 49.1152 35.1944 50.3723 34.8246C50.3266 34.5918 50.2497 34.1098 50.339 33.8752C50.4595 33.5612 50.8045 33.2745 51.224 33.2745C51.619 33.2745 52.0636 33.474 52.1177 33.4989C51.8893 33.4553 51.3135 33.4282 51.0143 33.7399C50.7837 33.983 50.8897 34.4713 50.952 34.6853C52.1091 34.4734 53.1732 34.6168 53.3768 34.6687C53.595 34.7227 53.7966 34.6853 53.8693 34.4133C53.942 34.1409 53.942 33.8126 53.7966 33.7027C53.734 33.6562 53.6546 33.6227 53.5656 33.5852ZM54.5653 40.5529C54.8209 40.6092 55.3321 41.0643 55.415 41.5733C55.5004 42.0845 55.6147 42.8512 55.5856 43.2774C55.5585 43.7031 55.2739 43.9566 54.1394 44.1272C53.8929 44.1642 53.5036 44.2027 53.0068 44.2517C51.7781 44.373 49.8916 44.5592 47.881 44.9498C47.8674 44.9994 47.853 45.0521 47.8378 45.1077C47.5583 46.1313 47.0156 48.1191 46.4223 49.5462C45.6577 51.3911 43.7272 53.945 40.8329 54.2566C40.8329 54.2566 42.9045 52.5547 43.3596 50.2275C43.6568 48.6988 43.5889 47.7464 43.5224 46.8141C43.5076 46.6059 43.4928 46.3987 43.4822 46.1863C41.4542 46.9757 39.8252 48.0331 39.1499 48.505C39.1956 50.2296 38.2043 51.7379 38.2043 51.7379C38.2043 51.7379 38.5513 53.0991 38.3167 54.5743C38.0424 56.3052 36.723 57.6911 36.723 57.6911C36.723 57.6911 36.7564 57.9799 36.5233 58.4183C36.2409 58.9584 35.9147 59.1705 35.9147 59.1705C35.9147 59.1705 35.9147 59.5404 35.6589 59.9372C35.4511 60.2614 35.0129 60.5502 34.7802 60.6188C34.7802 60.6188 34.0239 61.5766 33.4172 61.0634C32.8086 60.5502 33.2218 59.2723 33.3611 59.0003C33.3611 59.0003 33.1865 58.6407 33.2488 58.3477C33.3091 58.0568 33.5169 57.6784 33.5169 57.6784C33.5169 57.6784 33.3047 57.1613 33.3611 56.8163C33.4192 56.4735 33.7621 56.0328 33.7621 56.0328C33.7621 56.0328 33.3839 55.6818 33.4234 55.0502C33.4629 54.4185 33.7621 53.9157 33.7621 53.9157C33.7621 53.9157 33.1055 53.2154 32.8229 52.4466C32.5403 51.6778 32.6234 50.6036 32.6234 50.6036C32.6234 50.6036 31.4224 49.8036 30.6952 48.6172C30.0199 47.5159 29.9222 45.5337 30.0178 44.933C29.65 44.6444 28.2454 43.3603 27.8569 41.3614C27.8569 41.3614 26.7764 41.6897 25.7437 41.4611C24.8336 41.2617 24.0711 40.8546 24.0711 40.8546C24.0711 40.8546 22.1179 41.1848 20.1897 41.2968C18.3508 41.405 12.3355 42.2385 8.48523 45.0184C9.19793 43.967 10.1807 42.6746 11.4835 41.2721C11.4851 41.2705 11.4868 41.2689 11.4885 41.2673C11.4937 41.2626 11.4991 41.2576 11.5022 41.2515C11.602 41.1453 11.7017 41.0393 11.8015 40.9354C12.2129 40.4991 12.6471 40.0607 13.1105 39.6139C15.579 37.2494 18.1014 35.5165 20.4265 34.2428C22.5044 33.0542 24.4762 32.1691 26.2195 31.5125C26.2175 31.4896 26.2154 31.4751 26.2154 31.4751C26.2154 31.4751 26.0034 29.9437 26.579 26.3096C26.606 26.1454 26.6434 25.9751 26.6829 25.7984C18.1617 23.2032 17.9207 14.9625 17.9352 13.7054C17.9364 13.6844 17.9343 13.6173 17.9322 13.5516C17.9306 13.5004 17.929 13.4501 17.929 13.4229C17.9622 12.0099 18.1596 10.649 18.3633 9.45005C18.4277 9.08019 18.4755 8.70826 18.5191 8.33633L18.5232 8.32802C19.0157 5.76605 18.9326 4.42377 18.8162 3.80042C18.8017 3.71315 18.783 3.63211 18.7601 3.55731C18.7352 3.4742 18.7082 3.40147 18.6832 3.34329C18.6396 3.2394 18.6022 3.17915 18.6022 3.17915C18.4547 2.87578 18.5939 2.77812 18.5939 2.77812C18.6999 2.72202 18.8557 2.81968 18.8557 2.81968C19.024 2.93812 19.1736 3.08149 19.3128 3.23317C19.5476 3.48874 19.7492 3.77548 19.932 4.07054C20.0837 4.31572 20.2021 4.57337 20.2936 4.84141C20.2991 4.85847 20.3045 4.87548 20.31 4.89246C20.3439 4.99753 20.3774 5.10128 20.4078 5.20503C20.4619 5.38788 20.5159 5.57281 20.5471 5.75981C20.5471 5.76397 20.5471 5.76605 20.5491 5.7702C20.6239 6.07772 20.6883 6.38524 20.7424 6.69692C20.867 7.40338 20.946 8.11815 20.9772 8.83501C20.9899 9.11985 20.9932 9.40442 20.9965 9.68881C21.0023 10.1928 21.0081 10.6962 21.0665 11.1996L21.106 11.5445C21.4322 14.4181 23.2108 17.1339 25.5297 18.3016C26.9717 19.112 28.3285 19.1639 29.7872 19.0268L29.5586 18.8003C29.5358 18.7795 29.5108 18.7567 29.4859 18.7359C28.7815 18.1084 27.7301 17.0175 27.0943 15.6399C26.4199 14.1801 26.3704 12.1832 26.3252 10.3662C26.302 9.42881 26.2799 8.53929 26.1738 7.79609C25.8622 5.61021 25.0269 3.99989 24.9375 3.86691C24.8419 3.72562 24.7651 3.59056 24.8814 3.49705C24.9998 3.40147 25.0767 3.46796 25.3053 3.66744C25.7042 4.01443 27.0444 5.20088 27.9732 7.38468C28.1986 7.91475 28.3135 8.49109 28.4372 9.11186C28.6248 10.0533 28.8327 11.0969 29.4776 12.2364C30.0303 13.213 31.2354 14.0483 32.3824 14.6696C32.399 14.6426 32.4156 14.6135 32.4281 14.5906C32.638 14.1958 32.7585 13.7075 32.827 13.294C32.8998 12.9741 32.9309 12.6832 32.9185 12.438C32.9185 12.438 41.2319 13.2338 46.1106 17.6305C50.9896 22.0272 52.1966 26.8789 52.3379 28.3833C52.3379 28.3833 54.1124 28.1111 54.5653 27.4503C54.5653 27.4503 54.557 28.2337 54.2163 29.1978C53.9548 29.9387 53.2488 30.3155 52.9722 30.4631C52.8881 30.508 52.8437 30.5317 52.8636 30.538C52.9488 30.5671 53.1753 31.2486 53.1753 31.7868C53.1753 32.327 53.2314 32.78 53.6282 33.0355C54.0251 33.2911 54.3948 33.6298 54.3948 33.8293C54.3948 33.9658 54.3013 34.2612 54.2151 34.5339C54.1754 34.6595 54.1372 34.7803 54.1103 34.8786C54.1103 34.8786 55.1326 36.0422 55.415 37.5467C55.415 37.5467 54.5653 37.8871 54.1394 38.1138C54.1394 38.1138 54.1394 38.9659 53.6573 40.3266C53.6573 40.3266 54.3098 40.497 54.5653 40.5529Z" fill="black"/>
<path fill-rule="evenodd" clip-rule="evenodd" d="M55.5855 43.2773C55.5585 43.703 55.2739 43.9565 54.1394 44.1271C53.2833 44.2557 50.7045 44.4012 47.8809 44.9497C47.6171 45.9139 47.0477 48.0416 46.4223 49.5461C45.6577 51.391 43.7271 53.9449 40.8329 54.2566C40.8329 54.2566 42.9045 52.5546 43.3596 50.2274C43.7232 48.3574 43.5403 47.3496 43.4822 46.1863C41.4542 46.9756 39.8252 48.033 39.1499 48.5049C39.1956 50.2295 38.2043 51.7378 38.2043 51.7378C38.2043 51.7378 38.5513 53.099 38.3167 54.5743C38.0424 56.3051 36.723 57.691 36.723 57.691C36.723 57.691 36.7564 57.9798 36.5233 58.4183C36.2409 58.9583 35.9147 59.1704 35.9147 59.1704C35.9147 59.1704 35.9147 59.5403 35.6589 59.9371C35.4511 60.2613 35.0129 60.5501 34.7802 60.6187C34.7802 60.6187 34.0239 61.5766 33.4171 61.0633C32.8085 60.5501 33.2218 59.2722 33.361 59.0003C33.361 59.0003 33.1865 58.6406 33.2488 58.3476C33.3091 58.0567 33.5169 57.6783 33.5169 57.6783C33.5169 57.6783 33.3047 57.1612 33.361 56.8162C33.4192 56.4734 33.7621 56.0327 33.7621 56.0327C33.7621 56.0327 33.3839 55.6817 33.4234 55.0501C33.4629 54.4184 33.7621 53.9156 33.7621 53.9156C33.7621 53.9156 33.1055 53.2154 32.8229 52.4466C32.5403 51.6778 32.6234 50.6035 32.6234 50.6035C32.6234 50.6035 31.4224 49.8036 30.6952 48.6171C30.0199 47.5159 29.9222 45.5336 30.0178 44.9329C29.65 44.6443 28.2454 43.3602 27.8569 41.3613C27.8569 41.3613 26.7764 41.6896 25.7437 41.4611C24.8336 41.2616 24.071 40.8545 24.071 40.8545C24.071 40.8545 22.1179 41.1847 20.1897 41.2967C18.3508 41.405 12.3354 42.2384 8.48522 45.0183C9.19792 43.9669 10.1807 42.6745 11.4835 41.272C11.4898 41.2657 11.4981 41.2595 11.5022 41.2514C11.602 41.1452 11.7017 41.0393 11.8014 40.9354C12.2129 40.499 12.6471 40.0606 13.1105 39.6139C15.5789 37.2493 18.1014 35.5164 20.4265 34.2427C22.5044 33.0541 24.4762 32.169 26.2195 31.5124C26.2175 31.4895 26.2154 31.475 26.2154 31.475C26.2154 31.475 26.0034 29.9436 26.579 26.3095C26.606 26.1453 26.6434 25.975 26.6829 25.7983C18.1617 23.2031 17.9207 14.9625 17.9352 13.7054C17.9373 13.668 17.929 13.4851 17.929 13.4228C17.9622 12.0099 18.1596 10.6489 18.3632 9.44996C18.4277 9.08011 18.4754 8.70817 18.5191 8.33624L18.5232 8.32793C19.0157 5.76596 18.9326 4.42368 18.8162 3.80033C18.8017 3.71306 18.783 3.63203 18.7601 3.55723C18.7352 3.47411 18.7082 3.40139 18.6832 3.34321C18.6396 3.23932 18.6022 3.17906 18.6022 3.17906C18.4547 2.8757 18.5939 2.77804 18.5939 2.77804C18.6998 2.72194 18.8557 2.81959 18.8557 2.81959C19.024 2.93803 19.1736 3.0814 19.3128 3.23308C19.5476 3.48866 19.7492 3.7754 19.932 4.07045C20.0837 4.31563 20.2021 4.57329 20.2935 4.84133C20.333 4.96392 20.3725 5.08443 20.4078 5.20495C20.4619 5.3878 20.5159 5.57272 20.547 5.75973C20.547 5.76388 20.547 5.76596 20.5491 5.77012C20.6239 6.07764 20.6883 6.38516 20.7424 6.69683C20.867 7.40329 20.946 8.11807 20.9772 8.83492C21.0125 9.6245 20.9751 10.412 21.0665 11.1995L21.106 11.5444C21.4322 14.4181 23.2108 17.1338 25.5297 18.3015C26.9717 19.1119 28.3285 19.1638 29.7872 19.0267L29.5586 18.8002C29.5357 18.7794 29.5108 18.7566 29.4859 18.7358C28.7815 18.1083 27.7301 17.0174 27.0943 15.6398C26.072 13.4269 26.4855 9.97981 26.1738 7.796C25.8621 5.61012 25.0269 3.9998 24.9375 3.86682C24.8419 3.72553 24.765 3.59047 24.8814 3.49697C24.9998 3.40139 25.0767 3.46788 25.3053 3.66735C25.7042 4.01435 27.0444 5.20079 27.9732 7.38459C28.5405 8.71856 28.4075 10.3455 29.4776 12.2363C30.0303 13.2129 31.2354 14.0482 32.3824 14.6695C32.399 14.6425 32.4156 14.6134 32.4281 14.5905C32.638 14.1957 32.7585 13.7074 32.827 13.294C32.8998 12.974 32.9309 12.6831 32.9185 12.4379C32.9185 12.4379 41.2319 13.2337 46.1106 17.6304C50.9896 22.0271 52.1966 26.8788 52.3379 28.3832C52.3379 28.3832 54.1124 28.111 54.5653 27.4502C54.5653 27.4502 54.557 28.2336 54.2163 29.1977C53.8753 30.1639 52.7784 30.5109 52.8636 30.5379C52.9488 30.567 53.1753 31.2485 53.1753 31.7867C53.1753 32.3269 53.2314 32.7799 53.6282 33.0354C54.0251 33.291 54.3947 33.6297 54.3947 33.8292C54.3947 34.0286 54.1955 34.5668 54.1103 34.8785C54.1103 34.8785 55.1326 36.0421 55.415 37.5466C55.415 37.5466 54.5653 37.887 54.1394 38.1137C54.1394 38.1137 54.1394 38.9658 53.6573 40.3266C53.6573 40.3266 54.3098 40.4969 54.5653 40.5528C54.8209 40.6091 55.3321 41.0642 55.415 41.5733C55.5004 42.0844 55.6146 42.8511 55.5855 43.2773ZM56.1299 41.4735C55.999 40.6819 55.2822 39.99 54.723 39.8653C54.6837 39.857 54.6318 39.8466 54.5757 39.8322C54.7211 39.3084 54.7916 38.8906 54.8269 38.5978C55.1492 38.4503 55.5255 38.2965 55.6873 38.2319L56.238 38.0098L56.1278 37.428C55.9011 36.227 55.2718 35.2338 54.9121 34.7434C55.0413 34.3341 55.118 34.0681 55.118 33.8419C55.118 33.3804 54.7482 32.9087 54.0209 32.4412C53.9627 32.404 53.8962 32.2978 53.8962 31.7971C53.8962 31.7887 53.8879 31.3192 53.7653 30.8413C54.1601 30.5732 54.6544 30.1327 54.8978 29.447C55.1409 28.7572 55.2323 28.1463 55.2676 27.791C55.2863 27.5978 55.2591 27.1344 55.2591 27.1344L55.1845 26.2409C55.1845 26.2409 54.7357 26.5983 54.4866 26.7895C54.4199 26.8393 54.37 26.8767 54.3428 26.8934C54.3074 26.9204 54.2682 26.9453 54.2308 26.9682C54.0477 27.0783 53.8443 27.1656 53.757 27.2113C53.5615 27.3172 53.2646 27.4295 52.9382 27.5209C52.4688 25.0919 50.7483 20.8427 46.5885 17.0943C41.5851 12.5854 33.3213 11.7501 32.9725 11.7148L32.1974 11.6421C32.1974 11.6421 32.1808 12.8036 32.1079 13.134L32.0998 13.1714C32.0728 13.3314 32.0416 13.483 32.004 13.6243C31.0629 13.0363 30.4064 12.44 30.0884 11.8769C29.5004 10.838 29.3093 9.88423 29.1264 8.96375C28.9976 8.31131 28.8729 7.69211 28.6194 7.0937C27.9504 5.52286 26.9883 4.18265 25.7603 3.11257C25.538 2.92141 25.3115 2.72194 24.9624 2.72194C24.8232 2.72194 24.6154 2.75726 24.4056 2.92556C24.256 3.04816 23.8072 3.50112 24.3079 4.24291C24.3162 4.25538 25.1328 5.74934 25.4383 7.88951C25.5401 8.59389 25.5608 9.46243 25.5837 10.3808C25.6294 12.2405 25.6834 14.3453 26.419 15.9411C26.7431 16.6413 27.1608 17.2709 27.5971 17.8174C27.6408 17.8714 27.807 18.046 27.8361 18.0813C27.9109 18.1686 27.9878 18.2558 28.0626 18.3389C27.2584 18.2704 26.5686 18.0584 25.8829 17.674L25.8538 17.6574C23.7427 16.5936 22.122 14.1043 21.8228 11.4613L21.7833 11.1164C21.7272 10.6489 21.7231 10.1751 21.7169 9.67437C21.7148 9.3897 21.7106 9.09673 21.6982 8.80168C21.6649 8.06197 21.5839 7.31187 21.453 6.57216C21.3989 6.26049 21.3325 5.94673 21.2597 5.63922L21.2535 5.61636C21.214 5.38987 21.1517 5.17586 21.0997 5.0034C21.0623 4.87249 21.0208 4.74367 20.9771 4.61484C20.8691 4.2907 20.7257 3.9811 20.547 3.69229C20.3102 3.30789 20.0858 3.0066 19.8426 2.74272C19.6515 2.53493 19.4645 2.36663 19.2733 2.23157L19.2442 2.21287C19.1632 2.15884 18.9429 2.03833 18.6687 2.03833C18.5232 2.03833 18.384 2.07158 18.2573 2.13807L18.1762 2.18793C17.8583 2.41234 17.6672 2.90479 17.9539 3.49489L17.9809 3.54476C17.9871 3.55515 18.0017 3.58424 18.0204 3.62579C18.037 3.66527 18.0536 3.71306 18.0703 3.76501C18.0848 3.81072 18.0952 3.86267 18.1077 3.93331C18.2032 4.44654 18.2926 5.67038 17.8272 8.12638L17.8022 8.25313C17.7503 8.68947 17.7046 9.01985 17.6526 9.32737C17.4531 10.5034 17.2433 11.906 17.208 13.4062C17.208 13.4519 17.21 13.5474 17.2121 13.6264L17.2142 13.6971C17.2038 14.6903 17.3555 23.2987 25.8517 26.2846L25.858 26.2866L25.831 26.297C25.4445 28.7717 25.4175 30.2969 25.4424 31.0407C23.5994 31.7638 21.7854 32.6323 20.0546 33.6235C17.3451 35.107 14.8309 36.9542 12.5806 39.111C12.1256 39.5492 11.6892 39.9881 11.2487 40.4533C11.1448 40.5614 11.043 40.6694 10.9537 40.7673L10.9246 40.7982C9.81087 41.9973 8.8052 43.248 7.93459 44.5155C7.90758 44.555 7.82862 44.6817 7.79745 44.7565C7.69772 44.9849 7.59175 45.4235 7.79953 45.6541C7.9242 45.7933 8.16939 45.9118 8.63274 45.7144C8.6556 45.7082 8.74495 45.6728 8.77819 45.6541C8.86754 45.6043 9.00052 45.5211 9.04415 45.4877C11.8575 43.3353 18.3196 42.1465 20.2063 42.0366C21.7875 41.9431 23.3563 41.7123 23.9381 41.6211C24.2539 41.7709 24.871 42.0306 25.5671 42.1841C25.8621 42.2486 26.18 42.2818 26.5146 42.2818C26.8055 42.2818 27.0777 42.2571 27.3104 42.2236C27.7924 43.7467 28.7524 44.7918 29.2511 45.2593C29.2199 46.1777 29.3757 47.9005 30.0635 49.0181C30.6245 49.9345 31.4266 50.6347 31.8733 50.984C31.8733 51.4222 31.9107 52.1268 32.131 52.7229C32.3263 53.2569 32.6566 53.7411 32.9018 54.0588C32.8062 54.3145 32.7107 54.6534 32.6878 55.0335C32.6608 55.4613 32.7605 55.8064 32.8852 56.0641C32.7772 56.2594 32.6753 56.4942 32.6359 56.729C32.5818 57.051 32.6483 57.4022 32.7231 57.6596C32.6483 57.824 32.5694 58.0339 32.5255 58.2333C32.4676 58.5201 32.5154 58.8068 32.5754 59.0208C32.3533 59.667 32.11 60.9532 32.9351 61.6495C33.1844 61.8591 33.4838 61.9693 33.7995 61.9693C34.4332 61.9693 34.9483 61.5184 35.1958 61.2566C35.5635 61.0841 36.0038 60.7475 36.2536 60.3608C36.4425 60.0678 36.5339 59.7855 36.5796 59.5717C36.7458 59.4052 36.9575 59.1517 37.1487 58.7881C37.311 58.4808 37.3837 58.2167 37.4149 58.0172C37.7743 57.5871 38.5702 56.5316 38.9149 55.2163L38.9961 54.8527C39.0044 54.8093 39.0127 54.7634 39.0188 54.7156C39.2078 53.5227 39.0543 52.4092 38.9566 51.8897C39.2371 51.3869 39.7878 50.242 39.8543 48.9142C40.4631 48.5091 41.5248 47.8546 42.8214 47.2665C42.8713 48.0603 42.886 48.8768 42.6448 50.1152C42.3477 51.6279 41.2443 52.8788 40.6895 53.4273C40.4965 53.6164 40.0205 54.1566 40.0205 54.1566C40.0205 54.1566 39.8378 54.3104 39.8732 54.6241C39.875 54.6428 39.8898 54.6969 39.9041 54.7363C39.9104 54.7507 39.9436 54.7987 39.9581 54.8111C40.222 55.0667 40.9472 54.9732 40.9472 54.9732C44.0702 54.6387 46.1852 52.0144 47.0851 49.8472C47.6461 48.4966 48.1531 46.6951 48.4542 45.5959C50.2642 45.2677 51.9389 45.1035 53.0755 44.9915C53.5825 44.9414 53.9835 44.902 54.2474 44.8604C54.9393 44.7586 56.2276 44.5653 56.3086 43.3436C56.3356 42.955 56.2774 42.361 56.1299 41.4735Z" fill="white"/>
</svg>
