<svg width="64" height="64" viewBox="0 0 64 64" fill="none" xmlns="http://www.w3.org/2000/svg">
<g clip-path="url(#clip0_14_2406)">
<path d="M42.7654 15.8721L44.6475 21.6425L43.2472 25.9307L39.9781 15.8721H25.3243L22.6958 23.9349L20.0779 15.8721H2.56006L8.06318 24.8084L15.6019 47.9644H29.7872L32.638 39.2107L35.4809 47.9644H51.0003L61.4401 15.8721H42.7654ZM10.022 23.9004L6.39557 18.0135H18.5215L21.5682 27.3971L16.3642 43.3824L10.022 23.9004ZM28.2228 45.8706H17.8095L26.3143 19.7446L31.513 35.7484L28.2228 45.8706ZM28.0031 18.0135H38.4217L42.1275 29.3956L36.9129 45.418L28.0031 18.0135ZM49.4253 45.8574H39.0146L46.8921 21.6558L45.7063 18.0135H58.4834L49.4253 45.8574Z" fill="#FFB612"/>
<path d="M42.1195 29.3984L36.9049 45.4208L28.003 18.0137H38.4216L42.1195 29.3984ZM45.7062 18.0137L46.8867 21.656L39.0093 45.8575H49.4199L58.4886 18.0137H45.7062ZM18.5214 18.0137H6.39551L10.0219 23.9006L16.3747 43.3826L21.5681 27.3973L18.5214 18.0137ZM17.8094 45.8575H28.2359L31.5262 35.7486L26.3142 19.7448L17.8094 45.8575Z" fill="#5A1414"/>
</g>
<defs>
<clipPath id="clip0_14_2406">
<rect width="58.88" height="32.0923" fill="white" transform="translate(2.56006 15.8721)"/>
</clipPath>
</defs>
</svg>
